<?xml version="1.0" encoding="utf-8"?>
<!-- Generator: Adobe Illustrator 21.0.0, SVG Export Plug-In . SVG Version: 6.00 Build 0)  -->
<svg version="1.1" id="Layer_1" xmlns="http://www.w3.org/2000/svg" xmlns:xlink="http://www.w3.org/1999/xlink" x="0px" y="0px"
	 viewBox="0 0 870 110" style="enable-background:new 0 0 870 110;" xml:space="preserve">
<style type="text/css">
	.st0{display:none;}
	.st1{display:inline;}
	.st2{fill:#FFFFFF;}
	.st3{fill:none;}
	.st4{fill:#231F20;}
</style>
<g class="st0">
	<g class="st1">
		<path class="st2" d="M105.1,4.9H144c10.8,0,19.2,3,24.8,8.6c4.7,4.7,7.3,11.4,7.3,19.5v0.2c0,13.7-7.4,22.4-18.2,26.4L178.7,90
			h-21.9l-18.2-27.2h-14.7V90h-18.7L105.1,4.9z M142.8,46.2c9.1,0,14.4-4.9,14.4-12V34c0-8-5.6-12.2-14.7-12.2h-18.6v24.4
			L142.8,46.2z"/>
		<path class="st2" d="M174.8,57.8v-0.2c0-18.6,13.3-33.9,32.2-33.9c21.8,0,31.7,16.9,31.7,35.4c0,1.5-0.1,3.2-0.2,4.9h-45.4
			c1.8,8.4,7.7,12.8,15.9,12.8c6.2,0,10.7-1.9,15.8-6.7l10.6,9.4c-6.1,7.5-14.8,12.2-26.6,12.2C189.3,91.5,174.8,77.7,174.8,57.8z
			 M220.8,52.3c-1.1-8.3-6-13.9-13.7-13.9s-12.6,5.5-14.1,13.9L220.8,52.3z"/>
		<path class="st2" d="M236.8,77.6l11.1-13.3c7.7,6.3,15.7,10.3,25.4,10.3c7.7,0,12.3-3,12.3-8v-0.2c0-4.7-2.9-7.2-17.1-10.8
			c-17.1-4.4-28.2-9.1-28.2-26v-0.2c0-15.4,12.4-25.7,29.8-25.7c12.4,0,23,3.9,31.6,10.8L292,28.6c-7.5-5.2-15-8.4-22.1-8.4
			c-7.2,0-10.9,3.3-10.9,7.4v0.2c0,5.6,3.6,7.4,18.4,11.2c17.3,4.5,27,10.7,27,25.5v0.2c0,16.9-12.9,26.4-31.3,26.4
			C260,91.2,247,86.7,236.8,77.6z"/>
		<path class="st2" d="M306.4,1.2h18.5V34c4.3-5.5,9.7-10.5,19.1-10.5c14,0,22.1,9.2,22.1,24.2v42.2h-18.5V53.7
			c0-8.8-4.1-13.3-11.2-13.3s-11.6,4.5-11.6,13.3V90h-18.5L306.4,1.2z"/>
		<path class="st2" d="M369,71.3V71c0-14.2,10.8-20.8,26.3-20.8c6.6,0,11.3,1.1,15.9,2.7v-1.1c0-7.7-4.7-11.9-14-11.9
			c-7.1,0-12,1.3-18,3.5l-4.6-14.1c7.2-3.2,14.2-5.2,25.3-5.2c10.1,0,17.4,2.7,22,7.3c4.9,4.9,7.1,12,7.1,20.8V90h-18v-7
			c-4.5,5-10.7,8.3-19.7,8.3C379,91.2,369,84.2,369,71.3z M411.4,67v-3.3c-3.2-1.5-7.3-2.4-11.8-2.4c-7.9,0-12.8,3.2-12.8,9v0.2
			c0,5,4.1,7.9,10.1,7.9C405.6,78.5,411.4,73.7,411.4,67z"/>
		<path class="st2" d="M432.2,24.8h18.5V38c3.8-9,9.9-14.8,20.8-14.4V43h-1c-12.3,0-19.8,7.4-19.8,23v24h-18.5V24.8z"/>
		<path class="st2" d="M474.8,24.8h18.5v9.4c4.5-6.1,10.7-10.6,20.3-10.6c15.2,0,29.7,11.9,29.7,33.7v0.2
			c0,21.8-14.2,33.7-29.7,33.7c-9.9,0-15.9-4.5-20.3-9.7v28h-18.5V24.8z M524.7,57.5v-0.2c0-10.8-7.3-18-15.9-18s-15.8,7.2-15.8,18
			v0.2c0,10.8,7.2,18,15.8,18C517.4,75.5,524.7,68.5,524.7,57.5z"/>
		<path class="st2" d="M545.9,57.8v-0.2c0-18.6,13.3-33.9,32.2-33.9c21.8,0,31.7,16.9,31.7,35.4c0,1.5-0.1,3.2-0.2,4.9h-45.4
			c1.8,8.4,7.7,12.8,15.9,12.8c6.2,0,10.7-1.9,15.8-6.7l10.6,9.4c-6.1,7.5-14.8,12.2-26.6,12.2C560.4,91.5,545.9,77.7,545.9,57.8z
			 M591.9,52.3c-1.1-8.3-6-13.9-13.7-13.9s-12.6,5.5-14.1,13.9L591.9,52.3z"/>
		<path class="st2" d="M612.8,24.8h18.5V38c3.8-9,9.9-14.8,20.8-14.4V43h-1c-12.3,0-19.8,7.4-19.8,23v24h-18.5V24.8z"/>
	</g>
	<g class="st1">
		<rect x="-0.8" y="4.9" width="85" height="85"/>
		<rect x="7.2" y="74" class="st2" width="31.9" height="5.3"/>
		<path class="st2" d="M30.2,32.3h-2.3v-3.9h3l0.8-4.5H29V20h3.3l0.8-4.4h4L36.3,20h4.4l0.8-4.4h4L44.8,20h2.3v3.9h-3l-0.8,4.5H46
			v3.9h-3.3l-0.8,4.6h-4l0.8-4.6h-4.4l-0.8,4.6h-4L30.2,32.3z M39.3,28.4l0.8-4.5h-4.4l-0.8,4.5H39.3z"/>
		<path class="st2" d="M7.2,15.6h9.7c2.7,0,4.8,0.7,6.2,2.2c1.2,1.2,1.8,2.8,1.8,4.9v0.1c0,1.7-0.4,3.1-1.3,4.2
			c-0.8,1.1-1.9,1.9-3.3,2.4l5.2,7.6H20l-4.4-6.5h-3.9V37H7.2V15.6z M16.6,25.9c1.2,0,2-0.3,2.7-0.8c0.6-0.5,0.9-1.3,0.9-2.2v-0.1
			c0-1-0.3-1.8-1-2.3c-0.6-0.5-1.5-0.8-2.7-0.8h-4.6v6.1L16.6,25.9L16.6,25.9z"/>
	</g>
</g>
<g class="st0">
	<g class="st1">
		<path class="st2" d="M135.4,56.4L102.7,4.9h21.9L144.8,39l20.7-34.1h21.3L154.1,56v33.9h-18.7L135.4,56.4L135.4,56.4z"/>
		<path class="st2" d="M165.6,57.7v-0.2c0-18.7,15.1-33.9,35.4-33.9c20.2,0,35.1,14.9,35.1,33.7v0.2c0,18.7-15.1,33.9-35.4,33.9
			C180.6,91.4,165.6,76.4,165.6,57.7z M217.9,57.7v-0.2c0-9.6-6.9-18-17.1-18c-10.6,0-16.9,8.1-16.9,17.7v0.2c0,9.6,6.9,18,17.1,18
			C211.5,75.5,217.9,67.3,217.9,57.7z"/>
		<path class="st2" d="M238.7,67V24.8h18.5v36.3c0,8.7,4.1,13.2,11.2,13.2c7,0,11.5-4.5,11.5-13.2V24.8h18.5v65.1h-18.5v-9.2
			c-4.3,5.5-9.7,10.4-19.1,10.4C246.9,91.1,238.7,81.9,238.7,67z"/>
		<path class="st2" d="M324.5,22.1h-25.9V4.9h70.5v17.3h-25.9V90h-18.7V22.1z"/>
		<path class="st2" d="M365.1,24.8h18.5v13.1c3.8-9,9.8-14.8,20.8-14.3v19.3h-1c-12.3,0-19.8,7.4-19.8,23V90h-18.5V24.8z"/>
		<path class="st2" d="M400.3,71.2V71c0-14.2,10.8-20.8,26.2-20.8c6.6,0,11.3,1.1,15.9,2.7v-1.1c0-7.7-4.7-11.9-14-11.9
			c-7,0-12,1.3-18,3.5l-4.6-14.1c7.2-3.2,14.2-5.2,25.3-5.2c10.1,0,17.4,2.7,22,7.3c4.9,4.9,7,12,7,20.8V90h-17.9v-7
			c-4.5,5-10.7,8.3-19.7,8.3C410.4,91.1,400.3,84.1,400.3,71.2z M442.7,67v-3.3c-3.2-1.5-7.3-2.4-11.8-2.4c-7.9,0-12.8,3.2-12.8,9
			v0.2c0,5,4.1,7.9,10.1,7.9C436.9,78.4,442.7,73.7,442.7,67z"/>
		<path class="st2" d="M462.8,57.7v-0.2c0-18.6,14.2-33.9,34.1-33.9c12.3,0,19.9,4.1,26,10.9l-11.3,12.2c-4.1-4.4-8.3-7.2-14.8-7.2
			c-9.2,0-15.8,8.1-15.8,17.7v0.2c0,10,6.4,18,16.5,18c6.2,0,10.5-2.7,14.9-6.9l10.8,10.9c-6.3,6.9-13.6,11.9-26.6,11.9
			C477.1,91.4,462.8,76.3,462.8,57.7z"/>
		<path class="st2" d="M525.1,1.2h18.5v47.3l21.6-23.7h22.1l-24.8,25.6l25.6,39.5h-21.4l-16.6-26.7l-6.6,6.9v19.8H525L525.1,1.2
			L525.1,1.2z"/>
	</g>
	<g class="st1">
		<rect x="-0.8" y="4.9" width="85" height="85"/>
		<rect x="7.2" y="74" class="st2" width="31.9" height="5.3"/>
		<g>
			<polygon class="st2" points="14.5,28.4 6.4,15.6 11.8,15.6 16.9,24.1 22,15.6 27.3,15.6 19.2,28.3 19.2,36.7 14.5,36.7 			"/>
			<polygon class="st2" points="36.1,19.9 29.7,19.9 29.7,15.6 47.2,15.6 47.2,19.9 40.8,19.9 40.8,36.7 36.1,36.7 			"/>
		</g>
	</g>
</g>
<g class="st0">
	<g class="st1">
		<path class="st2" d="M103.7,57.5v-0.2c0-21.7,14.2-33.7,29.6-33.7c9.8,0,15.9,4.5,20.3,9.7v-32h18.5V90h-18.5v-9.4
			c-4.5,6.1-10.7,10.6-20.3,10.6C118.2,91.2,103.7,79.3,103.7,57.5z M153.9,57.5v-0.2c0-10.8-7.2-18-15.8-18s-15.9,7-15.9,18v0.2
			c0,10.8,7.3,18,15.9,18S153.9,68.3,153.9,57.5z"/>
		<path class="st2" d="M175.3,57.8v-0.2c0-18.7,15.1-33.9,35.4-33.9c20.2,0,35.1,14.9,35.1,33.7v0.2c0,18.7-15.1,33.9-35.4,33.9
			C190.2,91.4,175.3,76.5,175.3,57.8z M227.5,57.8v-0.2c0-9.6-6.9-18-17.1-18c-10.6,0-16.9,8.1-16.9,17.7v0.2c0,9.6,6.9,18,17.1,18
			C221.2,75.5,227.5,67.4,227.5,57.8z"/>
		<path class="st2" d="M251.9,71.5V40.6h-7.8V24.8h7.8V8.2h18.5v16.6h15.3v15.8h-15.3v27.8c0,4.3,1.8,6.3,6,6.3
			c3.4,0,6.4-0.9,9.1-2.3v14.8c-3.9,2.3-8.4,3.8-14.6,3.8C259.6,91,251.9,86.6,251.9,71.5z"/>
		<path class="st2" d="M306.7,22.2h-25.9V4.9h70.5v17.3h-25.9V90h-18.7V22.2z"/>
		<path class="st2" d="M344.6,24.8h18.5v13.1c3.8-9,9.8-14.8,20.8-14.3v19.3h-1c-12.3,0-19.8,7.4-19.8,23V90h-18.5V24.8z"/>
		<path class="st2" d="M380.7,71.2V71c0-14.2,10.8-20.8,26.2-20.8c6.6,0,11.3,1.1,15.9,2.7v-1.1c0-7.7-4.7-11.9-14-11.9
			c-7,0-12,1.3-18,3.5l-4.6-14.1c7.2-3.2,14.2-5.2,25.3-5.2c10.1,0,17.4,2.7,22,7.3c4.9,4.9,7,12,7,20.8V90h-17.9v-7
			c-4.5,5-10.7,8.3-19.7,8.3C390.8,91.2,380.7,84.1,380.7,71.2z M423.1,67v-3.3c-3.2-1.5-7.3-2.4-11.8-2.4c-7.9,0-12.8,3.2-12.8,9
			v0.2c0,5,4.1,7.9,10.1,7.9C417.3,78.4,423.1,73.7,423.1,67z"/>
		<path class="st2" d="M443.5,57.8v-0.2c0-18.6,14.2-33.9,34.1-33.9c12.3,0,19.9,4.1,26,10.9l-11.3,12.2c-4.1-4.4-8.3-7.2-14.8-7.2
			c-9.2,0-15.8,8.1-15.8,17.7v0.2c0,10,6.4,18,16.5,18c6.2,0,10.5-2.7,14.9-6.9L504,79.5c-6.3,6.9-13.6,11.9-26.6,11.9
			C457.9,91.4,443.5,76.3,443.5,57.8z"/>
		<path class="st2" d="M500.9,57.8v-0.2c0-18.6,13.2-33.9,32.2-33.9c21.7,0,31.7,16.9,31.7,35.4c0,1.5-0.1,3.2-0.2,4.9h-45.3
			c1.8,8.4,7.7,12.8,15.9,12.8c6.2,0,10.7-1.9,15.8-6.7l10.6,9.4c-6.1,7.5-14.8,12.2-26.6,12.2C515.3,91.4,500.9,77.7,500.9,57.8z
			 M546.8,52.3c-1.1-8.3-6-13.9-13.7-13.9s-12.6,5.5-14.1,13.9C519,52.3,546.8,52.3,546.8,52.3z"/>
	</g>
	<g class="st1">
		<rect x="-0.8" y="4.9" width="85" height="85"/>
		<rect x="7.2" y="74.6" class="st2" width="31.9" height="5.3"/>
		<path class="st2" d="M7.1,16.1h8.3c6.7,0,11.3,4.6,11.3,10.6v0.1c0,6-4.6,10.7-11.3,10.7H7.1V16.1z M11.8,20.4v12.9h3.6
			c3.8,0,6.4-2.6,6.4-6.4v-0.1c0-3.8-2.6-6.4-6.4-6.4H11.8z"/>
		<polygon class="st2" points="35.3,20.5 28.8,20.5 28.8,16.1 46.5,16.1 46.5,20.5 40,20.5 40,37.5 35.3,37.5 		"/>
	</g>
</g>
<g class="st0">
	<g class="st1">
		<line class="st3" x1="716.9" y1="129.3" x2="717.7" y2="129.3"/>
	</g>
	<g class="st1">
		<rect x="-0.8" y="4.9" width="85" height="85"/>
		<rect x="7.2" y="74" class="st2" width="31.9" height="5.3"/>
		<rect x="10.1" y="15.5" class="st2" width="4.7" height="21.2"/>
		<rect x="7.1" y="32.9" class="st2" width="10.6" height="3.9"/>
		<rect x="7.1" y="15.5" class="st2" width="10.6" height="3.9"/>
		<path class="st2" d="M27.9,37.1c-1.7,0-3-0.3-4.2-0.9c-1.1-0.6-2-1.4-2.8-2.2l2.9-3.3c0.6,0.7,1.2,1.2,1.8,1.6
			c0.6,0.4,1.3,0.6,2,0.6c0.9,0,1.6-0.3,2.1-0.8c0.5-0.6,0.8-1.5,0.8-2.7V15.5h4.8v13.9c0,1.3-0.2,2.4-0.5,3.3s-0.8,1.7-1.5,2.4
			c-0.6,0.6-1.4,1.1-2.4,1.5C30.1,36.9,29,37.1,27.9,37.1"/>
	</g>
	<g class="st1">
		<path class="st2" d="M105.3,5H124v85.1h-18.7V5z"/>
		<path class="st2" d="M129,24.9h18.5v9.2c4.3-5.5,9.7-10.4,19.1-10.4c14,0,22.1,9.2,22.1,24.2v42.2h-18.5V53.7
			c0-8.7-4.1-13.2-11.2-13.2c-7,0-11.5,4.5-11.5,13.2V90H129V24.9z"/>
		<path class="st2" d="M198.6,71.6V40.7h-7.8V24.9h7.8V8.3h18.5v16.6h15.3v15.8h-15.3v27.8c0,4.3,1.8,6.3,6,6.3
			c3.4,0,6.4-0.9,9.1-2.3v14.8c-3.9,2.3-8.4,3.8-14.6,3.8C206.3,91.1,198.6,86.6,198.6,71.6z"/>
		<path class="st2" d="M231.9,57.9v-0.2c0-18.6,13.2-33.9,32.2-33.9c21.8,0,31.7,16.9,31.7,35.4c0,1.5-0.1,3.2-0.2,4.9h-45.3
			c1.8,8.4,7.7,12.8,15.9,12.8c6.2,0,10.7-1.9,15.8-6.7l10.6,9.4c-6.1,7.5-14.8,12.2-26.6,12.2C246.3,91.5,231.9,77.8,231.9,57.9z
			 M277.8,52.4c-1.1-8.3-6-13.9-13.7-13.9S251.5,44,250,52.4H277.8z"/>
		<path class="st2" d="M299.3,1.4h18.5v88.7h-18.5V1.4z"/>
		<path class="st2" d="M321.7,1.4h18.5v88.7h-18.5V1.4z"/>
		<path class="st2" d="M344.8,1.4h19.4v16.4h-19.4V1.4z M345.2,24.9h18.5V90h-18.5V24.9z"/>
		<path class="st2" d="M365,78.5l11.8-13.1c4.9,5.3,9.6,8.5,15.6,8.5c7,0,11.4-4.3,11.4-14.1V5H423v55.6c0,10.1-2.9,17.6-8,22.7
			c-5.2,5.2-12.9,7.9-22.1,7.9C379.6,91.3,370.9,85.4,365,78.5z"/>
		<path class="st2" d="M453.6,5h18.7v85.1h-18.7V5z"/>
		<path class="st2" d="M479,5h33.2c26.7,0,45.2,18.3,45.2,42.3v0.2c0,23.9-18.5,42.5-45.2,42.5H479V5z M497.7,21.9v51.3h14.5
			c15.3,0,25.6-10.3,25.6-25.4v-0.2c0-15.1-10.3-25.6-25.6-25.6L497.7,21.9L497.7,21.9z"/>
		<path class="st2" d="M561.5,5h64.2v16.6h-45.6v17.3h40.1v16.6h-40.1v17.9h46.2V90h-64.8L561.5,5L561.5,5z"/>
		<path class="st2" d="M665.3,4.4h17.3L719,90.1h-19.6L691.6,71h-36l-7.8,19.1h-19.1L665.3,4.4z M685,54.5l-11.3-27.6l-11.3,27.6
			H685z"/>
	</g>
</g>
<g class="st0">
	<g class="st1">
		<path class="st2" d="M138.3,4.3h17.3L192,89.9h-19.6l-7.8-19.1h-36l-7.8,19.1h-19.1L138.3,4.3z M158,54.3l-11.3-27.6l-11.3,27.6
			H158z"/>
		<path class="st2" d="M194,24.8h18.5v9.4c4.5-6.1,10.7-10.6,20.3-10.6c15.2,0,29.6,11.9,29.6,33.7v0.2c0,21.7-14.2,33.7-29.6,33.7
			c-9.8,0-15.9-4.5-20.3-9.7v27.9H194V24.8z M244,57.5v-0.2c0-10.8-7.3-18-15.9-18s-15.8,7.2-15.8,18v0.2c0,10.8,7.2,18,15.8,18
			S244,68.4,244,57.5z"/>
		<path class="st2" d="M265,24.8h18.5v9.4c4.5-6.1,10.7-10.6,20.3-10.6c15.2,0,29.6,11.9,29.6,33.7v0.2c0,21.7-14.2,33.7-29.6,33.7
			c-9.8,0-15.9-4.5-20.3-9.7v27.9H265V24.8z M314.9,57.5v-0.2c0-10.8-7.3-18-15.9-18s-15.8,7.2-15.8,18v0.2c0,10.8,7.2,18,15.8,18
			S314.9,68.4,314.9,57.5z"/>
		<path class="st2" d="M336.1,47.7v-0.2c0-24.2,18.2-44,44.3-44c16,0,25.6,5.3,33.5,13.1L402,30.3c-6.6-6-13.2-9.6-21.7-9.6
			c-14.3,0-24.7,11.9-24.7,26.5v0.2c0,14.6,10.1,26.7,24.7,26.7c9.7,0,15.7-3.9,22.4-10l11.9,12c-8.7,9.4-18.5,15.2-34.9,15.2
			C354.7,91.4,336.1,72.1,336.1,47.7z"/>
		<path class="st2" d="M412,57.7v-0.2c0-18.7,15.1-33.9,35.4-33.9c20.2,0,35.1,14.9,35.1,33.7v0.2c0,18.7-15.1,33.9-35.4,33.9
			C427,91.4,412,76.4,412,57.7z M464.3,57.7v-0.2c0-9.6-6.9-18-17.1-18c-10.6,0-16.9,8.1-16.9,17.7v0.2c0,9.6,6.9,18,17.1,18
			C457.9,75.5,464.3,67.3,464.3,57.7z"/>
		<path class="st2" d="M484.9,57.5v-0.2c0-21.7,14.2-33.7,29.6-33.7c9.8,0,15.9,4.5,20.3,9.7V1.2h18.5v88.7h-18.5v-9.4
			c-4.5,6.1-10.7,10.6-20.3,10.6C499.4,91.2,484.9,79.2,484.9,57.5z M535.1,57.5v-0.2c0-10.8-7.2-18-15.8-18s-15.9,7-15.9,18v0.2
			c0,10.8,7.3,18,15.9,18C527.9,75.5,535.1,68.3,535.1,57.5z"/>
		<path class="st2" d="M556.7,57.7v-0.2c0-18.6,13.2-33.9,32.2-33.9c21.7,0,31.7,16.9,31.7,35.4c0,1.5-0.1,3.2-0.2,4.9h-45.3
			c1.8,8.4,7.7,12.8,15.9,12.8c6.2,0,10.7-1.9,15.8-6.7l10.6,9.4c-6.1,7.5-14.8,12.2-26.6,12.2C571.2,91.4,556.7,77.7,556.7,57.7z
			 M602.6,52.3c-1.1-8.3-6-13.9-13.7-13.9s-12.6,5.5-14.1,13.9C574.8,52.3,602.6,52.3,602.6,52.3z"/>
	</g>
	<g class="st1">
		<rect x="-0.8" y="4.9" width="85" height="85"/>
		<path class="st2" d="M14.8,15.5h4.3l9.1,21.3h-4.9L21.4,32h-8.9l-1.9,4.7H5.8L14.8,15.5z M19.7,27.9L16.9,21l-2.8,6.9H19.7z"/>
		<path class="st2" d="M27,26.3L27,26.3c0-6.2,4.6-11.1,11.2-11.1c4,0,6.5,1.3,8.5,3.3l-3,3.5c-1.7-1.5-3.3-2.4-5.5-2.4
			c-3.6,0-6.2,3-6.2,6.7v0.1c0,3.7,2.5,6.7,6.2,6.7c2.5,0,4-1,5.6-2.5l3,3c-2.2,2.4-4.7,3.8-8.8,3.8C31.7,37.3,27,32.4,27,26.3"/>
		<rect x="7.2" y="74" class="st2" width="31.9" height="5.3"/>
	</g>
</g>
<g class="st0">
	<g class="st1">
		<g>
			<path class="st2" d="M104.8,57.1v-0.2c0-21.7,14.2-33.7,29.6-33.7c9.8,0,15.9,4.5,20.3,9.7V0.8h18.5v88.7h-18.5v-9.4
				c-4.5,6.1-10.7,10.6-20.3,10.6C119.3,90.8,104.8,78.9,104.8,57.1z M155,57.1v-0.2c0-10.8-7.2-18-15.8-18s-15.9,7-15.9,18v0.2
				c0,10.8,7.3,18,15.9,18S155,67.9,155,57.1z"/>
			<path class="st2" d="M175.1,57.3v-0.2c0-18.7,15.1-33.9,35.4-33.9c20.2,0,35.1,14.9,35.1,33.7v0.2c0,18.7-15.1,33.9-35.4,33.9
				C190.1,91,175.1,76.1,175.1,57.3z M227.4,57.3v-0.2c0-9.6-6.9-18-17.1-18c-10.6,0-16.9,8.1-16.9,17.7V57c0,9.6,6.9,18,17.1,18
				C221.1,75.1,227.4,66.9,227.4,57.3z"/>
			<path class="st2" d="M252,71.1V40.2h-7.8V24.4h7.8V7.8h18.5v16.6h15.3v15.8h-15.3V68c0,4.3,1.8,6.3,6,6.3c3.4,0,6.4-0.9,9.1-2.3
				v14.8c-3.9,2.3-8.4,3.8-14.6,3.8C259.7,90.6,252,86.1,252,71.1z"/>
			<path class="st2" d="M288.1,47.3V47c0-24.2,18.2-44,44.3-44c16,0,25.6,5.3,33.5,13.1L354,29.8c-6.6-6-13.2-9.6-21.8-9.6
				c-14.3,0-24.7,11.9-24.7,26.5V47c0,14.6,10.1,26.7,24.7,26.7c9.7,0,15.7-3.9,22.4-10l11.9,12c-8.7,9.4-18.5,15.2-34.9,15.2
				C306.7,91,288.1,71.7,288.1,47.3z"/>
			<path class="st2" d="M363.9,57.3v-0.2c0-18.7,15.1-33.9,35.4-33.9c20.2,0,35.1,14.9,35.1,33.7v0.2c0,18.7-15.1,33.9-35.4,33.9
				C378.9,91,363.9,76.1,363.9,57.3z M416.2,57.3v-0.2c0-9.6-6.9-18-17.1-18c-10.6,0-16.9,8.1-16.9,17.7V57c0,9.6,6.9,18,17.1,18
				C409.9,75.1,416.2,66.9,416.2,57.3z"/>
			<path class="st2" d="M427.6,24.4h19.6L461.8,68l14.7-43.6h19.2L470,90h-16.8L427.6,24.4z"/>
			<path class="st2" d="M489.1,57.3v-0.2c0-18.6,13.2-33.9,32.2-33.9c21.7,0,31.7,16.9,31.7,35.4c0,1.5-0.1,3.2-0.2,4.9h-45.3
				c1.8,8.4,7.7,12.8,15.9,12.8c6.2,0,10.7-1.9,15.8-6.7l10.6,9.4c-6.1,7.5-14.8,12.2-26.6,12.2C503.5,91,489.1,77.3,489.1,57.3z
				 M535,51.9c-1.1-8.3-6-13.9-13.7-13.9s-12.6,5.5-14.1,13.9H535z"/>
			<path class="st2" d="M555.8,24.4h18.5v13.1c3.8-9,9.8-14.8,20.8-14.3v19.3h-1c-12.3,0-19.8,7.4-19.8,23v24.1h-18.5V24.4z"/>
		</g>
	</g>
	<g class="st1">
		<rect x="-0.8" y="4.9" width="85" height="85"/>
		<path class="st2" d="M7.1,15.6h8.3c6.7,0,11.3,4.6,11.3,10.6v0.1c0,6-4.6,10.6-11.3,10.6H7.1V15.6z M11.8,19.8v12.8h3.6
			c3.8,0,6.4-2.6,6.4-6.3v-0.1c0-3.8-2.6-6.4-6.4-6.4H11.8z"/>
		<path class="st2" d="M28.6,26.3L28.6,26.3c0-6.1,4.6-11.1,11.1-11.1c4,0,6.4,1.3,8.4,3.3l-3,3.4c-1.6-1.5-3.3-2.4-5.5-2.4
			c-3.6,0-6.2,3-6.2,6.6v0.1c0,3.7,2.5,6.7,6.2,6.7c2.4,0,3.9-1,5.6-2.5l3,3c-2.2,2.3-4.6,3.8-8.7,3.8
			C33.2,37.2,28.6,32.4,28.6,26.3"/>
		<rect x="7.2" y="74" class="st2" width="31.9" height="5.3"/>
	</g>
</g>
<g class="st0">
	<g class="st1">
		<rect x="-0.8" y="4.9" width="85" height="85"/>
		<polygon class="st2" points="27.5,15.6 32.5,15.6 38.1,24.5 43.7,15.6 48.7,15.6 48.7,36.8 44.1,36.8 44.1,22.9 38.1,32 38,32 
			32,23 32,36.8 27.5,36.8 		"/>
		<path class="st2" d="M7.2,15.5h9.7c2.7,0,4.7,0.7,6.2,2.2c1.2,1.2,1.8,2.8,1.8,4.8v0.1c0,1.7-0.4,3.1-1.3,4.2
			c-0.8,1.1-1.9,1.9-3.3,2.4l5.2,7.6H20l-4.4-6.5h-3.8v6.5H7.2V15.5z M16.5,25.9c1.2,0,2-0.3,2.7-0.8c0.6-0.5,0.9-1.3,0.9-2.2v-0.1
			c0-1-0.3-1.8-1-2.3c-0.6-0.5-1.5-0.8-2.7-0.8h-4.6v6.1L16.5,25.9L16.5,25.9z"/>
		<rect x="7.2" y="74" class="st2" width="31.9" height="5.3"/>
	</g>
	<g class="st1">
		<path class="st2" d="M105.3,5.3h38.9c10.8,0,19.2,3,24.8,8.6c4.7,4.7,7.3,11.4,7.3,19.4v0.2c0,13.7-7.4,22.4-18.2,26.4l20.8,30.4
			H157l-18.2-27.2h-14.7v27.2h-18.7v-85C105.4,5.3,105.3,5.3,105.3,5.3z M143,46.6c9.1,0,14.3-4.9,14.3-12v-0.2
			c0-8-5.6-12.2-14.7-12.2H124v24.4H143z"/>
		<path class="st2" d="M178.6,67.3V25.2h18.5v36.3c0,8.7,4.1,13.2,11.2,13.2s11.5-4.5,11.5-13.2V25.2h18.5v65.1h-18.5v-9.2
			c-4.3,5.5-9.7,10.4-19.1,10.4C186.7,91.5,178.6,82.3,178.6,67.3z"/>
		<path class="st2" d="M260.6,81.8v8.5h-18.5V1.6h18.5v32.9c4.5-6.1,10.7-10.6,20.3-10.6c15.2,0,29.6,11.9,29.6,33.7v0.2
			c0,21.7-14.2,33.7-29.6,33.7C271.1,91.5,265,87,260.6,81.8z M292.1,57.9v-0.2c0-10.8-7.3-18-15.9-18s-15.8,7.2-15.8,18v0.2
			c0,10.8,7.2,18,15.8,18S292.1,68.8,292.1,57.9z"/>
		<path class="st2" d="M351.4,25.2h19.2l-25,66.7c-5,13.2-10.3,18.2-21.4,18.2c-6.7,0-11.7-1.7-16.4-4.5l6.2-13.4
			c2.4,1.5,5.5,2.6,7.9,2.6c3.2,0,4.9-1,6.4-4.3l-25.5-65.4h19.6l14.8,44.3L351.4,25.2z"/>
		<path class="st2" d="M372,5.3h20.2l22.4,36l22.4-36h20.2v85.1h-18.6V34.8l-23.9,36.3h-0.5l-23.7-36v55.2H372V5.3z"/>
		<path class="st2" d="M461.3,1.6h19.4V18h-19.4V1.6z M461.8,25.2h18.5v65.1h-18.5V25.2z"/>
		<path class="st2" d="M484.3,25.2h18.5v9.2c4.3-5.5,9.7-10.4,19.1-10.4c14,0,22.1,9.2,22.1,24.2v42.2h-18.5V54
			c0-8.7-4.1-13.2-11.2-13.2c-7,0-11.5,4.5-11.5,13.2v36.3h-18.5L484.3,25.2L484.3,25.2z"/>
		<path class="st2" d="M545.9,58.1v-0.2c0-18.6,13.2-33.9,32.2-33.9c21.7,0,31.7,16.9,31.7,35.4c0,1.5-0.1,3.2-0.2,4.9h-45.3
			c1.8,8.4,7.7,12.8,15.9,12.8c6.2,0,10.7-1.9,15.8-6.7l10.6,9.4C600.5,87.3,591.8,92,580,92C560.3,91.8,545.9,78,545.9,58.1z
			 M591.8,52.6c-1.1-8.3-6-13.9-13.7-13.9s-12.6,5.5-14.1,13.9H591.8z"/>
	</g>
</g>
<g class="st0">
	<g class="st1">
		<path class="st2" d="M129.5,22.1h-25.9V4.9H174v17.3h-25.9V90h-18.7L129.5,22.1L129.5,22.1z"/>
		<path class="st2" d="M154.7,57.7v-0.2c0-18.6,13.2-33.9,32.2-33.9c21.7,0,31.7,16.9,31.7,35.4c0,1.5-0.1,3.2-0.2,4.9h-45.3
			c1.8,8.4,7.7,12.8,15.9,12.8c6.2,0,10.7-1.9,15.8-6.7l10.6,9.4c-6.1,7.5-14.8,12.2-26.6,12.2C169.2,91.4,154.7,77.7,154.7,57.7z
			 M200.7,52.3c-1.1-8.3-6-13.9-13.7-13.9s-12.6,5.5-14.1,13.9C172.9,52.3,200.7,52.3,200.7,52.3z"/>
		<path class="st2" d="M219.8,71.2V71c0-14.2,10.8-20.8,26.2-20.8c6.6,0,11.3,1.1,15.9,2.7v-1.1c0-7.7-4.7-11.9-14-11.9
			c-7,0-12,1.3-18,3.5l-4.6-14.1c7.2-3.2,14.2-5.2,25.3-5.2c10.1,0,17.4,2.7,22,7.3c4.9,4.9,7,12,7,20.8V90h-17.9v-7
			c-4.5,5-10.7,8.3-19.7,8.3C229.9,91.2,219.8,84.1,219.8,71.2z M262.3,67v-3.3c-3.2-1.5-7.3-2.4-11.8-2.4c-7.9,0-12.8,3.2-12.8,9
			v0.2c0,5,4.1,7.9,10.1,7.9C256.4,78.4,262.3,73.7,262.3,67z"/>
		<path class="st2" d="M283.5,24.8H302V34c4.3-5.5,9.8-10.4,19.2-10.4c8.5,0,14.9,3.8,18.3,10.3c5.7-6.7,12.5-10.3,21.4-10.3
			c13.7,0,22,8.3,22,23.9v42.4h-18.5V53.6c0-8.7-3.9-13.2-10.8-13.2s-11.2,4.5-11.2,13.2v36.3H324V53.6c0-8.7-3.9-13.2-10.8-13.2
			S302,44.9,302,53.6v36.3h-18.5V24.8z"/>
		<path class="st2" d="M385,47.7v-0.2c0-24.2,18.2-44,44.3-44c16,0,25.6,5.3,33.5,13.1l-11.9,13.7c-6.6-6-13.2-9.6-21.7-9.6
			c-14.3,0-24.7,11.9-24.7,26.5v0.2c0,14.6,10.1,26.7,24.7,26.7c9.7,0,15.7-3.9,22.4-10l11.9,12c-8.7,9.4-18.5,15.2-34.9,15.2
			C403.6,91.4,385,72.1,385,47.7z"/>
		<path class="st2" d="M465.4,1.2h19.4v16.4h-19.4V1.2z M465.9,24.8h18.5v65.1h-18.5V24.8z"/>
		<path class="st2" d="M495.3,71.5V40.6h-7.8V24.8h7.8V8.2h18.5v16.6h15.3v15.8h-15.3v27.8c0,4.3,1.8,6.3,6,6.3
			c3.4,0,6.4-0.9,9.1-2.3v14.8c-3.9,2.3-8.4,3.8-14.6,3.8C502.9,91,495.3,86.5,495.3,71.5z"/>
		<path class="st2" d="M579.6,24.8h19.2l-25,66.7c-5,13.2-10.3,18.2-21.4,18.2c-6.7,0-11.7-1.7-16.4-4.5l6.2-13.4
			c2.4,1.5,5.5,2.6,7.9,2.6c3.2,0,4.9-1,6.4-4.3L531,24.8h19.6l14.8,44.3L579.6,24.8z"/>
	</g>
	<g class="st1">
		<rect x="-0.8" y="4.9" width="85" height="85"/>
		<polygon class="st2" points="13.6,19.8 7.1,19.8 7.1,15.5 24.7,15.5 24.7,19.8 18.2,19.8 18.2,36.8 13.6,36.8 		"/>
		<path class="st2" d="M25,26.2L25,26.2c0-6.1,4.6-11.1,11.1-11.1c4,0,6.4,1.3,8.4,3.3l-3,3.4c-1.6-1.5-3.3-2.4-5.4-2.4
			c-3.6,0-6.2,3-6.2,6.6v0.1c0,3.6,2.5,6.7,6.2,6.7c2.4,0,3.9-1,5.6-2.5l3,3c-2.2,2.3-4.6,3.8-8.7,3.8C29.6,37.1,25,32.3,25,26.2"/>
		<rect x="7.1" y="74" class="st2" width="31.9" height="5.3"/>
	</g>
</g>
<g class="st0">
	<g class="st1">
		<rect x="-0.8" y="4.9" width="85" height="85"/>
		<path class="st2" d="M6.7,26.3L6.7,26.3c0-6.2,4.6-11.1,11.2-11.1c4,0,6.5,1.3,8.4,3.3l-3,3.5c-1.7-1.5-3.3-2.4-5.5-2.4
			c-3.6,0-6.2,3-6.2,6.7v0.1c0,3.7,2.5,6.7,6.2,6.7c2.4,0,3.9-1,5.6-2.5l3,3c-2.2,2.4-4.7,3.8-8.8,3.8C11.4,37.3,6.7,32.4,6.7,26.3"
			/>
		<path class="st2" d="M29.8,15.5h4.7v17.4h9.4v4H29.8V15.5z"/>
		<rect x="7.2" y="74" class="st2" width="31.9" height="5.3"/>
	</g>
	<g class="st1">
		<path class="st2" d="M104.6,47.7v-0.2c0-24.2,18.2-44,44.3-44c16,0,25.6,5.3,33.5,13.1l-11.9,13.7c-6.6-6-13.2-9.6-21.7-9.6
			c-14.3,0-24.7,11.9-24.7,26.5v0.2c0,14.6,10.1,26.7,24.7,26.7c9.7,0,15.7-3.9,22.4-10l11.9,12c-8.7,9.4-18.5,15.2-34.9,15.2
			C123.2,91.4,104.6,72.1,104.6,47.7z"/>
		<path class="st2" d="M186.6,4.9h18.7v68h42.4v17h-61.1V4.9z"/>
		<path class="st2" d="M250.3,1.2h19.4v16.4h-19.4L250.3,1.2L250.3,1.2z M250.8,24.8h18.5v65.1h-18.5L250.8,24.8L250.8,24.8z"/>
		<path class="st2" d="M271.7,57.7v-0.2c0-18.7,15.1-33.9,35.4-33.9c20.2,0,35.1,14.9,35.1,33.7v0.2c0,18.7-15.1,33.9-35.4,33.9
			C286.6,91.4,271.7,76.4,271.7,57.7z M323.9,57.7v-0.2c0-9.6-6.9-18-17.1-18c-10.6,0-16.9,8.1-16.9,17.7v0.2c0,9.6,6.9,18,17.1,18
			C317.6,75.5,323.9,67.3,323.9,57.7z"/>
		<path class="st2" d="M344.9,24.8h18.5V34c4.3-5.5,9.7-10.4,19.1-10.4c14,0,22.1,9.2,22.1,24.2V90h-18.5V53.6
			c0-8.7-4.1-13.2-11.2-13.2c-7,0-11.5,4.5-11.5,13.2v36.3h-18.5V24.8z"/>
	</g>
</g>
<g class="st0">
	<g class="st1">
		<path class="st2" d="M102.1,4.2h20l17.6,57.6L158.8,4h16L194,61.8l17.6-57.6h19.6l-29,85.7h-16.3l-19.2-55.6l-19.2,55.6h-16.3
			L102.1,4.2z"/>
		<path class="st2" d="M218.8,57v-0.2c0-18.6,13.2-33.9,32.2-33.9c21.7,0,31.7,16.9,31.7,35.4c0,1.5-0.1,3.2-0.2,4.9h-45.3
			c1.8,8.4,7.7,12.8,15.9,12.8c6.2,0,10.7-1.9,15.8-6.7l10.6,9.4c-6.1,7.5-14.8,12.2-26.6,12.2C233.2,90.7,218.8,77,218.8,57z
			 M264.7,51.6c-1.1-8.3-6-13.9-13.7-13.9s-12.6,5.5-14.1,13.9H264.7z"/>
		<path class="st2" d="M304.2,80.7v8.5h-18.5V0.5h18.5v32.9c4.5-6.1,10.7-10.6,20.3-10.6c15.2,0,29.6,11.9,29.6,33.7v0.2
			c0,21.7-14.2,33.7-29.6,33.7C314.6,90.4,308.5,85.9,304.2,80.7z M335.6,56.8v-0.2c0-10.8-7.3-18-15.9-18s-15.8,7.2-15.8,18v0.2
			c0,10.8,7.2,18,15.8,18S335.6,67.7,335.6,56.8z"/>
		<path class="st2" d="M351.7,76.8l11.1-13.2c7.7,6.3,15.7,10.3,25.4,10.3c7.7,0,12.3-3,12.3-8v-0.2c0-4.7-2.9-7.2-17.1-10.8
			c-17.1-4.4-28.2-9.1-28.2-26v-0.2c0-15.4,12.4-25.6,29.8-25.6c12.4,0,23,3.9,31.6,10.8L406.9,28c-7.5-5.2-14.9-8.4-22.1-8.4
			s-10.9,3.3-10.9,7.4v0.2c0,5.6,3.6,7.4,18.3,11.2c17.3,4.5,27,10.7,27,25.5v0.2c0,16.9-12.9,26.4-31.2,26.4
			C374.9,90.4,361.9,85.9,351.7,76.8z"/>
		<path class="st2" d="M423.6,70.8V39.9h-7.8V24.1h7.8V7.5h18.5v16.6h15.3v15.8h-15.3v27.8c0,4.3,1.8,6.3,6,6.3
			c3.4,0,6.4-0.9,9.1-2.3v14.8c-3.9,2.3-8.4,3.8-14.6,3.8C431.3,90.3,423.6,85.8,423.6,70.8z"/>
		<path class="st2" d="M456.2,57v-0.2c0-18.7,15.1-33.9,35.4-33.9c20.2,0,35.1,14.9,35.1,33.7v0.2c0,18.7-15.1,33.9-35.4,33.9
			C471.1,90.7,456.2,75.7,456.2,57z M508.4,57v-0.2c0-9.6-6.9-18-17.1-18c-10.6,0-16.9,8.1-16.9,17.7v0.2c0,9.6,6.9,18,17.1,18
			C502.1,74.8,508.4,66.6,508.4,57z"/>
		<path class="st2" d="M529.1,24.1h18.5v13.1c3.8-9,9.8-14.8,20.8-14.3v19.3h-1c-12.3,0-19.8,7.4-19.8,23v24.1h-18.5V24.1z"/>
		<path class="st2" d="M570.7,24.1h18.5v9.2c4.3-5.5,9.8-10.4,19.2-10.4c8.5,0,14.9,3.8,18.3,10.3c5.7-6.7,12.5-10.3,21.4-10.3
			c13.7,0,22,8.3,22,23.9v42.4h-18.5V52.9c0-8.7-3.9-13.2-10.8-13.2s-11.2,4.5-11.2,13.2v36.3h-18.5V52.9c0-8.7-3.9-13.2-10.8-13.2
			s-11.2,4.5-11.2,13.2v36.3h-18.5L570.7,24.1L570.7,24.1z"/>
	</g>
	<g class="st1">
		<rect x="-0.8" y="4.9" width="85" height="85"/>
		<path class="st2" d="M32.9,33.7l2.7-3.3c1.9,1.6,3.8,2.6,6.2,2.6c1.9,0,3-0.8,3-2v-0.1c0-1.2-0.7-1.8-4.2-2.7
			c-4.2-1.1-6.9-2.3-6.9-6.5v-0.1c0-3.9,3-6.4,7.3-6.4c3,0,5.6,1,7.8,2.7l-2.4,3.5c-1.8-1.3-3.7-2.1-5.4-2.1c-1.8,0-2.7,0.8-2.7,1.9
			v0.1c0,1.4,0.9,1.9,4.5,2.8c4.2,1.1,6.6,2.7,6.6,6.4v0.1c0,4.2-3.2,6.6-7.7,6.6C38.6,37.1,35.4,36,32.9,33.7"/>
		<polygon class="st2" points="28.7,15.6 25.6,27.9 22,15.6 18.4,15.6 14.7,27.9 11.6,15.6 6.6,15.6 12.7,36.8 16.7,36.8 20.2,24.5 
			23.6,36.8 27.6,36.8 33.7,15.6 		"/>
		<rect x="7.2" y="74" class="st2" width="31.9" height="5.3"/>
	</g>
</g>
<g class="st0">
	<g class="st1">
		<path class="st2" d="M105.5,53.6V5h18.7v48.1c0,13.9,6.9,21,18.3,21s18.3-6.9,18.3-20.4V5h18.7v48c0,25.8-14.5,38.4-37.3,38.4
			S105.5,78.6,105.5,53.6z"/>
		<path class="st2" d="M182.8,24.9h18.5v9.4c4.5-6.1,10.7-10.6,20.3-10.6c15.2,0,29.6,11.9,29.6,33.7v0.2
			c0,21.7-14.2,33.7-29.6,33.7c-9.8,0-15.9-4.5-20.3-9.7v27.9h-18.5V24.9z M232.7,57.6v-0.2c0-10.8-7.3-18-15.9-18
			s-15.8,7.2-15.8,18v0.2c0,10.8,7.2,18,15.8,18S232.7,68.5,232.7,57.6z"/>
		<path class="st2" d="M248.3,81.4l7.9-12.2c7,5.1,14.5,7.8,20.5,7.8c5.3,0,7.8-1.9,7.8-4.9v-0.2c0-4-6.3-5.3-13.5-7.5
			c-9.1-2.7-19.4-6.9-19.4-19.6v-0.2c0-13.2,10.7-20.7,23.8-20.7c8.3,0,17.3,2.8,24.3,7.5l-7,12.8c-6.4-3.8-12.9-6.1-17.6-6.1
			c-4.5,0-6.8,1.9-6.8,4.5v0.2c0,3.6,6.2,5.3,13.2,7.8c9.1,3,19.7,7.4,19.7,19.3v0.2c0,14.5-10.8,21-24.9,21
			C267.1,91.2,256.9,88.2,248.3,81.4z"/>
		<path class="st2" d="M301.9,57.8v-0.2c0-18.7,15.1-33.9,35.4-33.9c20.2,0,35.1,14.9,35.1,33.7v0.2c0,18.7-15.1,33.9-35.4,33.9
			C316.8,91.5,301.9,76.5,301.9,57.8z M354.1,57.8v-0.2c0-9.6-6.9-18-17.1-18c-10.6,0-16.9,8.1-16.9,17.7v0.2c0,9.6,6.9,18,17.1,18
			C347.8,75.6,354.1,67.4,354.1,57.8z"/>
		<path class="st2" d="M374,67.1V24.9h18.5v36.3c0,8.7,4.1,13.2,11.2,13.2c7,0,11.5-4.5,11.5-13.2V24.9h18.5V90h-18.5v-9.2
			c-4.3,5.5-9.7,10.4-19.1,10.4C382.2,91.2,374,82,374,67.1z"/>
		<path class="st2" d="M437.8,24.9h18.5V38c3.8-9,9.8-14.8,20.8-14.3V43h-1c-12.3,0-19.8,7.4-19.8,23v24h-18.5V24.9z"/>
		<path class="st2" d="M475.8,57.8v-0.2c0-18.6,14.2-33.9,34.1-33.9c12.3,0,19.9,4.1,26,10.9l-11.3,12.2c-4.1-4.4-8.3-7.2-14.8-7.2
			c-9.2,0-15.8,8.1-15.8,17.7v0.2c0,10,6.4,18,16.5,18c6.2,0,10.5-2.7,14.9-6.9l10.8,10.9c-6.3,6.9-13.6,11.9-26.6,11.9
			C490.2,91.5,475.8,76.4,475.8,57.8z"/>
		<path class="st2" d="M531.9,57.8v-0.2c0-18.6,13.2-33.9,32.2-33.9c21.7,0,31.7,16.9,31.7,35.4c0,1.5-0.1,3.2-0.2,4.9h-45.3
			c1.8,8.4,7.7,12.8,15.9,12.8c6.2,0,10.7-1.9,15.8-6.7l10.6,9.4c-6.1,7.5-14.8,12.2-26.6,12.2C546.3,91.5,531.9,77.8,531.9,57.8z
			 M577.8,52.4c-1.1-8.3-6-13.9-13.7-13.9S551.5,44,550,52.4H577.8z"/>
	</g>
	<g class="st1">
		<rect x="-0.8" y="4.9" width="85" height="85"/>
		<g>
			<path class="st2" d="M7.3,27.7V15.4H12v12.1c0,3.5,1.7,5.3,4.6,5.3s4.6-1.7,4.6-5.1V15.4H26v12.1c0,6.5-3.6,9.7-9.4,9.7
				S7.3,34,7.3,27.7z"/>
			<path class="st2" d="M28.4,15.4h8.8c5.1,0,8.2,3,8.2,7.4v0.1c0,5-3.9,7.5-8.7,7.5h-3.6v6.4h-4.7C28.4,36.8,28.4,15.4,28.4,15.4z
				 M36.8,26.2c2.4,0,3.7-1.4,3.7-3.2v-0.1c0-2.1-1.5-3.2-3.8-3.2h-3.6v6.6L36.8,26.2L36.8,26.2z"/>
		</g>
		<rect x="7.3" y="74" class="st2" width="32.1" height="5.3"/>
	</g>
</g>
<g class="st0">
	<g class="st1">
		<rect x="-0.8" y="4.9" width="85" height="85"/>
		<g>
			<path class="st2" d="M7.2,15.6h8.3c6.7,0,11.3,4.6,11.3,10.5v0.1c0,6-4.6,10.6-11.3,10.6H7.2V15.6z M11.9,19.9v12.8h3.6
				c3.8,0,6.4-2.6,6.4-6.3v-0.1c0-3.8-2.6-6.4-6.4-6.4C15.5,19.9,11.9,19.9,11.9,19.9z"/>
			<path class="st2" d="M28.7,15.6h8.7c5.1,0,8.1,3,8.1,7.4l0,0c0,4.9-3.8,7.5-8.6,7.5h-3.6v6.4h-4.7L28.7,15.6L28.7,15.6z
				 M37.1,26.3c2.3,0,3.7-1.4,3.7-3.2V23c0-2.1-1.5-3.2-3.8-3.2h-3.6v6.5H37.1z"/>
		</g>
		<rect x="7.2" y="74" class="st2" width="31.9" height="5.3"/>
	</g>
	<g class="st1">
		<path class="st2" d="M103.8,57.5v-0.2c0-21.7,14.2-33.7,29.6-33.7c9.8,0,15.9,4.5,20.3,9.7V1.2h18.5v88.7h-18.5v-9.4
			c-4.5,6.1-10.7,10.6-20.3,10.6C118.2,91.1,103.8,79.2,103.8,57.5z M154,57.5v-0.2c0-10.8-7.2-18-15.8-18s-15.9,7-15.9,18v0.2
			c0,10.8,7.3,18,15.9,18S154,68.3,154,57.5z"/>
		<path class="st2" d="M174.4,57.7v-0.2c0-18.7,15.1-33.9,35.4-33.9c20.2,0,35.1,14.9,35.1,33.7v0.2c0,18.7-15.1,33.9-35.4,33.9
			C189.3,91.4,174.4,76.4,174.4,57.7z M226.6,57.7v-0.2c0-9.6-6.9-18-17.1-18c-10.6,0-16.9,8.1-16.9,17.7v0.2c0,9.6,6.9,18,17.1,18
			C220.3,75.4,226.6,67.3,226.6,57.7z"/>
		<path class="st2" d="M250.1,71.4V40.6h-7.8V24.8h7.8V8.1h18.5v16.6h15.3v15.8h-15.3v27.8c0,4.3,1.8,6.3,6,6.3
			c3.4,0,6.4-0.9,9.1-2.3v14.8c-3.9,2.3-8.4,3.8-14.6,3.8C257.7,91,250.1,86.5,250.1,71.4z"/>
		<path class="st2" d="M287,4.8h34.8c20.3,0,32.6,12,32.6,29.4v0.2c0,19.7-15.3,29.9-34.4,29.9h-14.2v25.5H287V4.8z M320.5,47.7
			c9.4,0,14.8-5.6,14.8-12.9v-0.2c0-8.4-5.8-12.9-15.2-12.9h-14.5v26C305.6,47.7,320.5,47.7,320.5,47.7z"/>
		<path class="st2" d="M352.5,57.7v-0.2c0-18.6,13.2-33.9,32.2-33.9c21.7,0,31.7,16.9,31.7,35.4c0,1.5-0.1,3.2-0.2,4.9h-45.3
			c1.8,8.4,7.7,12.8,15.9,12.8c6.2,0,10.7-1.9,15.8-6.7l10.6,9.4c-6.1,7.5-14.8,12.2-26.6,12.2C367,91.4,352.5,77.6,352.5,57.7z
			 M398.4,52.2c-1.1-8.3-6-13.9-13.7-13.9s-12.6,5.5-14.1,13.9C370.6,52.2,398.4,52.2,398.4,52.2z"/>
		<path class="st2" d="M418.2,57.7v-0.2c0-18.6,13.2-33.9,32.2-33.9c21.7,0,31.7,16.9,31.7,35.4c0,1.5-0.1,3.2-0.2,4.9h-45.3
			c1.8,8.4,7.7,12.8,15.9,12.8c6.2,0,10.7-1.9,15.8-6.7l10.6,9.4c-6.1,7.5-14.8,12.2-26.6,12.2C432.7,91.4,418.2,77.6,418.2,57.7z
			 M464.2,52.2c-1.1-8.3-6-13.9-13.7-13.9s-12.6,5.5-14.1,13.9C436.4,52.2,464.2,52.2,464.2,52.2z"/>
		<path class="st2" d="M484.4,1.2h18.5v47.3l21.6-23.7h22.1l-24.8,25.6l25.6,39.5H526l-16.6-26.7l-6.6,6.9v19.8h-18.5V1.2H484.4z"/>
	</g>
</g>
<g class="st0">
	<g class="st1">
		<path class="st2" d="M105.4,4.9h18.7v37.2l34.5-37.2h22.6L146.6,41l36.2,49h-22.5L134,53.7l-9.8,10.2v26h-18.7L105.4,4.9
			L105.4,4.9z"/>
		<path class="st2" d="M171,57.8v-0.2c0-18.7,15.1-33.9,35.4-33.9c20.2,0,35.1,14.9,35.1,33.7v0.2c0,18.7-15.1,33.9-35.4,33.9
			C186,91.4,171,76.5,171,57.8z M223.3,57.8v-0.2c0-9.6-6.9-18-17.1-18c-10.6,0-16.9,8.1-16.9,17.7v0.2c0,9.6,6.9,18,17.1,18
			C216.9,75.5,223.3,67.3,223.3,57.8z"/>
		<path class="st2" d="M246.6,71.5V40.6h-7.8V24.8h7.8V8.2h18.5v16.6h15.3v15.8h-15.3v27.8c0,4.3,1.8,6.3,6,6.3
			c3.4,0,6.4-0.9,9.1-2.3v14.8c-3.9,2.3-8.4,3.8-14.6,3.8C254.2,91,246.6,86.5,246.6,71.5z"/>
		<path class="st2" d="M283.5,1.3H302V90h-18.5V1.3z"/>
		<path class="st2" d="M305.5,1.3h19.4v16.4h-19.4V1.3z M306,24.8h18.5v65.1H306V24.8z"/>
		<path class="st2" d="M327.6,24.8h18.5V34c4.3-5.5,9.7-10.4,19.1-10.4c14,0,22.1,9.2,22.1,24.2V90h-18.5V53.6
			c0-8.7-4.1-13.2-11.2-13.2c-7,0-11.5,4.5-11.5,13.2v36.3h-18.5V24.8z"/>
	</g>
	<g class="st1">
		<rect x="-0.8" y="4.9" width="85" height="85"/>
		<g>
			<path class="st2" d="M7.1,15.5h4.7v9.3l8.6-9.3h5.7l-8.7,9l9.1,12.3h-5.6l-6.6-9.1l-2.5,2.6v6.5H7.1V15.5z"/>
			<path class="st2" d="M33.4,19.9h-6.5v-4.3h17.7v4.3H38v17h-4.7v-17C33.3,19.9,33.4,19.9,33.4,19.9z"/>
		</g>
		<rect x="7.2" y="74" class="st2" width="31.9" height="5.3"/>
	</g>
</g>
<g class="st0">
	<g class="st1">
		<path class="st2" d="M105.8,4.8h38.9c10.8,0,19.2,3,24.8,8.6c4.7,4.7,7.3,11.4,7.3,19.4V33c0,13.7-7.4,22.4-18.2,26.4l20.8,30.4
			h-21.9l-18.2-27.2h-14.7v27.2h-18.7v-85C105.9,4.8,105.8,4.8,105.8,4.8z M143.4,46.1c9.1,0,14.3-4.9,14.3-12v-0.2
			c0-8-5.6-12.2-14.7-12.2h-18.6v24.4H143.4z"/>
		<path class="st2" d="M182.2,1.1h19.4v16.4h-19.4V1.1z M182.7,24.7h18.5v65.1h-18.5V24.7z"/>
		<path class="st2" d="M203.6,24.7h19.6l14.6,43.6l14.7-43.6h19.2L246,90.3h-16.8L203.6,24.7z"/>
		<path class="st2" d="M273.4,66.9V24.7h18.5V61c0,8.7,4.1,13.2,11.2,13.2c7,0,11.5-4.5,11.5-13.2V24.7h18.5v65.1h-18.5v-9.2
			c-4.3,5.5-9.7,10.4-19.1,10.4C281.6,91,273.4,81.8,273.4,66.9z"/>
		<path class="st2" d="M335,81.2l7.9-12.2c7,5.1,14.5,7.8,20.5,7.8c5.3,0,7.8-1.9,7.8-4.9v-0.2c0-4-6.3-5.3-13.5-7.5
			c-9.1-2.7-19.4-6.9-19.4-19.6v-0.2c0-13.2,10.7-20.7,23.8-20.7c8.3,0,17.3,2.8,24.3,7.5l-7,12.8c-6.4-3.8-12.9-6.1-17.6-6.1
			c-4.5,0-6.8,1.9-6.8,4.5v0.2c0,3.6,6.2,5.3,13.2,7.8c9.1,3,19.7,7.4,19.7,19.3V70c0,14.5-10.8,21-24.9,21
			C353.9,91,343.7,88,335,81.2z"/>
	</g>
	<g class="st1">
		<rect x="-0.8" y="4.9" width="85" height="85"/>
		<g>
			<path class="st2" d="M7.1,15.5h9.7c2.7,0,4.8,0.8,6.2,2.2c1.2,1.2,1.8,2.9,1.8,4.9v0.1c0,3.4-1.9,5.6-4.6,6.6l5.2,7.6H20L15.5,30
				h-3.7v6.8H7.1V15.5z M16.6,25.9c2.3,0,3.6-1.2,3.6-3v-0.1c0-2-1.4-3-3.7-3h-4.6v6.1H16.6z"/>
			<path class="st2" d="M25.6,15.5h5.2l5.6,14.9L42,15.5h5.1l-8.6,21.3h-4.1L25.6,15.5z"/>
		</g>
		<rect x="7.2" y="74" class="st2" width="31.9" height="5.3"/>
	</g>
</g>
<g class="st0">
	<g class="st1">
		<rect x="-0.8" y="4.9" width="85" height="85"/>
		<g>
			<path class="st2" d="M105.2,4.9h38.9c10.8,0,19.2,3,24.8,8.6c4.7,4.7,7.3,11.4,7.3,19.5v0.2c0,13.7-7.4,22.4-18.2,26.4L178.8,90
				h-21.9l-18.2-27.2H124V90h-18.7L105.2,4.9z M142.9,46.2c9.1,0,14.4-4.9,14.4-12V34c0-8-5.6-12.2-14.7-12.2H124v24.4L142.9,46.2z"
				/>
			<path class="st2" d="M174.9,57.8v-0.2c0-18.6,13.3-33.9,32.2-33.9c21.8,0,31.7,16.9,31.7,35.4c0,1.5-0.1,3.2-0.2,4.9h-45.4
				c1.8,8.4,7.7,12.8,15.9,12.8c6.2,0,10.7-1.9,15.8-6.7l10.6,9.4c-6.1,7.5-14.8,12.2-26.6,12.2C189.4,91.5,174.9,77.7,174.9,57.8z
				 M220.9,52.3c-1.1-8.3-6-13.9-13.7-13.9s-12.6,5.5-14.1,13.9L220.9,52.3z"/>
			<path class="st2" d="M236.9,77.6L248,64.3c7.7,6.3,15.7,10.3,25.4,10.3c7.7,0,12.3-3,12.3-8v-0.2c0-4.7-2.9-7.2-17.1-10.8
				c-17.1-4.4-28.2-9.1-28.2-26v-0.2c0-15.4,12.4-25.7,29.8-25.7c12.4,0,23,3.9,31.6,10.8L292,28.6c-7.5-5.2-15-8.4-22.1-8.4
				c-7.2,0-10.9,3.3-10.9,7.4v0.2c0,5.6,3.6,7.4,18.4,11.2c17.3,4.5,27,10.7,27,25.5v0.2c0,16.9-12.9,26.4-31.3,26.4
				C260.1,91.2,247.1,86.7,236.9,77.6z"/>
			<path class="st2" d="M306.5,1.2H325V34c4.3-5.5,9.7-10.5,19.1-10.5c14,0,22.1,9.2,22.1,24.2v42.2h-18.5V53.7
				c0-8.8-4.1-13.3-11.2-13.3s-11.6,4.5-11.6,13.3V90h-18.5L306.5,1.2z"/>
			<path class="st2" d="M369.1,71.3V71c0-14.2,10.8-20.8,26.3-20.8c6.6,0,11.3,1.1,15.9,2.7v-1.1c0-7.7-4.7-11.9-14-11.9
				c-7.1,0-12,1.3-18,3.5l-4.6-14.1c7.2-3.2,14.2-5.2,25.3-5.2c10.1,0,17.4,2.7,22,7.3c4.9,4.9,7.1,12,7.1,20.8V90h-17.9v-7
				c-4.5,5-10.7,8.3-19.7,8.3C379.1,91.2,369.1,84.2,369.1,71.3z M411.5,67v-3.3c-3.2-1.5-7.3-2.4-11.8-2.4c-7.9,0-12.8,3.2-12.8,9
				v0.2c0,5,4.1,7.9,10.1,7.9C405.7,78.5,411.5,73.7,411.5,67z"/>
			<path class="st2" d="M432.3,24.8h18.5V38c3.8-9,9.9-14.8,20.8-14.4V43h-1c-12.3,0-19.8,7.4-19.8,23v24h-18.5V24.8z"/>
			<path class="st2" d="M474.9,24.8h18.5v9.4c4.5-6.1,10.7-10.6,20.3-10.6c15.2,0,29.7,11.9,29.7,33.7v0.2
				c0,21.8-14.2,33.7-29.7,33.7c-9.9,0-15.9-4.5-20.3-9.7v28h-18.5L474.9,24.8z M524.8,57.5v-0.2c0-10.8-7.3-18-15.9-18
				s-15.8,7.2-15.8,18v0.2c0,10.8,7.2,18,15.8,18C517.5,75.5,524.8,68.5,524.8,57.5z"/>
			<path class="st2" d="M546,57.8v-0.2c0-18.6,13.3-33.9,32.2-33.9C600,23.6,610,40.5,610,59c0,1.5-0.1,3.2-0.2,4.9h-45.4
				c1.8,8.4,7.7,12.8,15.9,12.8c6.2,0,10.7-1.9,15.8-6.7l10.6,9.4c-6.1,7.5-14.8,12.2-26.6,12.2C560.5,91.5,546,77.7,546,57.8z
				 M592,52.3c-1.1-8.3-6-13.9-13.7-13.9s-12.6,5.5-14.1,13.9L592,52.3z"/>
			<path class="st2" d="M612.9,24.8h18.5v13.1c3.8-9,9.9-14.8,20.8-14.4v19.3h-1c-12.3,0-19.8,7.4-19.8,23V90h-18.5V24.8z"/>
		</g>
		<rect x="7.2" y="74" class="st2" width="31.9" height="5.3"/>
		<g>
			<path class="st2" d="M38.4,22.1h-4.8v-4.3h4.8V13h4.4v4.8h4.8v4.3h-4.8v4.8h-4.4V22.1z"/>
		</g>
		<g>
			<path class="st2" d="M30.6,34.2h-4.8v-4.3h4.8v-4.8H35v4.8h4.8v4.3H35V39h-4.4V34.2z"/>
		</g>
		<path class="st2" d="M7.2,15.6h9.7c2.7,0,4.8,0.7,6.2,2.2c1.2,1.2,1.8,2.8,1.8,4.9v0.1c0,1.7-0.4,3.1-1.3,4.2
			c-0.8,1.1-1.9,1.9-3.3,2.4l5.2,7.6H20l-4.4-6.5h-3.9V37H7.2V15.6z M16.6,25.9c1.2,0,2-0.3,2.7-0.8c0.6-0.5,0.9-1.3,0.9-2.2v-0.1
			c0-1-0.3-1.8-1-2.3c-0.6-0.5-1.5-0.8-2.7-0.8h-4.6v6.1L16.6,25.9L16.6,25.9z"/>
	</g>
	<g class="st1">
		<path class="st2" d="M667.7,47.7v-0.2c0-24.2,18.2-44,44.3-44c16,0,25.6,5.3,33.5,13.1l-11.9,13.7c-6.6-6-13.2-9.6-21.7-9.6
			c-14.3,0-24.7,11.9-24.7,26.5v0.2c0,14.6,10.1,26.7,24.7,26.7c9.7,0,15.7-3.9,22.4-10l11.9,12c-8.7,9.4-18.5,15.2-34.9,15.2
			C686.3,91.4,667.7,72.1,667.7,47.7z"/>
		<path class="st2" d="M764,55.6h-22V38.8h22V16.9h17.3v21.9h22v16.8h-22v21.9H764V55.6z"/>
		<path class="st2" d="M829.6,55.6h-22V38.8h22V16.9h17.3v21.9h22v16.8h-22v21.9h-17.3V55.6z"/>
	</g>
</g>
<g class="st0">
	<g class="st1">
		<rect x="-0.8" y="4.9" width="85" height="85"/>
		<path class="st2" d="M7.1,15.5h8.2c6.7,0,11.3,4.6,11.3,10.6v0.1c0,6-4.6,10.6-11.3,10.6H7.1V15.5z M11.8,19.7v12.8h3.5
			c3.8,0,6.4-2.6,6.4-6.3v-0.1c0-3.8-2.6-6.4-6.4-6.4H11.8z"/>
		<polygon class="st2" points="27.9,15.6 32.9,15.6 38.5,24.5 44,15.6 49,15.6 49,36.7 44.4,36.7 44.4,22.9 38.5,31.9 38.4,31.9 
			32.5,23 32.5,36.7 27.9,36.7 		"/>
		<rect x="7.2" y="74" class="st2" width="32" height="5.3"/>
	</g>
	<g class="st1">
		<path class="st2" d="M103.8,57.6v-0.2c0-21.7,14.2-33.7,29.6-33.7c9.8,0,15.9,4.5,20.3,9.7V1.3h18.5V90h-18.5v-9.4
			c-4.5,6.1-10.7,10.6-20.3,10.6C118.2,91.3,103.8,79.4,103.8,57.6z M154,57.6v-0.2c0-10.8-7.2-18-15.8-18s-15.9,7-15.9,18v0.2
			c0,10.8,7.3,18,15.9,18S154,68.4,154,57.6z"/>
		<path class="st2" d="M174.4,57.8v-0.2c0-18.7,15.1-33.9,35.4-33.9c20.2,0,35.1,14.9,35.1,33.7v0.2c0,18.7-15.1,33.9-35.4,33.9
			C189.3,91.5,174.4,76.6,174.4,57.8z M226.6,57.8v-0.2c0-9.6-6.9-18-17.1-18c-10.6,0-16.9,8.1-16.9,17.7v0.2c0,9.6,6.9,18,17.1,18
			C220.3,75.6,226.6,67.4,226.6,57.8z"/>
		<path class="st2" d="M250.1,71.6V40.7h-7.8V24.9h7.8V8.3h18.5v16.6h15.3v15.8h-15.3v27.8c0,4.3,1.8,6.3,6,6.3
			c3.4,0,6.4-0.9,9.1-2.3v14.8c-3.9,2.3-8.4,3.8-14.6,3.8C257.7,91.1,250.1,86.6,250.1,71.6z"/>
		<path class="st2" d="M287.5,5h20.2L330,41l22.4-36h20.2v85H354V34.5l-24,36.3h-0.5l-23.7-36V90h-18.3V5z"/>
		<path class="st2" d="M375.1,57.8v-0.2c0-18.6,13.2-33.9,32.2-33.9c21.7,0,31.7,16.9,31.7,35.4c0,1.5-0.1,3.2-0.2,4.9h-45.3
			c1.8,8.4,7.7,12.8,15.9,12.8c6.2,0,10.7-1.9,15.8-6.7l10.6,9.4c-6.1,7.5-14.8,12.2-26.6,12.2C389.6,91.5,375.1,77.8,375.1,57.8z
			 M421,52.4c-1.1-8.3-6-13.9-13.7-13.9s-12.6,5.5-14.1,13.9H421z"/>
		<path class="st2" d="M441.3,24.9h18.5v9.2c4.3-5.5,9.8-10.5,19.2-10.5c8.5,0,14.9,3.8,18.3,10.3c5.7-6.7,12.5-10.3,21.4-10.3
			c13.7,0,22,8.3,22,23.9V90h-18.5V53.7c0-8.7-3.9-13.2-10.8-13.2s-11.2,4.5-11.2,13.2V90h-18.5V53.7c0-8.7-3.9-13.2-10.8-13.2
			s-11.2,4.5-11.2,13.2V90h-18.5L441.3,24.9L441.3,24.9z"/>
		<path class="st2" d="M542.2,57.8v-0.2c0-18.7,15.1-33.9,35.4-33.9c20.2,0,35.1,14.9,35.1,33.7v0.2c0,18.7-15.1,33.9-35.4,33.9
			C557.1,91.5,542.2,76.6,542.2,57.8z M594.4,57.8v-0.2c0-9.6-6.9-18-17.1-18c-10.6,0-16.9,8.1-16.9,17.7v0.2c0,9.6,6.9,18,17.1,18
			C588.1,75.6,594.4,67.4,594.4,57.8z"/>
		<path class="st2" d="M614.8,24.9h18.5V38c3.8-9,9.8-14.8,20.8-14.3V43h-1c-12.3,0-19.8,7.4-19.8,23v24h-18.5V24.9z"/>
		<path class="st2" d="M704.6,24.9h19.2l-25,66.7c-5,13.2-10.3,18.2-21.4,18.2c-6.7,0-11.7-1.7-16.4-4.5l6.2-13.4
			c2.4,1.5,5.5,2.6,7.9,2.6c3.2,0,4.9-1,6.4-4.3L656,24.9h19.6l14.8,44.3L704.6,24.9z"/>
	</g>
</g>
<g class="st0">
	<g class="st1">
		<rect x="-0.8" y="4.9" width="85" height="85"/>
		<path class="st2" d="M7.1,15.5h8.7c5.1,0,8.1,3,8.1,7.4V23c0,4.9-3.8,7.5-8.6,7.5h-3.6v6.4H7.1V15.5z M15.5,26.3
			c2.3,0,3.7-1.4,3.7-3.2V23c0-2.1-1.5-3.2-3.8-3.2h-3.6v6.5H15.5z"/>
		<path class="st2" d="M25.8,26.2L25.8,26.2c0-6.1,4.6-11.1,11.1-11.1c4,0,6.4,1.3,8.4,3.3l-3,3.4c-1.6-1.5-3.3-2.4-5.4-2.4
			c-3.6,0-6.2,3-6.2,6.6v0.1c0,3.6,2.5,6.7,6.2,6.7c2.4,0,3.9-1,5.6-2.5l3,3c-2.2,2.3-4.6,3.8-8.7,3.8
			C30.5,37.2,25.8,32.3,25.8,26.2"/>
		<rect x="7.2" y="74" class="st2" width="31.9" height="5.3"/>
	</g>
	<g class="st1">
		<path class="st2" d="M105.4,4.9h34.7c20.3,0,32.5,12,32.5,29.4v0.2c0,19.7-15.3,29.9-34.4,29.9H124v25.5h-18.7L105.4,4.9
			L105.4,4.9z M138.9,47.8c9.3,0,14.8-5.6,14.8-12.9v-0.2c0-8.4-5.8-12.9-15.2-12.9h-14.4v26C124.1,47.8,138.9,47.8,138.9,47.8z"/>
		<path class="st2" d="M222,24.8h19.2l-25,66.7c-5,13.2-10.3,18.2-21.4,18.2c-6.7,0-11.7-1.7-16.4-4.5l6.2-13.4
			c2.4,1.5,5.5,2.5,7.9,2.5c3.2,0,4.9-1,6.4-4.2l-25.5-65.3h19.5l14.8,44.3L222,24.8z"/>
		<path class="st2" d="M238.5,47.6v-0.2c0-24.2,18.2-44,44.3-44c16,0,25.6,5.3,33.5,13.1l-11.9,13.7c-6.6-5.9-13.2-9.6-21.7-9.6
			c-14.3,0-24.6,11.9-24.6,26.5v0.2c0,14.6,10.1,26.7,24.6,26.7c9.7,0,15.7-3.9,22.3-10l11.9,12c-8.7,9.3-18.5,15.2-34.8,15.2
			C257.1,91.3,238.5,72,238.5,47.6z"/>
		<path class="st2" d="M318.7,1.2h18.5V34c4.2-5.5,9.7-10.4,19.1-10.4c14,0,22.1,9.2,22.1,24.2v42.1h-18.5V53.6
			c0-8.7-4.1-13.2-11.2-13.2c-7,0-11.5,4.5-11.5,13.2v36.3h-18.5V1.2z"/>
		<path class="st2" d="M380.8,71.2V71c0-14.2,10.8-20.8,26.2-20.8c6.6,0,11.3,1.1,15.9,2.7v-1.1c0-7.6-4.7-11.9-14-11.9
			c-7,0-12,1.3-18,3.5l-4.6-14.1c7.2-3.2,14.2-5.2,25.3-5.2c10.1,0,17.4,2.7,22,7.3c4.9,4.9,7,12,7,20.8V90h-17.8v-7
			c-4.5,5-10.7,8.3-19.7,8.3C390.9,91.1,380.8,84.1,380.8,71.2z M423.2,66.9v-3.3c-3.2-1.5-7.3-2.4-11.8-2.4c-7.9,0-12.7,3.2-12.7,9
			v0.2c0,5,4.1,7.9,10.1,7.9C417.3,78.4,423.2,73.6,423.2,66.9z"/>
		<path class="st2" d="M444.7,24.8h18.5v13.1c3.8-9,9.8-14.8,20.8-14.3v19.3h-1c-12.3,0-19.8,7.4-19.8,22.9v24h-18.5V24.8z"/>
		<path class="st2" d="M487.5,24.8H506V34c4.2-5.5,9.8-10.4,19.2-10.4c8.5,0,14.9,3.8,18.3,10.3c5.7-6.7,12.5-10.3,21.4-10.3
			c13.7,0,22,8.3,22,23.9v42.4h-18.5V53.6c0-8.7-3.9-13.2-10.8-13.2c-6.9,0-11.2,4.5-11.2,13.2v36.3H528V53.6
			c0-8.7-3.9-13.2-10.8-13.2c-6.9,0-11.2,4.5-11.2,13.2v36.3h-18.5V24.8z"/>
	</g>
</g>
<g class="st0">
	<g class="st1">
		<g>
			<rect x="-0.8" y="4.9" width="85" height="85"/>
			<rect x="7.2" y="74" class="st2" width="31.9" height="5.3"/>
		</g>
		<g>
			<path class="st2" d="M7.2,15.6h4.7V24h8.6v-8.4h4.7v21.2h-4.7v-8.5h-8.6v8.5H7.2V15.6z"/>
			<path class="st2" d="M28.6,15.6h9.9c2.4,0,4.3,0.7,5.6,1.9c1,1,1.5,2.2,1.5,3.6v0.1c0,2.4-1.3,3.7-2.8,4.6c2.5,0.9,4,2.4,4,5.2
				l0,0c0,3.9-3.2,5.8-8,5.8H28.6V15.6z M40.8,21.8c0-1.4-1.1-2.2-3.1-2.2h-4.6v4.5h4.3C39.5,24.1,40.8,23.5,40.8,21.8L40.8,21.8z
				 M38.6,28h-5.4v4.7h5.6c2.1,0,3.3-0.7,3.3-2.3v-0.1C42,28.9,41,28,38.6,28z"/>
		</g>
	</g>
	<g class="st1">
		<path class="st2" d="M105.4,4.9h18.7v33.7h34.5V4.9h18.7V90h-18.7V55.8h-34.5v34.1h-18.7C105.4,89.9,105.4,4.9,105.4,4.9z"/>
		<path class="st2" d="M182.4,67V24.8h18.5v36.3c0,8.7,4.1,13.2,11.2,13.2c7,0,11.5-4.5,11.5-13.2V24.8h18.5v65.1h-18.5v-9.2
			c-4.3,5.5-9.7,10.4-19.1,10.4C190.6,91.2,182.4,81.9,182.4,67z"/>
		<path class="st2" d="M266.8,81.4v8.5h-18.5V1.2h18.5v32.9c4.5-6.1,10.7-10.6,20.3-10.6c15.2,0,29.6,11.9,29.6,33.7v0.2
			c0,21.7-14.2,33.7-29.6,33.7C277.2,91.2,271.1,86.7,266.8,81.4z M298.2,57.5v-0.2c0-10.8-7.3-18-15.9-18s-15.8,7.2-15.8,18v0.2
			c0,10.8,7.2,18,15.8,18S298.2,68.4,298.2,57.5z"/>
	</g>
</g>
<g class="st0">
	<g class="st1">
		<path class="st2" d="M52.3,29.7h10.1l11.2,18l11.2-18h10.1v42.5h-9.3V44.5l-12,18.2h-0.2l-11.8-18v27.6h-9.2L52.3,29.7L52.3,29.7z
			"/>
		<path class="st2" d="M95.8,56.1L95.8,56.1c0-9.4,6.6-17,16.1-17c10.9,0,15.9,8.4,15.9,17.7c0,0.7-0.1,1.6-0.1,2.4H105
			c0.9,4.2,3.8,6.4,8,6.4c3.1,0,5.3-1,7.9-3.3l5.3,4.7c-3,3.8-7.4,6.1-13.3,6.1C103,72.9,95.8,66.1,95.8,56.1z M118.7,53.4
			c-0.5-4.1-3-6.9-6.9-6.9c-3.8,0-6.3,2.7-7,6.9H118.7z"/>
		<path class="st2" d="M130.6,63V47.6h-3.9v-7.9h3.9v-8.3h9.2v8.3h7.7v7.9h-7.7v13.9c0,2.1,0.9,3.2,3,3.2c1.7,0,3.2-0.4,4.6-1.2v7.4
			c-1.9,1.2-4.2,1.9-7.3,1.9C134.4,72.8,130.6,70.5,130.6,63z"/>
		<path class="st2" d="M148.1,62.9L148.1,62.9c0-7.2,5.4-10.5,13.1-10.5c3.3,0,5.6,0.5,8,1.3v-0.5c0-3.8-2.4-6-7-6
			c-3.5,0-6,0.7-9,1.8l-2.3-7c3.6-1.6,7.1-2.6,12.6-2.6c5,0,8.7,1.3,11,3.6c2.4,2.4,3.5,6,3.5,10.4v18.9h-8.9v-3.5
			c-2.2,2.5-5.3,4.1-9.8,4.1C153.2,72.8,148.1,69.3,148.1,62.9z M169.3,60.7v-1.6c-1.6-0.7-3.6-1.2-5.9-1.2c-3.9,0-6.4,1.6-6.4,4.5
			v0.1c0,2.5,2.1,3.9,5,3.9C166.4,66.5,169.3,64.1,169.3,60.7z"/>
		<path class="st2" d="M193.9,29.7h17.4c10.1,0,16.3,6,16.3,14.7v0.1c0,9.8-7.7,14.9-17.2,14.9h-7.1v12.8h-9.4V29.7z M210.6,51.1
			c4.7,0,7.4-2.8,7.4-6.4v-0.1c0-4.2-2.9-6.4-7.6-6.4h-7.2v13L210.6,51.1L210.6,51.1z"/>
		<path class="st2" d="M228.5,39.7h9.2v6.6c1.9-4.5,4.9-7.4,10.4-7.2v9.7h-0.5c-6.1,0-9.9,3.7-9.9,11.5v12h-9.2V39.7z"/>
		<path class="st2" d="M247.3,56.1L247.3,56.1c0-9.5,7.5-17,17.7-17c10.1,0,17.6,7.5,17.6,16.8V56c0,9.4-7.5,16.9-17.7,16.9
			C254.8,72.9,247.3,65.5,247.3,56.1z M273.5,56.1L273.5,56.1c0-4.9-3.5-9.1-8.6-9.1c-5.3,0-8.4,4.1-8.4,8.9V56c0,4.8,3.5,9,8.6,9
			C270.3,65,273.5,60.9,273.5,56.1z"/>
		<path class="st2" d="M285,78.7l3.2-6.9c3.3,1.9,6.7,3,11,3c6.3,0,9.3-3,9.3-8.9v-1.6c-2.7,3.3-5.7,5.3-10.6,5.3
			c-7.6,0-14.5-5.5-14.5-15.2v-0.1c0-9.7,7-15.2,14.5-15.2c5,0,8,2.1,10.5,4.9v-4.3h9.2v25.2c0,5.8-1.4,10.1-4.1,12.8
			c-3,3-7.7,4.4-14,4.4C294.1,82.1,289.1,80.8,285,78.7z M308.4,54.4L308.4,54.4c0-4.5-3.5-7.6-8-7.6s-7.9,3.1-7.9,7.5v0.1
			c0,4.5,3.4,7.5,7.9,7.5S308.4,58.8,308.4,54.4z"/>
		<path class="st2" d="M319.5,39.7h9.2v6.6c1.9-4.5,4.9-7.4,10.4-7.2v9.7h-0.5c-6.1,0-9.9,3.7-9.9,11.5v12h-9.2V39.7z"/>
		<path class="st2" d="M337.1,62.9L337.1,62.9c0-7.2,5.4-10.5,13.1-10.5c3.3,0,5.6,0.5,8,1.3v-0.5c0-3.8-2.4-6-7-6
			c-3.5,0-6,0.7-9,1.8l-2.3-7c3.6-1.6,7.1-2.6,12.6-2.6c5,0,8.7,1.3,11,3.6c2.4,2.4,3.5,6,3.5,10.4v18.9h-8.9v-3.5
			c-2.2,2.5-5.3,4.1-9.8,4.1C342.2,72.8,337.1,69.3,337.1,62.9z M358.3,60.7v-1.6c-1.6-0.7-3.6-1.2-5.9-1.2c-3.9,0-6.4,1.6-6.4,4.5
			v0.1c0,2.5,2.1,3.9,5,3.9C355.4,66.5,358.3,64.1,358.3,60.7z"/>
		<path class="st2" d="M368.9,39.7h9.2v4.6c2.1-2.7,4.9-5.2,9.6-5.2c4.3,0,7.5,1.9,9.2,5.2c2.9-3.3,6.3-5.2,10.7-5.2
			c6.9,0,11,4.1,11,12v21.2h-9.2V54.1c0-4.4-1.9-6.6-5.4-6.6s-5.6,2.2-5.6,6.6v18.2h-9.2V54.1c0-4.4-1.9-6.6-5.4-6.6
			s-5.6,2.2-5.6,6.6v18.2H369V39.7H368.9z"/>
		<path class="st2" d="M420.4,39.7h9.2v4.6c2.1-2.7,4.9-5.2,9.6-5.2c4.3,0,7.5,1.9,9.2,5.2c2.9-3.3,6.3-5.2,10.7-5.2
			c6.9,0,11,4.1,11,12v21.2h-9.2V54.1c0-4.4-1.9-6.6-5.4-6.6s-5.6,2.2-5.6,6.6v18.2h-9.2V54.1c0-4.4-1.9-6.6-5.4-6.6
			s-5.6,2.2-5.6,6.6v18.2h-9.2V39.7H420.4z"/>
		<path class="st2" d="M472,27.9h9.7v8.2H472V27.9z M472.3,39.7h9.2v32.6h-9.2V39.7z"/>
		<path class="st2" d="M484,39.7h9.2v4.6c2.1-2.7,4.9-5.2,9.5-5.2c7,0,11.1,4.6,11.1,12.1v21.1h-9.2V54.1c0-4.4-2.1-6.6-5.6-6.6
			s-5.8,2.2-5.8,6.6v18.2H484V39.7z"/>
		<path class="st2" d="M516.7,78.7l3.2-6.9c3.3,1.9,6.7,3,11,3c6.3,0,9.3-3,9.3-8.9v-1.6c-2.7,3.3-5.7,5.3-10.6,5.3
			c-7.6,0-14.5-5.5-14.5-15.2v-0.1c0-9.7,7-15.2,14.5-15.2c5,0,8,2.1,10.5,4.9v-4.3h9.2v25.2c0,5.8-1.4,10.1-4.1,12.8
			c-3,3-7.7,4.4-14,4.4C525.8,82.1,520.8,80.8,516.7,78.7z M540.1,54.4L540.1,54.4c0-4.5-3.5-7.6-8-7.6s-7.9,3.1-7.9,7.5v0.1
			c0,4.5,3.4,7.5,7.9,7.5S540.1,58.8,540.1,54.4z"/>
		<path class="st2" d="M561.3,66l5.5-6.6c3.8,3.2,7.8,5.2,12.7,5.2c3.8,0,6.1-1.5,6.1-4v-0.1c0-2.4-1.5-3.6-8.6-5.4
			c-8.6-2.2-14.1-4.6-14.1-13V42c0-7.7,6.2-12.8,14.9-12.8c6.2,0,11.5,1.9,15.8,5.4l-4.9,7c-3.8-2.6-7.5-4.2-11.1-4.2
			s-5.5,1.6-5.5,3.7v0.1c0,2.8,1.8,3.7,9.2,5.6c8.6,2.2,13.5,5.3,13.5,12.8v0.1c0,8.4-6.4,13.2-15.6,13.2
			C572.9,72.8,566.4,70.6,561.3,66z"/>
		<path class="st2" d="M615.5,39.7h9.6L612.6,73c-2.5,6.6-5.2,9.1-10.7,9.1c-3.3,0-5.8-0.9-8.2-2.2l3.1-6.7c1.2,0.7,2.7,1.3,3.9,1.3
			c1.6,0,2.4-0.5,3.2-2.1l-12.8-32.7h9.8l7.4,22.2L615.5,39.7z"/>
		<path class="st2" d="M621.5,67.9l3.9-6.1c3.5,2.6,7.2,3.9,10.3,3.9c2.7,0,3.9-1,3.9-2.4v-0.1c0-2-3.2-2.7-6.7-3.8
			c-4.6-1.3-9.7-3.5-9.7-9.8v-0.1c0-6.6,5.3-10.3,11.9-10.3c4.1,0,8.6,1.4,12.1,3.8l-3.5,6.4c-3.2-1.9-6.4-3-8.8-3
			c-2.2,0-3.4,1-3.4,2.2v0.1c0,1.8,3.1,2.7,6.6,3.9c4.6,1.5,9.8,3.7,9.8,9.7v0.1c0,7.2-5.4,10.5-12.5,10.5
			C630.9,72.8,625.8,71.3,621.5,67.9z"/>
		<path class="st2" d="M651.8,63V47.6h-3.9v-7.9h3.9v-8.3h9.2v8.3h7.7v7.9H661v13.9c0,2.1,0.9,3.2,3,3.2c1.7,0,3.2-0.4,4.6-1.2v7.4
			c-1.9,1.2-4.2,1.9-7.3,1.9C655.6,72.8,651.8,70.5,651.8,63z"/>
		<path class="st2" d="M668.4,56.1L668.4,56.1c0-9.4,6.6-17,16.1-17c10.9,0,15.9,8.4,15.9,17.7c0,0.7-0.1,1.6-0.1,2.4h-22.7
			c0.9,4.2,3.8,6.4,8,6.4c3.1,0,5.3-1,7.9-3.3l5.3,4.7c-3,3.8-7.4,6.1-13.3,6.1C675.7,72.9,668.4,66.1,668.4,56.1z M691.4,53.4
			c-0.5-4.1-3-6.9-6.9-6.9c-3.8,0-6.3,2.7-7,6.9H691.4z"/>
		<path class="st2" d="M701.8,39.7h9.2v4.6c2.1-2.7,4.9-5.2,9.6-5.2c4.3,0,7.5,1.9,9.2,5.2c2.9-3.3,6.3-5.2,10.7-5.2
			c6.9,0,11,4.1,11,12v21.2h-9.2V54.1c0-4.4-1.9-6.6-5.4-6.6s-5.6,2.2-5.6,6.6v18.2H722V54.1c0-4.4-1.9-6.6-5.4-6.6
			s-5.6,2.2-5.6,6.6v18.2h-9.2V39.7z"/>
	</g>
	<g class="st1">
		<rect x="-0.8" y="29.7" width="42.5" height="42.5"/>
		<rect x="3.2" y="64.2" class="st2" width="15.9" height="2.7"/>
		<polygon class="st2" points="3.1,35.1 6.1,35.1 9.5,40.5 12.8,35.1 15.8,35.1 15.8,47.8 13.1,47.8 13.1,39.5 9.5,45 9.4,45 
			5.9,39.6 5.9,47.8 3.1,47.8 		"/>
		<path class="st2" d="M17.3,35.1h5.2c3,0,4.9,1.8,4.9,4.4l0,0c0,2.9-2.3,4.5-5.1,4.5h-2.1v3.8h-2.8L17.3,35.1z M22.3,41.5
			c1.4,0,2.2-0.8,2.2-1.9l0,0c0-1.3-0.9-1.9-2.3-1.9H20v3.9L22.3,41.5L22.3,41.5z"/>
		<path class="st4" d="M28.1,46l1.7-2c1.1,0.9,2.3,1.5,3.8,1.5c1.1,0,1.8-0.5,1.8-1.2l0,0c0-0.7-0.4-1.1-2.6-1.6
			c-2.6-0.7-4.2-1.4-4.2-3.9l0,0c0-2.3,1.9-3.8,4.5-3.8c1.9,0,3.4,0.6,4.7,1.6l-1.5,2.1c-1.1-0.8-2.2-1.3-3.3-1.3
			c-1.1,0-1.6,0.5-1.6,1.1l0,0c0,0.8,0.5,1.1,2.7,1.7c2.6,0.7,4,1.6,4,3.8l0,0c0,2.5-1.9,3.9-4.7,3.9C31.5,48,29.6,47.4,28.1,46"/>
	</g>
</g>
<g class="st0">
	<g class="st1">
		<rect x="-0.8" y="4.9" width="85" height="85"/>
		<path class="st2" d="M7.1,15.5h8.7c5.1,0,8.2,3,8.2,7.4V23c0,4.9-3.8,7.5-8.6,7.5h-3.6v6.4H7.1V15.5z M15.5,26.3
			c2.3,0,3.7-1.4,3.7-3.2V23c0-2.1-1.5-3.2-3.8-3.2h-3.6v6.5H15.5z"/>
		<path class="st2" d="M25.1,33.8l2.8-3.3c1.9,1.6,3.9,2.6,6.4,2.6c1.9,0,3.1-0.8,3.1-2V31c0-1.2-0.7-1.8-4.3-2.7
			C28.8,27.2,26,26,26,21.7v-0.1c0-3.9,3.1-6.4,7.5-6.4c3.1,0,5.8,1,7.9,2.7L39,21.5c-1.9-1.3-3.8-2.1-5.6-2.1s-2.8,0.8-2.8,1.9v0.1
			c0,1.4,0.9,1.9,4.6,2.8c4.3,1.1,6.8,2.7,6.8,6.4v0.1c0,4.2-3.2,6.6-7.8,6.6C31,37.2,27.7,36.1,25.1,33.8"/>
		<rect x="7.1" y="74" class="st2" width="31.9" height="5.3"/>
	</g>
	<g class="st1">
		<path class="st2" d="M105.3,4.9H140c20.3,0,32.6,12,32.6,29.4v0.2c0,19.7-15.3,29.9-34.4,29.9H124v25.5h-18.7V4.9z M138.8,47.8
			c9.4,0,14.8-5.6,14.8-12.9v-0.2c0-8.4-5.8-12.9-15.2-12.9H124v26C124,47.8,138.8,47.8,138.8,47.8z"/>
		<path class="st2" d="M175.9,1.3h18.5v32.8c4.3-5.5,9.7-10.4,19.1-10.4c14,0,22.1,9.2,22.1,24.2v42.2h-18.5V53.6
			c0-8.7-4.1-13.2-11.2-13.2s-11.5,4.5-11.5,13.2v36.3h-18.5L175.9,1.3L175.9,1.3z"/>
		<path class="st2" d="M239.4,24.8h18.5v9.4c4.5-6.1,10.7-10.6,20.3-10.6c15.2,0,29.6,11.9,29.6,33.7v0.2
			c0,21.7-14.2,33.7-29.6,33.7c-9.8,0-15.9-4.5-20.3-9.7v27.9h-18.5V24.8z M289.4,57.5v-0.2c0-10.8-7.3-18-15.9-18
			s-15.8,7.2-15.8,18v0.2c0,10.8,7.2,18,15.8,18S289.4,68.4,289.4,57.5z"/>
		<path class="st2" d="M305,77.6l11.1-13.2c7.7,6.3,15.7,10.3,25.4,10.3c7.7,0,12.3-3,12.3-8v-0.2c0-4.7-2.9-7.2-17.1-10.8
			c-17.1-4.4-28.2-9.1-28.2-26v-0.2c0-15.4,12.4-25.6,29.8-25.6c12.4,0,23,3.9,31.6,10.8l-9.7,14.1c-7.5-5.2-14.9-8.4-22.1-8.4
			s-10.9,3.3-10.9,7.4V28c0,5.6,3.6,7.4,18.3,11.2c17.3,4.5,27,10.7,27,25.5v0.2c0,16.9-12.9,26.4-31.2,26.4
			C328.2,91.2,315.2,86.7,305,77.6z"/>
		<path class="st2" d="M376.6,71.5V40.6h-7.8V24.8h7.8V8.2h18.5v16.6h15.3v15.8h-15.3v27.8c0,4.3,1.8,6.3,6,6.3
			c3.4,0,6.4-0.9,9.1-2.3v14.8c-3.9,2.3-8.4,3.8-14.6,3.8C384.2,91,376.6,86.5,376.6,71.5z"/>
		<path class="st2" d="M409.1,57.8v-0.2c0-18.7,15.1-33.9,35.4-33.9c20.2,0,35.1,14.9,35.1,33.7v0.2c0,18.7-15.1,33.9-35.4,33.9
			C424.1,91.4,409.1,76.5,409.1,57.8z M461.4,57.8v-0.2c0-9.6-6.9-18-17.1-18c-10.6,0-16.9,8.1-16.9,17.7v0.2c0,9.6,6.9,18,17.1,18
			C455.1,75.5,461.4,67.3,461.4,57.8z"/>
		<path class="st2" d="M482,24.8h18.5v13.1c3.8-9,9.8-14.8,20.8-14.3v19.3h-1c-12.3,0-19.8,7.4-19.8,23V90H482V24.8z"/>
		<path class="st2" d="M523.7,24.8h18.5V34c4.3-5.5,9.8-10.4,19.2-10.4c8.5,0,14.9,3.8,18.3,10.3c5.7-6.7,12.5-10.3,21.4-10.3
			c13.7,0,22,8.3,22,23.9v42.4h-18.5V53.6c0-8.7-3.9-13.2-10.8-13.2s-11.2,4.5-11.2,13.2v36.3h-18.5V53.6c0-8.7-3.9-13.2-10.8-13.2
			s-11.2,4.5-11.2,13.2v36.3h-18.5L523.7,24.8L523.7,24.8z"/>
	</g>
</g>
<g class="st0">
	<g class="st1">
		<g>
			<rect x="-0.8" y="4.9" width="85" height="85"/>
			<rect x="7" y="74" class="st2" width="31.9" height="5.3"/>
		</g>
		<path class="st2" d="M7.1,15.5h5.1l5.6,9l5.6-9h5.1v21.3h-4.7V22.9l-6,9.1h-0.1l-5.9-9v13.8H7.1V15.5z"/>
		<g>
			<path class="st2" d="M30.7,15.5h9.9c2.4,0,4.3,0.7,5.6,1.9c1,1,1.5,2.2,1.5,3.6v0.1c0,2.4-1.3,3.7-2.8,4.6c2.5,0.9,4,2.4,4,5.2
				V31c0,3.9-3.2,5.8-8,5.8H30.7V15.5z M42.9,21.8c0-1.4-1.1-2.2-3.1-2.2h-4.6v4.5h4.3C41.6,24.1,42.9,23.4,42.9,21.8L42.9,21.8z
				 M40.7,28h-5.4v4.7h5.6c2.1,0,3.3-0.7,3.3-2.3v-0.1C44.1,28.9,43.1,28,40.7,28z"/>
		</g>
	</g>
	<g class="st1">
		<path d="M110.5,4.8h20.2l22.4,36l22.4-36h20.2v85.1h-18.6V34.3L153,70.7h-0.5l-23.7-36v55.2h-18.3V4.8z"/>
		<path d="M198.4,57.7v-0.2c0-18.6,13.2-33.9,32.2-33.9c21.7,0,31.7,16.9,31.7,35.4c0,1.5-0.1,3.2-0.2,4.9h-45.3
			c1.8,8.4,7.7,12.8,15.9,12.8c6.2,0,10.7-1.9,15.8-6.7l10.6,9.4c-6.1,7.5-14.8,12.2-26.6,12.2C212.9,91.3,198.4,77.6,198.4,57.7z
			 M244.3,52.2c-1.1-8.3-6-13.9-13.7-13.9s-12.6,5.5-14.1,13.9C216.5,52.2,244.3,52.2,244.3,52.2z"/>
		<path d="M268,102.8l6.3-13.9c6.7,3.8,13.4,6,22,6c12.6,0,18.6-6.1,18.6-17.7V74c-5.5,6.6-11.4,10.6-21.3,10.6
			c-15.2,0-28.9-11.1-28.9-30.4V54c0-19.4,14-30.4,28.9-30.4c10.1,0,16,4.3,21,9.7v-8.5h18.5v50.4c0,11.7-2.8,20.2-8.3,25.6
			c-6.1,6.1-15.4,8.7-28.1,8.7C286.3,109.6,276.3,107.1,268,102.8z M314.9,54.1v-0.2c0-8.9-6.9-15.1-15.9-15.1s-15.8,6.2-15.8,15.1
			v0.2c0,9,6.8,15.1,15.8,15.1S314.9,63,314.9,54.1z"/>
		<path d="M336.3,71.2V71c0-14.2,10.8-20.8,26.2-20.8c6.6,0,11.3,1.1,15.9,2.7v-1.1c0-7.7-4.7-11.9-14-11.9c-7,0-12,1.3-18,3.5
			l-4.6-14.1c7.2-3.2,14.2-5.2,25.3-5.2c10.1,0,17.4,2.7,22,7.3c4.9,4.9,7,12,7,20.8V90h-17.9v-7c-4.5,5-10.7,8.3-19.7,8.3
			C346.4,91.1,336.3,84,336.3,71.2z M378.7,66.9v-3.3c-3.2-1.5-7.3-2.4-11.8-2.4c-7.9,0-12.8,3.2-12.8,9v0.2c0,5,4.1,7.9,10.1,7.9
			C372.9,78.3,378.7,73.6,378.7,66.9z"/>
		<path d="M403.1,4.8h39.5c9.7,0,17.4,2.7,22.2,7.5c3.9,3.9,5.8,8.6,5.8,14.5V27c0,9.6-5.1,14.9-11.2,18.3
			c9.8,3.8,15.9,9.5,15.9,20.9v0.2c0,15.6-12.6,23.3-31.8,23.3H403V4.8H403.1z M452.1,30c0-5.6-4.4-8.7-12.3-8.7h-18.5v18h17.3
			c8.3,0,13.5-2.7,13.5-9V30z M443,54.8h-21.6v18.7h22.2c8.3,0,13.2-2.9,13.2-9.2V64C456.8,58.3,452.6,54.8,443,54.8z"/>
		<path d="M477.7,71.2V71c0-14.2,10.8-20.8,26.2-20.8c6.6,0,11.3,1.1,15.9,2.7v-1.1c0-7.7-4.7-11.9-14-11.9c-7,0-12,1.3-18,3.5
			l-4.6-14.1c7.2-3.2,14.2-5.2,25.3-5.2c10.1,0,17.4,2.7,22,7.3c4.9,4.9,7,12,7,20.8V90h-17.9v-7c-4.5,5-10.7,8.3-19.7,8.3
			C487.8,91.1,477.7,84,477.7,71.2z M520.1,66.9v-3.3c-3.2-1.5-7.3-2.4-11.8-2.4c-7.9,0-12.8,3.2-12.8,9v0.2c0,5,4.1,7.9,10.1,7.9
			C514.3,78.3,520.1,73.6,520.1,66.9z"/>
		<path d="M539.7,81.2l7.9-12.2c7,5.1,14.5,7.8,20.5,7.8c5.3,0,7.8-1.9,7.8-4.9v-0.2c0-4-6.3-5.3-13.5-7.5
			c-9.1-2.7-19.4-6.9-19.4-19.6v-0.2c0-13.2,10.7-20.7,23.8-20.7c8.3,0,17.3,2.8,24.3,7.5l-7,12.8c-6.4-3.8-12.9-6.1-17.6-6.1
			c-4.5,0-6.8,1.9-6.8,4.5v0.2c0,3.6,6.2,5.3,13.2,7.8c9.1,3,19.7,7.4,19.7,19.3v0.2c0,14.5-10.8,21-24.9,21
			C558.5,91.1,548.3,88,539.7,81.2z"/>
		<path d="M593.9,57.7v-0.2c0-18.6,13.2-33.9,32.2-33.9c21.7,0,31.7,16.9,31.7,35.4c0,1.5-0.1,3.2-0.2,4.9h-45.3
			c1.8,8.4,7.7,12.8,15.9,12.8c6.2,0,10.7-1.9,15.8-6.7l10.6,9.4c-6.1,7.5-14.8,12.2-26.6,12.2C608.4,91.3,593.9,77.6,593.9,57.7z
			 M639.9,52.2c-1.1-8.3-6-13.9-13.7-13.9s-12.6,5.5-14.1,13.9C612.1,52.2,639.9,52.2,639.9,52.2z"/>
	</g>
</g>
<g class="st0">
	<g class="st1">
		<g>
			<rect x="-0.8" y="4.9" width="85" height="85"/>
			<rect x="7" y="74" class="st2" width="31.9" height="5.3"/>
		</g>
	</g>
	<g class="st1">
		<g>
			<path class="st2" d="M7.1,15.5h8.3c6.7,0,11.3,4.6,11.3,10.6v0.1c0,6-4.6,10.6-11.3,10.6H7.1V15.5z M11.7,19.7v12.8h3.6
				c3.8,0,6.4-2.6,6.4-6.3v-0.1c0-3.8-2.6-6.4-6.4-6.4H11.7z"/>
			<path class="st2" d="M27.5,26.2L27.5,26.2c0-6.1,4.7-11,11.1-11c3.8,0,6.1,1,8.3,2.9L44,21.6c-1.6-1.4-3.1-2.2-5.6-2.2
				c-3.4,0-6.1,3-6.1,6.6v0.1c0,3.9,2.7,6.7,6.4,6.7c1.7,0,3.2-0.4,4.4-1.3v-3h-4.7v-4h9.2v9.2c-2.2,1.9-5.2,3.4-9.1,3.4
				C32,37.1,27.5,32.5,27.5,26.2z"/>
		</g>
	</g>
	<g class="st1">
		<path class="st2" d="M111,4.8h33c26.7,0,45.1,18.3,45.1,42.2v0.2c0,23.9-18.4,42.4-45.1,42.4h-33V4.8z M129.6,21.6v51.1H144
			c15.3,0,25.6-10.3,25.6-25.3v-0.2c0-15-10.3-25.6-25.6-25.6C144,21.6,129.6,21.6,129.6,21.6z"/>
		<path class="st2" d="M188,70.9v-0.2c0-14.2,10.8-20.7,26.2-20.7c6.5,0,11.3,1.1,15.9,2.7v-1.1c0-7.6-4.7-11.9-13.9-11.9
			c-7,0-12,1.3-17.9,3.5l-4.6-14.1c7.2-3.2,14.2-5.2,25.2-5.2c10.1,0,17.3,2.7,21.9,7.3c4.8,4.8,7,12,7,20.7v37.7H230v-7
			c-4.5,5-10.7,8.2-19.6,8.2C198.1,90.8,188,83.8,188,70.9z M230.3,66.7v-3.3c-3.2-1.5-7.3-2.4-11.8-2.4c-7.9,0-12.7,3.2-12.7,9v0.2
			c0,5,4.1,7.9,10.1,7.9C224.5,78.1,230.3,73.4,230.3,66.7z"/>
		<path class="st2" d="M256.3,71.2V40.4h-7.8V24.6h7.8V8h18.4v16.6H290v15.8h-15.3v27.8c0,4.2,1.8,6.3,5.9,6.3
			c3.4,0,6.4-0.8,9.1-2.3V87c-3.9,2.3-8.4,3.8-14.5,3.8C263.9,90.7,256.3,86.2,256.3,71.2z"/>
		<path class="st2" d="M291.8,70.9v-0.2c0-14.2,10.8-20.7,26.2-20.7c6.5,0,11.3,1.1,15.9,2.7v-1.1c0-7.6-4.7-11.9-13.9-11.9
			c-7,0-12,1.3-17.9,3.5l-4.6-14.1c7.2-3.2,14.2-5.2,25.2-5.2c10.1,0,17.3,2.7,21.9,7.3c4.8,4.8,7,12,7,20.7v37.7h-17.8v-7
			c-4.5,5-10.7,8.2-19.6,8.2C301.9,90.8,291.8,83.8,291.8,70.9z M334.1,66.7v-3.3c-3.2-1.5-7.3-2.4-11.8-2.4c-7.9,0-12.7,3.2-12.7,9
			v0.2c0,5,4.1,7.9,10.1,7.9C328.3,78.1,334.1,73.4,334.1,66.7z"/>
		<path class="st2" d="M355.1,47.4v-0.2c0-24.1,18.8-43.9,44.5-43.9c15.3,0,24.5,4.1,33.3,11.6l-11.8,14.2
			c-6.5-5.5-12.4-8.6-22.2-8.6c-13.6,0-24.4,12-24.4,26.4v0.2c0,15.5,10.7,26.9,25.7,26.9c6.8,0,12.8-1.7,17.6-5.1v-12H399V40.8
			h36.8v36.8c-8.7,7.4-20.7,13.5-36.2,13.5C373.2,91.1,355.1,72.5,355.1,47.4z"/>
		<path class="st2" d="M441.4,24.6h18.4v13.1c3.8-9,9.8-14.8,20.7-14.3v19.3h-1c-12.2,0-19.8,7.4-19.8,22.9v24h-18.4L441.4,24.6
			L441.4,24.6z"/>
		<path class="st2" d="M484.9,1.1h19.4v16.4h-19.4V1.1z M485.4,24.6h18.4v65h-18.4V24.6z"/>
		<path class="st2" d="M511.3,24.6h18.4V34c4.5-6.1,10.7-10.5,20.2-10.5c15.1,0,29.6,11.9,29.6,33.6v0.2c0,21.7-14.2,33.6-29.6,33.6
			c-9.8,0-15.9-4.5-20.2-9.7V109h-18.4L511.3,24.6L511.3,24.6z M561.1,57.3V57c0-10.8-7.3-17.9-15.9-17.9c-8.6,0-15.8,7.2-15.8,17.9
			v0.2c0,10.8,7.2,17.9,15.8,17.9C553.8,75.2,561.1,68.2,561.1,57.3z"/>
	</g>
</g>
<g class="st0">
	<g class="st1">
		<g>
			<rect x="-0.8" y="4.9" width="85" height="85"/>
			<rect x="7" y="74" class="st2" width="31.9" height="5.3"/>
		</g>
	</g>
	<g class="st1">
		<path class="st2" d="M111,4.8h38.8c10.8,0,19.1,3,24.7,8.6c4.7,4.7,7.3,11.4,7.3,19.4V33c0,13.7-7.4,22.3-18.2,26.3l20.7,30.3
			h-21.8l-18.2-27.1h-14.7v27.1H111V4.8z M148.5,46c9.1,0,14.3-4.8,14.3-12v-0.2c0-8-5.6-12.1-14.7-12.1h-18.5V46H148.5z"/>
		<path class="st2" d="M185.9,1.1h19.4v16.4h-19.4V1.1z M186.3,24.6h18.4v65h-18.4V24.6z"/>
		<path class="st2" d="M208,57.3V57c0-21.7,14.2-33.6,29.6-33.6c9.8,0,15.9,4.5,20.2,9.7v-32h18.4v88.5h-18.4v-9.3
			c-4.5,6.1-10.7,10.5-20.2,10.5C222.5,90.8,208,78.9,208,57.3z M258.1,57.3V57c0-10.8-7.2-17.9-15.8-17.9s-15.9,7-15.9,17.9v0.2
			c0,10.8,7.3,17.9,15.9,17.9C250.9,75.2,258.1,68,258.1,57.3z"/>
		<path class="st2" d="M278.5,57.5v-0.2c0-18.5,13.2-33.8,32.1-33.8c21.7,0,31.6,16.8,31.6,35.3c0,1.5-0.1,3.2-0.2,4.8h-45.2
			c1.8,8.4,7.6,12.7,15.9,12.7c6.2,0,10.7-1.9,15.8-6.7l10.5,9.3c-6.1,7.5-14.8,12.1-26.5,12.1C292.9,91.1,278.5,77.4,278.5,57.5z
			 M324.3,52c-1.1-8.2-5.9-13.8-13.7-13.8c-7.6,0-12.6,5.5-14.1,13.8H324.3z"/>
		<path class="st2" d="M344.8,24.6h18.4v13.1c3.8-9,9.8-14.8,20.7-14.3v19.3h-1c-12.2,0-19.8,7.4-19.8,22.9v24h-18.4L344.8,24.6
			L344.8,24.6z"/>
	</g>
	<g class="st1">
		<path class="st2" d="M7.1,15.1h9.7c2.7,0,4.8,0.8,6.2,2.2c1.2,1.2,1.8,2.9,1.8,4.9v0.1c0,3.4-1.9,5.6-4.6,6.6l5.2,7.6H20l-4.6-6.8
			h-3.7v6.8H7.1V15.1z M16.5,25.4c2.3,0,3.6-1.2,3.6-3v-0.1c0-2-1.4-3-3.7-3h-4.6v6.1H16.5z"/>
		<path class="st2" d="M28,15.1h8.3c6.7,0,11.3,4.6,11.3,10.6v0.1c0,6-4.6,10.6-11.3,10.6H28V15.1z M32.6,19.3v12.8h3.6
			c3.8,0,6.4-2.6,6.4-6.3v-0.1c0-3.8-2.6-6.4-6.4-6.4H32.6z"/>
	</g>
</g>
<g>
	<g>
		<path class="st2" d="M125.8,79.1l12.3-11.7c3.4,4,6.5,6.5,10.9,6.5c4.8,0,7.8-3.3,7.8-9.6V20.4h19v43.8c0,8.7-2.2,14.8-6.8,19.4
			c-4.5,4.5-11.1,7-18.9,7C138,90.8,130.7,85.7,125.8,79.1"/>
		<polygon class="st2" points="182.3,20.4 237.8,20.4 237.8,36.6 201.2,36.6 201.2,47.2 234.4,47.2 234.4,62.3 201.2,62.3 
			201.2,73.3 238.3,73.3 238.3,89.6 182.3,89.6 		"/>
		<polygon class="st2" points="260.1,37.3 239.5,37.3 239.5,20.4 300,20.4 300,37.3 279.3,37.3 279.3,89.6 260.1,89.6 		"/>
		<path class="st2" d="M303.5,20.4H339c8.7,0,14.8,2.2,18.9,6.1c2.8,2.8,4.4,6.5,4.4,11.2v0.2c0,8-4.5,12.7-10.6,15.4
			c8.4,2.8,13.7,7.5,13.7,16.8v0.2c0,11.8-9.6,19-26.2,19h-35.6L303.5,20.4L303.5,20.4z M343.4,41.8c0-3.9-3.1-6-8.7-6h-12.6V48
			h12.1c5.9,0,9.2-2,9.2-6V41.8z M336.8,61.4h-14.6v12.7H337c6,0,9.2-2.3,9.2-6.3v-0.2C346.2,63.9,343.2,61.4,336.8,61.4"/>
		<path class="st2" d="M369.2,20.4h32.7c10.6,0,17.9,2.8,22.5,7.4c4,4,6.1,9.3,6.1,16.1v0.2c0,10.6-5.6,17.7-14.2,21.3l16.5,24.2
			h-22l-13.9-21h-8.5v21h-19.2V20.4z M401.1,53.6c6.5,0,10.3-3.2,10.3-8.2v-0.2c0-5.5-4-8.3-10.4-8.3h-12.7v16.7H401.1z"/>
		<path class="st2" d="M457.9,19.9h18.4l29.5,69.7h-20.5l-4.9-12.4h-26.8l-4.9,12.4h-20L457.9,19.9z M474.6,62.3L467,42.6l-7.8,19.5
			L474.6,62.3L474.6,62.3z"/>
		<rect x="508.1" y="20.4" class="st2" width="19.2" height="69.2"/>
		<polygon class="st2" points="534.9,20.4 552.7,20.4 581.2,57 581.2,20.4 600.2,20.4 600.2,89.6 583.5,89.6 553.8,51.7 553.8,89.6 
			534.9,89.6 		"/>
		<path class="st2" d="M602.3,79.3l10.6-12.7c6.9,5.4,14.4,8.3,22.4,8.3c5.2,0,8-1.8,8-4.8v-0.2c0-2.9-2.3-4.4-11.7-6.7
			c-14.8-3.4-26.1-7.5-26.1-21.6v-0.2c0-12.8,10.1-22.1,26.7-22.1c11.7,0,21,3.2,28.4,9.2L651.1,42c-6.3-4.5-13.2-6.8-19.4-6.8
			c-4.6,0-6.9,1.8-6.9,4.4v0.2c0,3.2,2.3,4.5,12.1,6.7c15.8,3.4,25.6,8.6,25.6,21.5v0.2c0,14.1-11.1,22.5-27.9,22.5
			C622.4,90.8,610.8,86.9,602.3,79.3"/>
	</g>
	<rect x="675.1" y="71.6" class="st2" width="69.2" height="19.2"/>
</g>
</svg>
