<svg version="1.1" xmlns="http://www.w3.org/2000/svg" x="0" y="0" width="70" height="70" viewBox="0 0 70 70" xml:space="preserve"><path fill="#247CE6" d="M59.2 55L70 26.3 37.3 19 33 31.2z"/><linearGradient id="a" gradientUnits="userSpaceOnUse" x1="20.617" y1="57.755" x2="70" y2="57.755"><stop offset=".194" stop-color="#00DAF0"/><stop offset=".903" stop-color="#247CE6"/></linearGradient><path fill="url(#a)" d="M70 56.1L53.5 70 20.6 61.5 29.4 45.5z"/><linearGradient id="b" gradientUnits="userSpaceOnUse" x1="1.274" y1="17.415" x2="38.41" y2="17.415"><stop offset=".194" stop-color="#00DAF0"/><stop offset=".903" stop-color="#247CE6"/></linearGradient><path fill="url(#b)" d="M9.7 34.8L1.3 10.8 38.4 0 35.4 31z"/><linearGradient id="c" gradientUnits="userSpaceOnUse" x1="45.876" y1="72.222" x2="11.197" y2="23.824"><stop offset=".091" stop-color="#1DDF93"/><stop offset=".484" stop-color="#00DAF0"/><stop offset=".903" stop-color="#247CE6"/></linearGradient><path fill="url(#c)" d="M61.1 40.5L50.7 22.7 50.9 22.6 38.4 0 0 41.5 0 70 69.8 56.1z"/><g><path fill="#000" d="M13.4 13.4H56.6V56.6H13.4z"/><path fill="#FFF" d="M17.4 48.5H33.599999999999994V51.2H17.4z"/><path d="M24.5,19h3.6l7.6,17.9h-4.1l-1.6-4h-7.5l-1.6,4h-4L24.5,19z M28.6,29.4l-2.4-5.8l-2.4,5.8H28.6z" fill="#FFF"/><path d="M34.7,28.1L34.7,28.1c0-5.2,3.9-9.4,9.4-9.4c3.4,0,5.4,1.1,7.1,2.8l-2.5,2.9c-1.4-1.3-2.8-2-4.6-2 c-3,0-5.2,2.5-5.2,5.6V28c0,3.1,2.1,5.7,5.2,5.7c2.1,0,3.3-0.8,4.7-2.1l2.5,2.5c-1.9,2-3.9,3.2-7.4,3.2 C38.6,37.3,34.7,33.2,34.7,28.1" fill="#FFF"/></g></svg>