<?xml version="1.0" encoding="utf-8"?>
<!-- Generator: Adobe Illustrator 22.1.0, SVG Export Plug-In . SVG Version: 6.00 Build 0)  -->
<svg version="1.1" id="Layer_1" xmlns="http://www.w3.org/2000/svg" xmlns:xlink="http://www.w3.org/1999/xlink" x="0px" y="0px"
	 viewBox="0 0 518 108" style="enable-background:new 0 0 518 108;" xml:space="preserve">
<style type="text/css">
	.st0{fill:#FFFFFF;}
</style>
<g>
	<title>logos_artboards</title>
	<path class="st0" d="M36.4,3h17.2L90,88.6H70.5l-7.8-19.1H26.8L19,88.6H0L36.4,3z M56,53L44.8,25.5L33.5,53H56z"/>
	<path class="st0" d="M92.1,23.5h18.4v9.3c4.5-6.1,10.7-10.6,20.3-10.6c15.2,0,29.6,11.9,29.6,33.6v0.2c0,21.7-14.2,33.6-29.6,33.6
		c-9.8,0-15.9-4.5-20.3-9.7V108H92.1V23.5z M141.9,56.2v-0.2c0-10.8-7.3-18-15.9-18s-15.8,7.2-15.8,18v0.2c0,10.8,7.2,18,15.8,18
		S141.9,67.1,141.9,56.2L141.9,56.2z"/>
	<path class="st0" d="M162.9,23.5h18.4v9.3c4.5-6.1,10.7-10.6,20.3-10.6c15.2,0,29.6,11.9,29.6,33.6v0.2c0,21.7-14.2,33.6-29.6,33.6
		c-9.8,0-15.9-4.5-20.3-9.7V108h-18.4V23.5z M212.8,56.2v-0.2c0-10.8-7.3-18-15.9-18s-15.8,7.2-15.8,18v0.2c0,10.8,7.2,18,15.8,18
		S212.8,67.1,212.8,56.2z"/>
	<path class="st0" d="M233.9,46.4v-0.2c0-24.1,18.2-43.9,44.3-43.9c16,0,25.6,5.3,33.5,13.1L299.8,29c-6.6-5.9-13.2-9.6-21.7-9.6
		c-14.3,0-24.6,11.9-24.6,26.5v0.2c0,14.6,10.1,26.7,24.6,26.7c9.7,0,15.6-3.9,22.3-10l11.9,12c-8.7,9.3-18.4,15.2-34.8,15.2
		C252.4,90,233.9,70.7,233.9,46.4z"/>
	<path class="st0" d="M309.7,56.4v-0.2c0-18.7,15-33.9,35.3-33.9c20.1,0,35.1,14.9,35.1,33.6v0.2c0,18.7-15,33.9-35.3,33.9
		C324.6,90,309.7,75.1,309.7,56.4z M361.9,56.4v-0.2c0-9.6-6.9-18-17.1-18c-10.6,0-16.9,8.1-16.9,17.7v0.2c0,9.6,6.9,18,17.1,18
		C355.6,74.1,361.9,66,361.9,56.4z"/>
	<path class="st0" d="M382.5,56.2v-0.2c0-21.7,14.2-33.6,29.6-33.6c9.8,0,15.9,4.5,20.3,9.7V0h18.4v88.6h-18.4v-9.3
		c-4.5,6.1-10.7,10.6-20.3,10.6C396.9,89.8,382.5,77.9,382.5,56.2z M432.6,56.2v-0.2c0-10.8-7.2-18-15.8-18s-15.9,7-15.9,18v0.2
		c0,10.8,7.3,18,15.9,18C425.4,74.1,432.6,67,432.6,56.2z"/>
	<path class="st0" d="M454.2,56.4v-0.2c0-18.6,13.2-33.9,32.1-33.9c21.7,0,31.7,16.9,31.7,35.3c0,1.5-0.1,3.2-0.2,4.9h-45.3
		c1.8,8.4,7.6,12.7,15.9,12.7c6.2,0,10.7-1.9,15.8-6.7l10.6,9.3c-6.1,7.5-14.8,12.1-26.6,12.1C468.6,90,454.2,76.3,454.2,56.4z
		 M500,51c-1.1-8.3-5.9-13.8-13.7-13.8c-7.6,0-12.6,5.5-14.1,13.8L500,51z"/>
</g>
</svg>
