<?xml version="1.0" encoding="utf-8"?>
<!-- Generator: Adobe Illustrator 22.1.0, SVG Export Plug-In . SVG Version: 6.00 Build 0)  -->
<svg version="1.1" id="Layer_1" xmlns="http://www.w3.org/2000/svg" xmlns:xlink="http://www.w3.org/1999/xlink" x="0px" y="0px"
	 viewBox="0 0 70 70" style="enable-background:new 0 0 70 70;" xml:space="preserve">
<style type="text/css">
	.st0{fill:#FFFFFF;}
</style>
<g>
	<path d="M13.4,13.4h43.2v43.2H13.4V13.4z"/>
	<path class="st0" d="M17.4,48.5h16.2v2.7H17.4V48.5z"/>
	<path class="st0" d="M24.5,19h3.6l7.6,17.9h-4.1l-1.6-4h-7.5l-1.6,4h-4L24.5,19z M28.6,29.4l-2.4-5.8l-2.4,5.8
		C23.8,29.4,28.6,29.4,28.6,29.4z"/>
	<path class="st0" d="M34.7,28.1L34.7,28.1c0-5.2,3.9-9.4,9.4-9.4c3.4,0,5.4,1.1,7.1,2.8l-2.5,2.9c-1.4-1.3-2.8-2-4.6-2
		c-3,0-5.2,2.5-5.2,5.6l0,0c0,3.1,2.1,5.7,5.2,5.7c2.1,0,3.3-0.8,4.7-2.1l2.5,2.5c-1.9,2-3.9,3.2-7.4,3.2
		C38.6,37.3,34.7,33.2,34.7,28.1"/>
</g>
</svg>
