<svg version="1.1" xmlns="http://www.w3.org/2000/svg" x="0" y="0" width="70" height="70" viewBox="0 0 70 70" xml:space="preserve"><linearGradient id="a" gradientUnits="userSpaceOnUse" x1="22.254" y1="15.137" x2="45.654" y2="15.137"><stop offset="0" stop-color="#ED358C"/><stop offset=".155" stop-color="#E9388C"/><stop offset=".297" stop-color="#DE418C"/><stop offset=".433" stop-color="#CC508C"/><stop offset=".566" stop-color="#B2658D"/><stop offset=".697" stop-color="#90808D"/><stop offset=".826" stop-color="#67A18E"/><stop offset=".951" stop-color="#37C78F"/><stop offset="1" stop-color="#22D88F"/></linearGradient><path fill="url(#a)" d="M26.9 28.4L22.3 30.3 26.4 0 42.6 8.8z"/><linearGradient id="b" gradientUnits="userSpaceOnUse" x1="17.8" y1="8.982" x2="7.505" y2="78.065"><stop offset=".091" stop-color="#22D88F"/><stop offset=".903" stop-color="#029DE0"/></linearGradient><path fill="url(#b)" d="M24.3 42L26.7 0 6.5 12.7 0 51.5z"/><linearGradient id="c" gradientUnits="userSpaceOnUse" x1="63.836" y1="6.492" x2="-6.583" y2="80.865"><stop offset=".091" stop-color="#22D88F"/><stop offset=".903" stop-color="#029DE0"/></linearGradient><path fill="url(#c)" d="M68.6 21L59.6 2.7 42.6 8.8 30.1 22.7 0 51.5 22.7 68 51.2 42.3z"/><linearGradient id="d" gradientUnits="userSpaceOnUse" x1="40.114" y1="49.366" x2="66.875" y2="53.171"><stop offset=".091" stop-color="#22D88F"/><stop offset=".903" stop-color="#029DE0"/></linearGradient><path fill="url(#d)" d="M29.4 29.9L25.5 53.9 41.5 66.2 59 70 70 45z"/><g><path fill="#000" d="M13.4 13.4H56.6V56.6H13.4z"/><path fill="#FFF" d="M17.5 48.5H33.7V51.2H17.5z"/><path d="M17.2,28.1L17.2,28.1c0-5.1,3.8-9.3,9.3-9.3c3.4,0,5.4,1.1,7.1,2.8l-2.5,2.9c-1.4-1.3-2.8-2-4.6-2 c-3,0-5.2,2.5-5.2,5.6V28c0,3.1,2.1,5.6,5.2,5.6c2,0,3.3-0.8,4.7-2.1l2.5,2.5c-1.8,2-3.9,3.2-7.3,3.2 C21.1,37.3,17.2,33.2,17.2,28.1" fill="#FFF"/><path d="M36.4,19.1h3.9v14.6h7.8v3.3H36.4V19.1z" fill="#FFF"/></g></svg>