<?xml version="1.0" encoding="utf-8"?>
<!-- Generator: Adobe Illustrator 22.1.0, SVG Export Plug-In . SVG Version: 6.00 Build 0)  -->
<svg version="1.1" id="Layer_1" xmlns="http://www.w3.org/2000/svg" xmlns:xlink="http://www.w3.org/1999/xlink" x="0px" y="0px"
	 viewBox="0 0 299 90" style="enable-background:new 0 0 299 90;" xml:space="preserve">
<style type="text/css">
	.st0{fill:#FFFFFF;}
</style>
<title>logos_artboards</title>
<g>
	<path class="st0" d="M0,46.3v-0.2C0,22,18.2,2.2,44.2,2.2c16,0,25.6,5.3,33.4,13.1L65.8,29c-6.5-5.9-13.2-9.6-21.7-9.6
		c-14.3,0-24.6,11.9-24.6,26.4v0.2c0,14.6,10.1,26.7,24.6,26.7c9.7,0,15.6-3.9,22.3-9.9l11.9,12C69.5,84.2,59.8,90,43.5,90
		C18.5,90,0,70.7,0,46.3z"/>
	<path class="st0" d="M81.7,3.6h18.7v67.9h42.3v17H81.7V3.6z"/>
	<path class="st0" d="M145.2,0h19.4v16.4h-19.4V0z M145.7,23.5h18.4v65h-18.4V23.5z"/>
	<path class="st0" d="M166.5,56.4v-0.2c0-18.7,15-33.8,35.2-33.8c20.1,0,35,14.9,35,33.6v0.2c0,18.7-15,33.8-35.2,33.8
		C181.4,90,166.5,75.1,166.5,56.4z M218.6,56.4v-0.2c0-9.6-6.9-18-17.1-18c-10.5,0-16.8,8.1-16.8,17.7v0.2c0,9.6,6.9,18,17.1,18
		C212.3,74.1,218.6,66,218.6,56.4L218.6,56.4z"/>
	<path class="st0" d="M239.5,23.5h18.4v9.2c4.2-5.5,9.7-10.4,19-10.4c13.9,0,22,9.2,22,24.1v42.1h-18.4V52.3
		c0-8.7-4.1-13.2-11.1-13.2c-7,0-11.5,4.5-11.5,13.2v36.3h-18.4V23.5z"/>
</g>
</svg>
