<?xml version="1.0" encoding="utf-8"?>
<!-- Generator: Adobe Illustrator 22.1.0, SVG Export Plug-In . SVG Version: 6.00 Build 0)  -->
<svg version="1.1" id="Layer_1" xmlns="http://www.w3.org/2000/svg" xmlns:xlink="http://www.w3.org/1999/xlink" x="0px" y="0px"
	 viewBox="0 0 70 70" style="enable-background:new 0 0 70 70;" xml:space="preserve">
<style type="text/css">
	.st0{fill:#FFFFFF;}
</style>
<g>
	<path d="M13.4,13.4h43.2v43.2H13.4V13.4z"/>
	<g>
		<path class="st0" d="M17.8,19h7c5.6,0,9.5,3.9,9.5,8.9V28c0,5-3.9,8.9-9.5,8.9h-7V19z M21.7,22.6v10.8h3c3.2,0,5.4-2.2,5.4-5.3V28
			c0-3.2-2.2-5.4-5.4-5.4H21.7z"/>
		<path class="st0" d="M35,28L35,28c0-5.1,4-9.3,9.4-9.3c3.2,0,5.2,0.9,7,2.5l-2.5,3c-1.4-1.2-2.6-1.8-4.7-1.8
			c-2.9,0-5.1,2.5-5.1,5.6v0c0,3.3,2.2,5.7,5.4,5.7c1.4,0,2.7-0.4,3.7-1.1V30h-4v-3.4H52v7.8c-1.8,1.6-4.4,2.8-7.6,2.8
			C38.8,37.2,35,33.3,35,28z"/>
	</g>
	<path class="st0" d="M17.4,48.5h16.2v2.7H17.4V48.5z"/>
</g>
</svg>
