<svg version="1" xmlns="http://www.w3.org/2000/svg" x="0" y="0" width="70" height="70" viewBox="0 0 70 70" xml:space="preserve"><path fill="#9775F8" d="M65.5 10.9L70 39.5 53 49.4 49.8 33.2z"/><linearGradient id="a" gradientUnits="userSpaceOnUse" x1="41.069" y1="54.357" x2="46.521" y2="67.944" gradientTransform="matrix(1 0 0 -1 0 72)"><stop offset="0" stop-color="#9775F8"/><stop offset=".952" stop-color="#22D88F"/></linearGradient><path fill="url(#a)" d="M65.5 10.9L40.5 0 19.4 17.5 49.8 33.2z"/><linearGradient id="b" gradientUnits="userSpaceOnUse" x1="17.067" y1="35.739" x2="24.146" y2="4.895" gradientTransform="matrix(1 0 0 -1 0 72)"><stop offset="0" stop-color="#9775F8"/><stop offset=".214" stop-color="#689CCE"/><stop offset=".423" stop-color="#42BDAC"/><stop offset=".59" stop-color="#2BD197"/><stop offset=".694" stop-color="#22D88F"/></linearGradient><path fill="url(#b)" d="M47.3 70L18 30.6 9.3 36.4 0.6 62.5z"/><linearGradient id="c" gradientUnits="userSpaceOnUse" x1="4.9" y1="37.969" x2="66.239" y2="4.102" gradientTransform="matrix(1 0 0 -1 0 72)"><stop offset=".075" stop-color="#22D88F"/><stop offset=".72" stop-color="#9775F8"/></linearGradient><path fill="url(#c)" d="M52.8 50.1L32.3 36.6 0 32.3 47.3 70z"/><linearGradient id="d" gradientUnits="userSpaceOnUse" x1="0" y1="45.15" x2="61.646" y2="45.15" gradientTransform="matrix(1 0 0 -1 0 72)"><stop offset=".075" stop-color="#22D88F"/><stop offset=".266" stop-color="#5AB0B4"/><stop offset=".565" stop-color="#B86CF2"/><stop offset="1" stop-color="#FF59E6"/></linearGradient><path fill="url(#d)" d="M0 0.5L0 32.3 60.8 53.2 65.5 10.9z"/><g><path d="M13.4 13.4H56.6V56.6H13.4z"/><g fill="#FFF"><path d="M17.8,19h7c5.6,0,9.5,3.9,9.5,8.9V28c0,5-3.9,8.9-9.5,8.9h-7V19z M21.7,22.6v10.8h3 c3.2,0,5.4-2.2,5.4-5.3V28c0-3.2-2.2-5.4-5.4-5.4H21.7z"/><path d="M35,28L35,28c0-5.1,4-9.3,9.4-9.3c3.2,0,5.2,0.9,7,2.5l-2.5,3c-1.4-1.2-2.6-1.8-4.7-1.8 c-2.9,0-5.1,2.5-5.1,5.6V28c0,3.3,2.2,5.7,5.4,5.7c1.4,0,2.7-0.4,3.7-1.1V30h-4v-3.4H52v7.8c-1.8,1.6-4.4,2.8-7.6,2.8 C38.8,37.2,35,33.3,35,28z"/></g><path fill="#FFF" d="M17.4 48.5H33.599999999999994V51.2H17.4z"/></g></svg>