<svg version="1.1" xmlns="http://www.w3.org/2000/svg" x="0" y="0" width="70" height="70" viewBox="0 0 70 70" xml:space="preserve"><linearGradient id="a" gradientUnits="userSpaceOnUse" x1="37.049" y1="55.637" x2="23.558" y2="5.422"><stop offset=".048" stop-color="#7866FF"/><stop offset=".135" stop-color="#8265FA"/><stop offset=".281" stop-color="#9C64EE"/><stop offset=".467" stop-color="#C661D9"/><stop offset=".608" stop-color="#EB5FC7"/><stop offset=".729" stop-color="#FA6398"/><stop offset=".769" stop-color="#FF6488"/><stop offset=".995" stop-color="#FF7500"/></linearGradient><path fill="url(#a)" d="M42.8 0L0 4.8 0 26.8 10.7 62.6 64.6 48.9z"/><linearGradient id="b" gradientUnits="userSpaceOnUse" x1="69.11" y1="50.451" x2="57.169" y2="46.132"><stop offset=".247" stop-color="#7866FF"/><stop offset=".346" stop-color="#8F5FFA"/><stop offset=".531" stop-color="#B353F1"/><stop offset=".705" stop-color="#CD4AEB"/><stop offset=".859" stop-color="#DD45E7"/><stop offset=".979" stop-color="#E343E6"/></linearGradient><path fill="url(#b)" d="M70 41.3L65.9 22.2 56.7 34.9 50.3 54.2 48.2 70 64 60z"/><linearGradient id="c" gradientUnits="userSpaceOnUse" x1="57.012" y1="46.84" x2="23.73" y2="32.867"><stop offset=".006" stop-color="#E343E6"/><stop offset=".064" stop-color="#E649CA"/><stop offset=".19" stop-color="#EF5982"/><stop offset=".372" stop-color="#FD7110"/><stop offset=".398" stop-color="#FF7500"/></linearGradient><path fill="url(#c)" d="M65.9 22.2L52.5 15.8 36.8 17.2 21.4 27.9 18.3 47.1 31.8 65.5 48.2 70z"/><g><path fill="#000" d="M13.4 13.4H56.6V56.6H13.4z"/><g fill="#FFF"><path d="M17.5,19.1h7c5.6,0,9.5,3.9,9.5,8.9v0.1c0,5-3.9,8.9-9.5,8.9h-7V19.1z M21.4,22.7v10.8h3 c3.2,0,5.4-2.2,5.4-5.3v-0.1c0-3.2-2.2-5.4-5.4-5.4H21.4z"/><path d="M17.5 48.5H33.7V51.2H17.5z"/><path d="M35.4,28.1L35.4,28.1c0-5.1,3.8-9.3,9.3-9.3c3.4,0,5.4,1.1,7.1,2.8l-2.5,2.9c-1.4-1.3-2.8-2-4.6-2 c-3,0-5.2,2.5-5.2,5.6v0.1c0,3.1,2.1,5.6,5.2,5.6c2,0,3.3-0.8,4.7-2.1l2.5,2.5c-1.8,2-3.9,3.2-7.3,3.2 C39.4,37.3,35.4,33.3,35.4,28.1"/></g></g></svg>