<?xml version="1.0" encoding="utf-8"?>
<!-- Generator: Adobe Illustrator 22.1.0, SVG Export Plug-In . SVG Version: 6.00 Build 0)  -->
<svg version="1.1" id="Layer_1" xmlns="http://www.w3.org/2000/svg" xmlns:xlink="http://www.w3.org/1999/xlink" x="0px" y="0px"
	 viewBox="0 0 490 90" style="enable-background:new 0 0 490 90;" xml:space="preserve">
<style type="text/css">
	.st0{fill:#FFFFFF;}
</style>
<title>logos_artboards</title>
<g>
	<path class="st0" d="M0,56.2v-0.2c0-21.7,14.2-33.6,29.6-33.6c9.8,0,15.9,4.5,20.3,9.7V0h18.5v88.5H49.9v-9.3
		c-4.5,6.1-10.7,10.6-20.3,10.6C14.5,89.8,0,77.9,0,56.2z M50.2,56.2v-0.2c0-10.8-7.2-18-15.8-18s-15.9,7-15.9,18v0.2
		c0,10.8,7.3,18,15.9,18S50.2,67,50.2,56.2z"/>
	<path class="st0" d="M70.3,56.4v-0.2c0-18.7,15.1-33.8,35.3-33.8c20.2,0,35.1,14.9,35.1,33.6v0.2c0,18.7-15.1,33.8-35.3,33.8
		C85.2,90,70.3,75.1,70.3,56.4z M122.5,56.4v-0.2c0-9.6-6.9-18-17.1-18c-10.6,0-16.9,8.1-16.9,17.7v0.2c0,9.6,6.9,18,17.1,18
		C116.2,74.1,122.5,66,122.5,56.4z"/>
	<path class="st0" d="M147.2,70.1V39.3h-7.8V23.5h7.8V6.9h18.5v16.6h15.3v15.8h-15.3v27.8c0,4.2,1.8,6.3,6,6.3
		c3.2,0,6.3-0.8,9.1-2.3v14.8c-4.4,2.6-9.5,3.9-14.6,3.8C154.8,89.6,147.2,85.1,147.2,70.1z"/>
	<path class="st0" d="M183.2,46.3v-0.2c0-24.1,18.2-43.9,44.3-43.9c16,0,25.6,5.3,33.5,13.1L249.2,29c-6.6-5.9-13.2-9.6-21.7-9.6
		c-14.3,0-24.7,11.9-24.7,26.4v0.2c0,14.6,10.1,26.7,24.7,26.7c9.7,0,15.7-3.9,22.3-9.9l11.9,12C253,84.2,243.2,90,226.8,90
		C201.8,90,183.2,70.7,183.2,46.3z"/>
	<path class="st0" d="M259,56.4v-0.2c0-18.7,15.1-33.8,35.3-33.8c20.2,0,35.1,14.9,35.1,33.6v0.2c0,18.7-15.1,33.8-35.3,33.8
		C274,90,259,75.1,259,56.4z M311.2,56.4v-0.2c0-9.6-6.9-18-17.1-18c-10.6,0-16.9,8.1-16.9,17.7v0.2c0,9.6,6.9,18,17.1,18
		C304.9,74.1,311.2,66,311.2,56.4z"/>
	<path class="st0" d="M322.7,23.5h19.6l14.6,43.5l14.7-43.5h19.2L365,89h-16.8L322.7,23.5z"/>
	<path class="st0" d="M384.1,56.4v-0.2c0-18.6,13.2-33.8,32.2-33.8c21.7,0,31.7,16.9,31.7,35.3c0,1.5-0.1,3.2-0.2,4.9h-45.3
		c1.8,8.4,7.7,12.7,15.9,12.7c6.2,0,10.7-1.9,15.8-6.7l10.6,9.3c-6.1,7.5-14.8,12.1-26.6,12.1C398.6,90,384.1,76.3,384.1,56.4z
		 M430,50.9c-1.1-8.2-6-13.8-13.7-13.8c-7.7,0-12.6,5.5-14.1,13.8H430z"/>
	<path class="st0" d="M450.8,23.5h18.5v13.1c3.8-9,9.8-14.8,20.8-14.3v19.3h-1c-12.3,0-19.8,7.4-19.8,22.9v24h-18.5V23.5z"/>
</g>
</svg>
