<?xml version="1.0" encoding="utf-8"?>
<!-- Generator: Adobe Illustrator 22.1.0, SVG Export Plug-In . SVG Version: 6.00 Build 0)  -->
<svg version="1.1" id="Layer_1" xmlns="http://www.w3.org/2000/svg" xmlns:xlink="http://www.w3.org/1999/xlink" x="0px" y="0px"
	 viewBox="0 0 70 70" style="enable-background:new 0 0 70 70;" xml:space="preserve">
<style type="text/css">
	.st0{fill:#FFFFFF;}
</style>
<g>
	<path d="M13.4,13.4h43.2v43.2H13.4V13.4z"/>
	<path class="st0" d="M17.4,48.5h16.2v2.7H17.4V48.5z"/>
	<path class="st0" d="M17.4,19h6.9c5.6,0,9.5,3.9,9.5,8.9V28c0,5-3.9,9-9.5,9h-6.9V19z M21.3,22.6v10.8h2.9c3.2,0,5.4-2.2,5.4-5.4v0
		c0-3.2-2.2-5.4-5.4-5.4H21.3z"/>
	<path class="st0" d="M34.8,19.1h4.3l4.6,7.5l4.7-7.5h4.2v17.8h-3.9V25.2l-5,7.6h-0.1l-4.9-7.5v11.6h-3.9V19.1z"/>
</g>
</svg>
