<?xml version="1.0" encoding="utf-8"?>
<!-- Generator: Adobe Illustrator 22.1.0, SVG Export Plug-In . SVG Version: 6.00 Build 0)  -->
<svg version="1.1" id="Layer_1" xmlns="http://www.w3.org/2000/svg" xmlns:xlink="http://www.w3.org/1999/xlink" x="0px" y="0px"
	 viewBox="0 0 620 108" style="enable-background:new 0 0 620 108;" xml:space="preserve">
<style type="text/css">
	.st0{fill:#FFFFFF;}
</style>
<title>logos_artboards</title>
<g>
	<path class="st0" d="M0,56v-0.2c0-21.6,14.2-33.5,29.6-33.5c9.8,0,15.9,4.5,20.3,9.7V0h18.5v88.3H49.9V79
		c-4.5,6-10.7,10.5-20.3,10.5C14.5,89.5,0,77.6,0,56z M50.2,56v-0.2c0-10.8-7.2-17.9-15.8-17.9s-15.9,7-15.9,17.9V56
		c0,10.8,7.3,17.9,15.9,17.9S50.2,66.8,50.2,56L50.2,56z"/>
	<path class="st0" d="M70.6,56.2V56c0-18.6,15.1-33.7,35.4-33.7c20.2,0,35.1,14.9,35.1,33.5V56c0,18.6-15.1,33.7-35.4,33.7
		C85.5,89.7,70.6,74.9,70.6,56.2z M122.8,56.2V56c0-9.6-6.9-17.9-17.1-17.9c-10.6,0-16.9,8.1-16.9,17.7V56c0,9.6,6.9,17.9,17.1,17.9
		C116.5,73.9,122.8,65.8,122.8,56.2L122.8,56.2z"/>
	<path class="st0" d="M146.3,69.9V39.2h-7.8V23.5h7.8V6.9h18.5v16.6h15.3v15.7h-15.3v27.7c0,4.2,1.8,6.3,6,6.3
		c3.2,0,6.3-0.8,9.1-2.3v14.8c-4.4,2.6-9.5,3.9-14.6,3.7C153.9,89.4,146.3,84.9,146.3,69.9z"/>
	<path class="st0" d="M183.7,3.6h20.2l22.4,35.8l22.4-35.8h20.2v84.7h-18.6V33l-23.9,36.2h-0.5L202,33.4v54.9h-18.3V3.6z"/>
	<path class="st0" d="M271.3,56.2V56c0-18.5,13.2-33.7,32.2-33.7c21.7,0,31.7,16.8,31.7,35.2c0,1.5-0.1,3.1-0.2,4.8h-45.3
		c1.8,8.3,7.7,12.7,15.9,12.7c6.2,0,10.7-1.9,15.8-6.7l10.6,9.3c-6.1,7.5-14.8,12.1-26.6,12.1C285.8,89.7,271.3,76.1,271.3,56.2z
		 M317.2,50.8c-1.1-8.2-6-13.8-13.7-13.8c-7.7,0-12.6,5.4-14.1,13.8H317.2z"/>
	<path class="st0" d="M337.5,23.5H356v9.2c4.3-5.4,9.8-10.4,19.2-10.4c8.5,0,14.9,3.7,18.3,10.3c5.7-6.7,12.5-10.3,21.4-10.3
		c13.7,0,22,8.2,22,23.8v42.2h-18.5V52.1c0-8.7-3.9-13.2-10.8-13.2s-11.2,4.5-11.2,13.2v36.2H378V52.1c0-8.7-3.9-13.2-10.8-13.2
		S356,43.4,356,52.1v36.2h-18.5V23.5z"/>
	<path class="st0" d="M438.4,56.2V56c0-18.6,15.1-33.7,35.4-33.7c20.2,0,35.1,14.9,35.1,33.5V56c0,18.6-15.1,33.7-35.4,33.7
		C453.3,89.7,438.4,74.9,438.4,56.2z M490.6,56.2V56c0-9.6-6.9-17.9-17.1-17.9c-10.6,0-16.9,8.1-16.9,17.7V56
		c0,9.6,6.9,17.9,17.1,17.9C484.3,73.9,490.6,65.8,490.6,56.2z"/>
	<path class="st0" d="M511,23.5h18.5v13.1c3.8-8.9,9.8-14.8,20.8-14.3v19.2h-1c-12.3,0-19.8,7.4-19.8,22.9v23.9H511V23.5z"/>
	<path class="st0" d="M600.8,23.5H620l-25,66.4c-5,13.2-10.3,18.1-21.4,18.1c-5.8,0.1-11.5-1.5-16.4-4.5l6.2-13.3
		c2.4,1.5,5.1,2.4,7.9,2.5c3.2,0,4.9-1,6.4-4.2l-25.5-65.1h19.6l14.8,44.1L600.8,23.5z"/>
</g>
</svg>
