<?xml version="1.0" encoding="utf-8"?>
<!-- Generator: Adobe Illustrator 22.1.0, SVG Export Plug-In . SVG Version: 6.00 Build 0)  -->
<svg version="1.1" id="Layer_1" xmlns="http://www.w3.org/2000/svg" xmlns:xlink="http://www.w3.org/1999/xlink" x="0px" y="0px"
	 viewBox="0 0 444 90" style="enable-background:new 0 0 444 90;" xml:space="preserve">
<style type="text/css">
	.st0{fill:#FFFFFF;}
</style>
<title>logos_artboards</title>
<g>
	<path class="st0" d="M0,56.2v-0.2c0-21.7,14.2-33.6,29.7-33.6c9.8,0,15.9,4.5,20.3,9.7V0h18.5v88.5H50v-9.3
		c-4.5,6.1-10.7,10.6-20.3,10.6C14.5,89.8,0,77.9,0,56.2z M50.2,56.2v-0.2c0-10.8-7.2-18-15.8-18s-15.9,7-15.9,18v0.2
		c0,10.8,7.3,18,15.9,18S50.2,67,50.2,56.2L50.2,56.2z"/>
	<path class="st0" d="M70.6,56.4v-0.2c0-18.7,15.1-33.8,35.4-33.8c20.2,0,35.1,14.9,35.1,33.6v0.2c0,18.7-15.1,33.8-35.4,33.8
		C85.6,90,70.6,75.1,70.6,56.4z M122.9,56.4v-0.2c0-9.6-6.9-18-17.1-18c-10.6,0-16.9,8.1-16.9,17.7v0.2c0,9.6,6.9,18,17.1,18
		C116.6,74.1,122.9,66,122.9,56.4L122.9,56.4z"/>
	<path class="st0" d="M146.4,70.1V39.3h-7.8V23.5h7.8V6.9h18.5v16.6h15.3v15.8h-15.3v27.8c0,4.2,1.8,6.3,6,6.3
		c3.2,0,6.3-0.8,9.1-2.3v14.8c-4.4,2.6-9.5,3.9-14.6,3.8C154,89.6,146.4,85.1,146.4,70.1z"/>
	<path class="st0" d="M183.3,3.6h34.8c20.3,0,32.6,12,32.6,29.4v0.2c0,19.6-15.3,29.8-34.4,29.8h-14.2v25.5h-18.7V3.6z M216.9,46.5
		c9.4,0,14.8-5.6,14.8-12.9v-0.2c0-8.4-5.8-12.9-15.2-12.9h-14.5v26L216.9,46.5z"/>
	<path class="st0" d="M248.9,56.4v-0.2c0-18.6,13.3-33.8,32.2-33.8c21.8,0,31.7,16.9,31.7,35.3c0,1.5-0.1,3.2-0.2,4.9h-45.4
		c1.8,8.4,7.7,12.7,15.9,12.7c6.2,0,10.7-1.9,15.8-6.7l10.6,9.3c-6.1,7.5-14.8,12.1-26.6,12.1C263.3,90,248.9,76.3,248.9,56.4z
		 M294.8,50.9c-1.1-8.2-6-13.8-13.7-13.8c-7.7,0-12.6,5.5-14.1,13.8L294.8,50.9z"/>
	<path class="st0" d="M314.6,56.4v-0.2c0-18.6,13.3-33.8,32.2-33.8c21.8,0,31.7,16.9,31.7,35.3c0,1.5-0.1,3.2-0.2,4.9H333
		c1.8,8.4,7.7,12.7,15.9,12.7c6.2,0,10.7-1.9,15.8-6.7l10.6,9.3c-6.1,7.5-14.8,12.1-26.6,12.1C329.1,90,314.6,76.3,314.6,56.4z
		 M360.6,50.9c-1.1-8.2-6-13.8-13.7-13.8c-7.7,0-12.6,5.5-14.1,13.8H360.6z"/>
	<path class="st0" d="M380.9,0h18.5v47.2L421,23.5h22.1l-24.8,25.6L444,88.5h-21.4l-16.7-26.7l-6.6,6.9v19.8h-18.5V0z"/>
</g>
</svg>
