<?xml version="1.0" encoding="utf-8"?>
<!-- Generator: Adobe Illustrator 22.1.0, SVG Export Plug-In . SVG Version: 6.00 Build 0)  -->
<svg version="1.1" id="Layer_1" xmlns="http://www.w3.org/2000/svg" xmlns:xlink="http://www.w3.org/1999/xlink" x="0px" y="0px"
	 viewBox="0 0 461 90" style="enable-background:new 0 0 461 90;" xml:space="preserve">
<style type="text/css">
	.st0{fill:#FFFFFF;}
</style>
<title>logos_artboards</title>
<g>
	<path class="st0" d="M0,56.2v-0.2c0-21.7,14.2-33.6,29.6-33.6c9.8,0,15.9,4.5,20.3,9.7V0h18.5v88.5H49.9v-9.3
		c-4.5,6.1-10.7,10.6-20.3,10.6C14.5,89.8,0,77.9,0,56.2z M50.2,56.2v-0.2c0-10.8-7.2-18-15.8-18s-15.9,7-15.9,18v0.2
		c0,10.8,7.3,18,15.9,18S50.2,67,50.2,56.2L50.2,56.2z"/>
	<path class="st0" d="M71.5,56.4v-0.2c0-18.7,15.1-33.8,35.4-33.8c20.2,0,35.1,14.9,35.1,33.6v0.2c0,18.7-15.1,33.8-35.4,33.8
		C86.5,90,71.5,75.1,71.5,56.4z M123.8,56.4v-0.2c0-9.6-6.9-18-17.1-18c-10.6,0-16.9,8.1-16.9,17.7v0.2c0,9.6,6.9,18,17.1,18
		C117.5,74.1,123.8,66,123.8,56.4z"/>
	<path class="st0" d="M148.2,70.1V39.3h-7.8V23.5h7.8V6.9h18.5v16.6H182v15.8h-15.3v27.8c0,4.2,1.8,6.3,6,6.3c3.2,0,6.3-0.8,9.1-2.3
		v14.8c-4.4,2.6-9.5,3.9-14.6,3.8C155.9,89.6,148.2,85.1,148.2,70.1z"/>
	<path class="st0" d="M203,20.9h-25.9V3.6h70.5v17.2h-25.9v67.7H203V20.9z"/>
	<path class="st0" d="M240.9,23.5h18.5v13.1c3.8-9,9.8-14.8,20.8-14.3v19.3h-1c-12.3,0-19.8,7.4-19.8,22.9v24h-18.5V23.5z"/>
	<path class="st0" d="M277,69.9v-0.2c0-14.2,10.8-20.7,26.2-20.7c5.4,0,10.8,0.9,15.9,2.7v-1.1c0-7.6-4.7-11.9-14-11.9
		c-7,0-12,1.3-18,3.5L282.5,28c7.9-3.6,16.6-5.4,25.3-5.2c10.1,0,17.4,2.7,22,7.3c4.9,4.9,7,12,7,20.7v37.7H319v-7
		c-4.5,5-10.7,8.2-19.7,8.2C287,89.8,277,82.7,277,69.9z M319.4,65.6v-3.3c-3.7-1.6-7.7-2.5-11.8-2.4c-7.9,0-12.8,3.2-12.8,9v0.2
		c0,5,4.1,7.9,10.1,7.9C313.5,77,319.4,72.3,319.4,65.6z"/>
	<path class="st0" d="M339.8,56.4v-0.2c0-18.6,14.2-33.8,34.1-33.8c12.3,0,19.9,4.1,26,10.9l-11.3,12.1c-4.1-4.4-8.3-7.2-14.8-7.2
		c-9.2,0-15.8,8.1-15.8,17.7v0.2c0,9.9,6.4,18,16.5,18c6.2,0,10.4-2.7,14.9-6.9l10.8,10.9C393.9,85,386.7,90,373.7,90
		C354.1,90,339.8,75,339.8,56.4z"/>
	<path class="st0" d="M397.1,56.4v-0.2c0-18.6,13.2-33.8,32.2-33.8c21.7,0,31.7,16.9,31.7,35.3c0,1.5-0.1,3.2-0.2,4.9h-45.3
		c1.8,8.4,7.7,12.7,15.9,12.7c6.2,0,10.7-1.9,15.8-6.7l10.6,9.3c-6.1,7.5-14.8,12.1-26.6,12.1C411.6,90,397.1,76.3,397.1,56.4z
		 M443,50.9c-1.1-8.2-6-13.8-13.7-13.8c-7.7,0-12.6,5.5-14.1,13.8H443z"/>
</g>
</svg>
