<?xml version="1.0" encoding="utf-8"?>
<!-- Generator: Adobe Illustrator 22.1.0, SVG Export Plug-In . SVG Version: 6.00 Build 0)  -->
<svg version="1.1" id="Layer_1" xmlns="http://www.w3.org/2000/svg" xmlns:xlink="http://www.w3.org/1999/xlink" x="0px" y="0px"
	 viewBox="0 0 70 70" style="enable-background:new 0 0 70 70;" xml:space="preserve">
<style type="text/css">
	.st0{fill:#FFFFFF;}
</style>
<g>
	<path d="M13.4,13.4h43.2v43.2H13.4V13.4z"/>
	<path class="st0" d="M17.4,48.5h16.2v2.7H17.4V48.5z"/>
	<g>
		<path class="st0" d="M17.4,19.1h6.9c5.6,0,9.5,3.8,9.5,8.9l0,0c0,5-3.9,8.9-9.5,8.9h-6.9V19.1z M21.4,22.7v10.7h3
			c3.2,0,5.4-2.2,5.4-5.3V28c0-3.2-2.2-5.4-5.4-5.4h-3V22.7z"/>
		<path class="st0" d="M40.3,22.7h-5.4v-3.6h14.7v3.6h-5.4V37h-3.9V22.7z"/>
	</g>
</g>
</svg>
