<?xml version="1.0" encoding="utf-8"?>
<!-- Generator: Adobe Illustrator 22.1.0, SVG Export Plug-In . SVG Version: 6.00 Build 0)  -->
<svg version="1.1" id="Layer_1" xmlns="http://www.w3.org/2000/svg" xmlns:xlink="http://www.w3.org/1999/xlink" x="0px" y="0px"
	 viewBox="0 0 70 70" style="enable-background:new 0 0 70 70;" xml:space="preserve">
<style type="text/css">
	.st0{fill:#FFFFFF;}
</style>
<g>
	<path d="M11.7,11.5h44.1v44.1H11.7V11.5z"/>
	<path class="st0" d="M16.1,48.3h16.5V51H16.1V48.3z"/>
	<g>
		<path class="st0" d="M14.6,25.9L14.6,25.9c-0.2-5.3,4-9.8,9.3-10c0.1,0,0.2,0,0.3,0c2.6-0.1,5.2,0.8,7.1,2.6l-2.5,3.2
			c-1.3-1.3-3-2-4.8-1.9c-3.1,0.2-5.4,2.9-5.2,6v0.1c-0.3,3.1,2,5.8,5.1,6.1c0.1,0,0.3,0,0.4,0c1.3,0,2.7-0.4,3.8-1.2V28h-4v-3.6
			h7.9v8.3c-2.1,2-4.9,3-7.8,3c-5.2,0.1-9.4-4-9.6-9.1l0,0C14.6,26.4,14.6,26.1,14.6,25.9z"/>
		<path class="st0" d="M33.6,25.9L33.6,25.9c-0.1-5.4,4.1-9.8,9.4-10s9.8,4.1,9.9,9.4c0,0.2,0,0.3,0,0.5v0.1
			c0.1,5.3-4.1,9.8-9.4,9.9c-5.3,0.1-9.8-4.1-9.9-9.4l0,0C33.6,26.2,33.6,26,33.6,25.9z M48.8,25.9L48.8,25.9
			c0.2-3.2-2.2-5.9-5.3-6.1c-0.1,0-0.1,0-0.2,0c-3.1,0.1-5.5,2.6-5.5,5.7l0,0c0,0.1,0,0.2,0,0.2v0.1c-0.2,3.1,2.2,5.8,5.3,6
			c0.1,0,0.1,0,0.2,0c3.1-0.1,5.5-2.6,5.5-5.7l0,0C48.8,26,48.8,26,48.8,25.9z"/>
	</g>
</g>
</svg>
