<?xml version="1.0" encoding="utf-8"?>
<!-- Generator: Adobe Illustrator 22.1.0, SVG Export Plug-In . SVG Version: 6.00 Build 0)  -->
<svg version="1.1" id="Layer_1" xmlns="http://www.w3.org/2000/svg" xmlns:xlink="http://www.w3.org/1999/xlink" x="0px" y="0px"
	 viewBox="0 0 211 90" style="enable-background:new 0 0 211 90;" xml:space="preserve">
<style type="text/css">
	.st0{fill:#FFFFFF;}
</style>
<title>logos_artboards</title>
<g>
	<path class="st0" d="M0,3.6h18.7v33.7h34.5V3.6h18.7v85.1H53.1V54.6H18.7v34.2H0V3.6z"/>
	<path class="st0" d="M76.9,65.8V23.6h18.4V60c0,8.8,4.1,13.3,11.2,13.3c7,0,11.5-4.5,11.5-13.3V23.6h18.4v65.2h-18.4v-9.2
		C113.8,85,108.4,90,99,90C85.1,90,76.9,80.8,76.9,65.8z"/>
	<path class="st0" d="M161.1,80.3v8.5h-18.4V0h18.4v33c4.5-6.1,10.7-10.6,20.3-10.6c15.2,0,29.6,11.9,29.6,33.7v0.2
		c0,21.8-14.2,33.7-29.6,33.7C171.6,90,165.5,85.5,161.1,80.3z M192.6,56.3v-0.2c0-10.8-7.3-18-15.9-18s-15.8,7.2-15.8,18v0.2
		c0,10.8,7.2,18,15.8,18S192.6,67.3,192.6,56.3L192.6,56.3z"/>
</g>
</svg>
