<?xml version="1.0" encoding="utf-8"?>
<!-- Generator: Adobe Illustrator 22.1.0, SVG Export Plug-In . SVG Version: 6.00 Build 0)  -->
<svg version="1.1" id="Layer_1" xmlns="http://www.w3.org/2000/svg" xmlns:xlink="http://www.w3.org/1999/xlink" x="0px" y="0px"
	 viewBox="0 0 70 70" style="enable-background:new 0 0 70 70;" xml:space="preserve">
<style type="text/css">
	.st0{fill:#FFFFFF;}
</style>
<path d="M13.4,13.4h43.2v43.2H13.4V13.4z"/>
<g>
	<path class="st0" d="M17.4,19.1h4v7.2h7.4v-7.2h4v18.1h-4v-7.3h-7.4v7.3h-4V19.1z"/>
	<path class="st0" d="M35.7,19.1h8.4c2.1,0,3.7,0.6,4.7,1.6c0.8,0.8,1.2,1.8,1.2,3.1v0.1c0,2-1.1,3.2-2.4,3.9c2.1,0.8,3.4,2,3.4,4.5
		v0.1c0,3.3-2.7,5-6.8,5h-8.6V19.1H35.7z M46.2,24.4c0-1.2-0.9-1.9-2.6-1.9h-3.9v3.8h3.7C45.1,26.4,46.2,25.8,46.2,24.4L46.2,24.4z
		 M44.2,29.7h-4.6v4h4.7c1.8,0,2.8-0.6,2.8-2v-0.1C47.2,30.5,46.3,29.7,44.2,29.7z"/>
</g>
<path class="st0" d="M17.5,48.5h16.2v2.7H17.5V48.5z"/>
</svg>
