<?xml version="1.0" encoding="utf-8"?>
<!-- Generator: Adobe Illustrator 22.1.0, SVG Export Plug-In . SVG Version: 6.00 Build 0)  -->
<svg version="1.1" id="Layer_1" xmlns="http://www.w3.org/2000/svg" xmlns:xlink="http://www.w3.org/1999/xlink" x="0px" y="0px"
	 viewBox="0 0 70 70" style="enable-background:new 0 0 70 70;" xml:space="preserve">
<style type="text/css">
	.st0{fill:#FFFFFF;}
</style>
<g>
	<path d="M13.7,13.5h43.2v43.2H13.7V13.5z"/>
	<path class="st0" d="M17.7,48.6h16.2v2.7H17.7V48.6z"/>
	<path class="st0" d="M29.4,22.4v-3.3h-9v3.3H23v11.3h-2.6V37h9v-3.3h-2.5V22.4H29.4z"/>
	<path class="st0" d="M38,37.3c-1.4,0-2.6-0.3-3.5-0.8s-1.7-1.2-2.3-1.9l2.5-2.8c0.5,0.6,1,1,1.5,1.3s1.1,0.5,1.7,0.5
		c0.7,0,1.3-0.2,1.8-0.7c0.4-0.5,0.6-1.2,0.6-2.3V19.1h4v11.7c0,1.1-0.1,2-0.4,2.8c-0.3,0.8-0.7,1.4-1.3,2c-0.5,0.5-1.2,1-2,1.2
		C39.8,37.1,39,37.3,38,37.3"/>
</g>
</svg>
