<?xml version="1.0" encoding="utf-8"?>
<!-- Generator: Adobe Illustrator 22.1.0, SVG Export Plug-In . SVG Version: 6.00 Build 0)  -->
<svg version="1.1" id="Layer_1" xmlns="http://www.w3.org/2000/svg" xmlns:xlink="http://www.w3.org/1999/xlink" x="0px" y="0px"
	 viewBox="0 0 616 90" style="enable-background:new 0 0 616 90;" xml:space="preserve">
<style type="text/css">
	.st0{fill:#FFFFFF;}
</style>
<g>
	<path class="st0" d="M0,3.6h18.7v84.9H0V3.6z"/>
	<path class="st0" d="M23.7,23.5h18.4v9.2c4.2-5.5,9.7-10.4,19-10.4c13.9,0,22.1,9.2,22.1,24.1v42.1H64.8V52.3
		c0-8.7-4.1-13.2-11.2-13.2c-7,0-11.5,4.5-11.5,13.2v36.3H23.7V23.5z"/>
	<path class="st0" d="M93.1,70.1V39.3h-7.8V23.5h7.8V6.9h18.4v16.6h15.3v15.8h-15.3v27.8c0,4.2,1.8,6.3,5.9,6.3
		c3.2,0,6.3-0.8,9.1-2.3v14.8c-4.4,2.6-9.4,3.9-14.6,3.8C100.8,89.6,93.1,85.1,93.1,70.1z"/>
	<path class="st0" d="M126.4,56.4v-0.2c0-18.6,13.2-33.8,32.1-33.8c21.7,0,31.7,16.9,31.7,35.3c0,1.5-0.1,3.2-0.2,4.9h-45.2
		c1.8,8.4,7.6,12.7,15.9,12.7c6.2,0,10.7-1.9,15.8-6.7l10.6,9.3c-6.1,7.5-14.8,12.1-26.6,12.1C140.8,90,126.4,76.3,126.4,56.4z
		 M172.2,50.9c-1.1-8.2-5.9-13.8-13.7-13.8c-7.6,0-12.6,5.5-14.1,13.8L172.2,50.9z"/>
	<path class="st0" d="M193.7,0h18.4v88.5h-18.4V0z"/>
	<path class="st0" d="M216,0h18.4v88.5H216V0z"/>
	<path class="st0" d="M239,0h19.4v16.4H239V0z M239.5,23.5H258v65h-18.4V23.5z"/>
	<path class="st0" d="M259.3,77l11.8-13.1c4.9,5.3,9.6,8.5,15.5,8.5c7,0,11.4-4.2,11.4-14.1V3.6h19.2v55.6c0,10.1-2.9,17.6-8,22.7
		c-5.2,5.2-12.9,7.9-22.1,7.9C273.9,89.8,265.1,83.9,259.3,77z"/>
	<path class="st0" d="M347.7,3.6h18.7v84.9h-18.7V3.6z"/>
	<path class="st0" d="M373.1,3.6h33.1c26.7,0,45.1,18.3,45.1,42.2v0.2c0,23.9-18.4,42.5-45.1,42.5h-33.1V3.6z M391.7,20.5v51.2h14.4
		c15.3,0,25.6-10.3,25.6-25.4v-0.2c0-15-10.3-25.6-25.6-25.6L391.7,20.5z"/>
	<path class="st0" d="M455.4,3.6h64v16.6H474v17.2h40v16.6h-40v17.8h46.1v16.6h-64.6V3.6z"/>
	<path class="st0" d="M559,3h17.2l36.4,85.5h-19.5l-7.8-19h-35.9l-7.8,19h-19L559,3z M578.7,53l-11.3-27.5L556.1,53H578.7z"/>
</g>
</svg>
