<?xml version="1.0" encoding="utf-8"?>
<!-- Generator: Adobe Illustrator 22.1.0, SVG Export Plug-In . SVG Version: 6.00 Build 0)  -->
<svg version="1.1" id="Layer_1" xmlns="http://www.w3.org/2000/svg" xmlns:xlink="http://www.w3.org/1999/xlink" x="0px" y="0px"
	 viewBox="0 0 655 201" style="enable-background:new 0 0 655 201;" xml:space="preserve">
<style type="text/css">
	.st0{fill:#FFFFFF;}
</style>
<g>
	<path class="st0" d="M0,48.2h20v90.8H0V48.2z"/>
	<path class="st0" d="M25.3,69.4H45v9.9c4.5-5.8,10.4-11.2,20.4-11.2C80.3,68.1,89,78,89,93.9v45H69.3v-38.8
		c0-9.3-4.4-14.1-11.9-14.1C49.8,86,45,90.8,45,100.2v38.8H25.3V69.4z"/>
	<path class="st0" d="M99.6,119.2V86.3h-8.3V69.4h8.3V51.7h19.7v17.8h16.3v16.9h-16.3V116c0,4.5,1.9,6.7,6.4,6.7
		c3.6,0,6.9-0.9,9.7-2.5v15.8c-4.1,2.5-8.9,4-15.6,4C107.8,140.1,99.6,135.3,99.6,119.2z"/>
	<path class="st0" d="M135.1,104.6v-0.3c0-19.8,14.1-36.2,34.4-36.2c23.2,0,33.8,18,33.8,37.7c0,1.6-0.1,3.4-0.3,5.2h-48.4
		c1.9,8.9,8.2,13.6,17,13.6c6.6,0,11.4-2.1,16.9-7.1l11.3,10c-6.5,8-15.8,13-28.4,13C150.6,140.5,135.1,125.8,135.1,104.6z
		 M184.1,98.7c-1.2-8.8-6.4-14.8-14.7-14.8c-8.2,0-13.5,5.8-15,14.8H184.1z"/>
	<path class="st0" d="M207.1,44.3h19.7v94.7h-19.7V44.3z"/>
	<path class="st0" d="M231,44.3h19.7v94.7H231V44.3z"/>
	<path class="st0" d="M255.6,44.3h20.7v17.5h-20.7V44.3z M256.1,69.4h19.7v69.5h-19.7V69.4z"/>
	<path class="st0" d="M277.2,126.6l12.6-14c5.2,5.7,10.2,9.1,16.6,9.1c7.5,0,12.2-4.5,12.2-15V48.2h20.5v59.4
		c0,10.8-3.1,18.8-8.6,24.3c-5.6,5.6-13.7,8.4-23.6,8.4C292.8,140.2,283.5,134,277.2,126.6z"/>
	<path class="st0" d="M371.8,48.2h20v90.8h-20V48.2z"/>
	<path class="st0" d="M398.9,48.2h35.4c28.5,0,48.2,19.6,48.2,45.1v0.3c0,25.5-19.7,45.4-48.2,45.4h-35.4V48.2z M418.9,66.2v54.7
		h15.4c16.3,0,27.4-11,27.4-27.1v-0.3c0-16.1-11-27.4-27.4-27.4H418.9z"/>
	<path class="st0" d="M486.9,48.2h68.5v17.8h-48.6v18.4h42.8v17.8h-42.8v19.1h49.3v17.8h-69.1V48.2z"/>
	<path class="st0" d="M597.7,47.5h18.4l38.9,91.4h-20.9l-8.3-20.4h-38.4l-8.3,20.4h-20.4L597.7,47.5z M618.7,100.9l-12.1-29.4
		l-12.1,29.4H618.7z"/>
</g>
</svg>
