<?xml version="1.0" encoding="utf-8"?>
<!-- Generator: Adobe Illustrator 22.1.0, SVG Export Plug-In . SVG Version: 6.00 Build 0)  -->
<svg version="1.1" id="Layer_1" xmlns="http://www.w3.org/2000/svg" xmlns:xlink="http://www.w3.org/1999/xlink" x="0px" y="0px"
	 viewBox="0 0 600 225" style="enable-background:new 0 0 600 225;" xml:space="preserve">
<style type="text/css">
	.st0{fill:#FFFFFF;}
</style>
<g>
	<path class="st0" d="M0,3.6h18.3v83H0V3.6z"/>
	<path class="st0" d="M23.2,23h18.1v9c4.2-5.3,9.5-10.2,18.7-10.2c13.7,0,21.6,9,21.6,23.6v41.2H63.4V51.1c0-8.5-4-12.9-10.9-12.9
		c-6.9,0-11.3,4.4-11.3,12.9v35.5H23.2V23z"/>
	<path class="st0" d="M91.2,68.6V38.4h-7.6V23h7.6V6.8h18.1V23h15v15.4h-15v27.2c0,4.2,1.8,6.2,5.8,6.2c3.3,0,6.3-0.8,8.9-2.3V84
		c-3.8,2.3-8.2,3.7-14.3,3.7C98.7,87.6,91.2,83.3,91.2,68.6z"/>
	<path class="st0" d="M123.8,55.1v-0.2c0-18.1,12.9-33.1,31.5-33.1c21.3,0,31,16.5,31,34.5c0,1.4-0.1,3.1-0.2,4.7h-44.3
		c1.8,8.2,7.5,12.5,15.6,12.5c6.1,0,10.5-1.9,15.4-6.5l10.3,9.1c-5.9,7.4-14.5,11.9-26,11.9C137.9,88,123.8,74.6,123.8,55.1z
		 M168.7,49.8c-1.1-8.1-5.8-13.5-13.4-13.5c-7.5,0-12.4,5.3-13.8,13.5H168.7z"/>
	<path class="st0" d="M189.7,0h18.1v86.6h-18.1V0z"/>
	<path class="st0" d="M211.6,0h18.1v86.6h-18.1V0z"/>
	<path class="st0" d="M234.1,0h19v16h-19V0z M234.6,23h18.1v63.6h-18.1V23z"/>
	<path class="st0" d="M254,75.3l11.5-12.8c4.8,5.2,9.4,8.3,15.2,8.3c6.9,0,11.2-4.2,11.2-13.8V3.6h18.8v54.3
		c0,9.8-2.9,17.2-7.8,22.2c-5.1,5.1-12.6,7.7-21.6,7.7C268.2,87.8,259.7,82.1,254,75.3z"/>
	<path class="st0" d="M340.6,3.6h18.3v83h-18.3V3.6z"/>
	<path class="st0" d="M365.4,3.6h32.4C424,3.6,442,21.5,442,44.8v0.2c0,23.4-18.1,41.5-44.2,41.5h-32.4V3.6z M383.7,20v50h14.1
		c15,0,25.1-10.1,25.1-24.8v-0.2c0-14.7-10.1-25-25.1-25H383.7z"/>
	<path class="st0" d="M446,3.6h62.7v16.2h-44.5v16.8h39.2v16.2h-39.2v17.4h45.1v16.2H446V3.6z"/>
	<path class="st0" d="M547.5,3h16.9L600,86.6h-19.1L573.3,68h-35.2l-7.6,18.6h-18.7L547.5,3z M566.7,51.8l-11-26.9l-11,26.9H566.7z"
		/>
</g>
</svg>
