<?xml version="1.0" encoding="utf-8"?>
<!-- Generator: Adobe Illustrator 22.1.0, SVG Export Plug-In . SVG Version: 6.00 Build 0)  -->
<svg version="1.1" id="Layer_1" xmlns="http://www.w3.org/2000/svg" xmlns:xlink="http://www.w3.org/1999/xlink" x="0px" y="0px"
	 viewBox="0 0 64 64" style="enable-background:new 0 0 64 64;" xml:space="preserve">
<style type="text/css">
	.st0{fill:#FFFFFF;}
</style>
<title>IntelliJIDEA_comm_64</title>
<g>
	<path d="M12,12h40v40H12V12z"/>
	<path class="st0" d="M15.8,44.4h15V47h-15V44.4z"/>
	<path class="st0" d="M26.6,20.2v-3h-8.4v3h2.4v10.6h-2.4v3h8.4v-3h-2.4V20.2H26.6z"/>
	<path class="st0" d="M34.4,34c-1.1,0.1-2.2-0.2-3.2-0.8c-0.9-0.4-1.6-1-2.2-1.8l2.2-2.6c0.7,1,1.8,1.6,3,1.6c0.6,0,1.2-0.2,1.6-0.6
		c0.4-0.6,0.6-1.3,0.6-2V17.2h3.8V28c0,0.9-0.2,1.8-0.4,2.6c-0.2,0.7-0.6,1.4-1.2,1.8c-0.6,0.5-1.2,0.9-1.8,1.2
		C36.1,34,35.2,34.1,34.4,34"/>
</g>
</svg>
