<?xml version="1.0" encoding="utf-8"?>
<!-- Generator: Adobe Illustrator 22.1.0, SVG Export Plug-In . SVG Version: 6.00 Build 0)  -->
<svg version="1.1" id="Layer_1" xmlns="http://www.w3.org/2000/svg" xmlns:xlink="http://www.w3.org/1999/xlink" x="0px" y="0px"
	 viewBox="0 0 70 70" style="enable-background:new 0 0 70 70;" xml:space="preserve">
<style type="text/css">
	.st0{fill:#FFFFFF;}
</style>
<g>
	<path d="M8.4,8.4h53.1v53.1H8.4V8.4z"/>
	<path class="st0" d="M13,51.6h19.9v3.3H13V51.6z"/>
	<path class="st0" d="M12.8,22.4l1.5-1.5c0.4,0.5,0.8,0.8,1.4,0.8c0.6,0,1-0.4,1-1.2v-5.5h2.4v5.5c0,1.1-0.3,1.9-0.9,2.4
		c-0.6,0.6-1.4,0.9-2.4,0.9C14.3,23.9,13.4,23.3,12.8,22.4z"/>
	<path class="st0" d="M19.6,15.1h7v2H22v1.3h4.2v1.9H22v1.4h4.6v2h-7V15.1z"/>
	<path class="st0" d="M29.7,17.2h-2.6v-2.1h7.6v2.1h-2.6v6.6h-2.4V17.2z"/>
	<path class="st0" d="M19,29.9c0.8-0.3,1.3-0.9,1.3-1.9v0c0-0.5-0.2-1-0.6-1.4c-0.5-0.5-1.3-0.8-2.4-0.8H13v8.7h4.5
		c2.1,0,3.3-0.9,3.3-2.4v0C20.8,30.8,20.1,30.2,19,29.9z M15.4,27.7h1.6c0.7,0,1.1,0.3,1.1,0.7v0c0,0.5-0.4,0.8-1.1,0.8h-1.5
		L15.4,27.7L15.4,27.7z M18.4,31.7c0,0.5-0.4,0.8-1.1,0.8h-1.9v-1.6h1.8C18,30.9,18.4,31.2,18.4,31.7L18.4,31.7L18.4,31.7z"/>
	<path class="st0" d="M33.9,25.7h-2.3l-3.2,7.7l-1.4-2c1.1-0.5,1.8-1.3,1.8-2.7v0c0-0.9-0.3-1.5-0.8-2c-0.6-0.6-1.5-0.9-2.8-0.9
		h-4.1v8.7h2.4v-2.6h1.1l1.7,2.6h4.1l0.6-1.6h3.4l0.6,1.6h2.6L33.9,25.7z M26.4,28.9c0,0.6-0.5,1-1.3,1h-1.6v-2.1h1.6
		C25.9,27.8,26.4,28.2,26.4,28.9L26.4,28.9L26.4,28.9z M31.8,31l1-2.4l1,2.4H31.8z"/>
	<path class="st0" d="M37.9,25.8h2.4v8.7h-2.4V25.8z"/>
	<path class="st0" d="M40.9,25.8h2.2l3.6,4.6v-4.6h2.4v8.7H47l-3.7-4.7v4.7h-2.4V25.8z"/>
	<path class="st0" d="M49.2,33.1l1.3-1.6c0.9,0.7,1.8,1,2.8,1c0.7,0,1-0.2,1-0.6v0c0-0.4-0.3-0.6-1.5-0.8c-1.8-0.4-3.3-0.9-3.3-2.7
		v0c0-1.6,1.3-2.8,3.4-2.8c1.5,0,2.6,0.4,3.6,1.1l-1.2,1.7c-0.8-0.6-1.7-0.9-2.4-0.9c-0.6,0-0.9,0.2-0.9,0.6v0
		c0,0.4,0.3,0.6,1.5,0.8c2,0.4,3.2,1.1,3.2,2.7v0c0,1.8-1.4,2.8-3.5,2.8C51.7,34.6,50.3,34.1,49.2,33.1z"/>
</g>
</svg>
