<?xml version="1.0" encoding="utf-8"?>
<!-- Generator: Adobe Illustrator 22.1.0, SVG Export Plug-In . SVG Version: 6.00 Build 0)  -->
<svg version="1.1" id="Layer_1" xmlns="http://www.w3.org/2000/svg" xmlns:xlink="http://www.w3.org/1999/xlink" x="0px" y="0px"
	 viewBox="0 0 144.2 121.9" style="enable-background:new 0 0 144.2 121.9;" xml:space="preserve">
<style type="text/css">
	.st0{fill:url(#SVGID_1_);}
	.st1{fill:url(#SVGID_2_);}
	.st2{fill:url(#SVGID_3_);}
	.st3{fill:#FFFFFF;}
</style>
<g>
	<linearGradient id="SVGID_1_" gradientUnits="userSpaceOnUse" x1="5.6484" y1="7.466" x2="76.6608" y2="55.0248">
		<stop  offset="0" style="stop-color:#AA4A9B"/>
		<stop  offset="1" style="stop-color:#F05922"/>
	</linearGradient>
	<path class="st0" d="M82.1,58.2L19.5,3.7c-1.9-1.8-4.5-3-7.3-3.1C6.1,0.5,1,5.3,0.9,11.3c-0.1,4.3,2.3,8.1,5.8,10l70.4,43.7
		c0.1,0.1,0.2,0.1,0.3,0.2c2.1,1.1,4.6,0.4,5.8-1.6C84.3,61.8,83.8,59.5,82.1,58.2z"/>
	<g>
		<linearGradient id="SVGID_2_" gradientUnits="userSpaceOnUse" x1="26.3938" y1="121.7824" x2="140.4234" y2="60.8928">
			<stop  offset="0" style="stop-color:#FFE42E"/>
			<stop  offset="1" style="stop-color:#ED417C"/>
		</linearGradient>
		<path class="st1" d="M143.5,66.9c-0.3-8.6-7.6-15.3-16.2-14.9c-2.7,0.1-5.3,0.9-7.5,2.2L29.2,106c0,0-0.1,0-0.1,0.1
			c-3,1.2-5,4.2-4.9,7.6c0.2,4.4,3.8,7.8,8.2,7.6c1,0,2-0.3,2.9-0.7L133.8,82c0,0,0.1,0,0.2-0.1C139.8,79.4,143.8,73.6,143.5,66.9z"
			/>
	</g>
	<linearGradient id="SVGID_3_" gradientUnits="userSpaceOnUse" x1="29.8678" y1="116.6041" x2="70.7085" y2="56.8017">
		<stop  offset="0" style="stop-color:#FFE42E"/>
		<stop  offset="1" style="stop-color:#F05922"/>
	</linearGradient>
	<path class="st2" d="M69.2,64.6c1.1-2.1,0.3-4.7-1.8-5.7c-1.9-1-4.2-0.4-5.4,1.3l-36.4,48.8c0,0,0,0.1-0.1,0.2
		c-1.8,2.7-1.8,6.3,0.3,9c2.6,3.5,7.5,4.2,11,1.7c1-0.8,1.8-1.8,2.4-2.8L68.9,65C69,64.9,69.1,64.7,69.2,64.6z"/>
	<g>
		<rect x="46.4" y="36.3" width="51" height="51"/>
		<rect x="50.8" y="77.7" class="st3" width="19.1" height="3.2"/>
		<g>
			<path class="st3" d="M50.6,49.7l1.5-1.4c0.4,0.5,0.8,0.8,1.3,0.8c0.6,0,0.9-0.4,0.9-1.2v-5.3h2.3v5.3c0,1-0.3,1.8-0.8,2.3
				c-0.5,0.5-1.3,0.8-2.3,0.8C52,51.1,51.1,50.5,50.6,49.7z"/>
			<path class="st3" d="M57.1,42.7h6.7v1.9h-4.4v1.3h4v1.8h-4V49h4.5v2h-6.7V42.7z"/>
			<path class="st3" d="M66.8,44.7h-2.5v-2h7.3v2h-2.5V51h-2.3V44.7z"/>
			<path class="st3" d="M50.8,52.9H55c1,0,1.8,0.3,2.3,0.7c0.3,0.3,0.5,0.8,0.5,1.4v0c0,1-0.5,1.5-1.3,1.9c1,0.3,1.7,0.9,1.7,2v0
				c0,1.4-1.2,2.3-3.1,2.3h-4.3V52.9z M55.6,55.5c0-0.5-0.4-0.7-1-0.7H53v1.5h1.4C55.2,56.2,55.6,56,55.6,55.5L55.6,55.5z
				 M54.8,57.9H53v1.5h1.8c0.7,0,1.1-0.3,1.1-0.8v0C55.9,58.2,55.5,57.9,54.8,57.9z"/>
			<path class="st3" d="M58.5,52.9h3.9c1.3,0,2.2,0.3,2.7,0.9c0.5,0.5,0.7,1.1,0.7,1.9v0c0,1.3-0.7,2.1-1.7,2.6l2,2.9h-2.6l-1.7-2.5
				h-1v2.5h-2.3V52.9z M62.4,56.9c0.8,0,1.2-0.4,1.2-1v0c0-0.7-0.5-1-1.2-1h-1.5v2H62.4z"/>
			<path class="st3" d="M68.6,52.9h2.2l3.5,8.4h-2.5l-0.6-1.5h-3.2l-0.6,1.5h-2.4L68.6,52.9z M70.6,58l-0.9-2.4L68.8,58H70.6z"/>
			<path class="st3" d="M74.7,52.9H77v8.3h-2.3V52.9z"/>
			<path class="st3" d="M77.5,52.9h2.2l3.4,4.4v-4.4h2.3v8.3h-2l-3.6-4.6v4.6h-2.3V52.9z"/>
			<path class="st3" d="M85.5,60l1.3-1.5c0.8,0.7,1.7,1,2.7,1c0.6,0,1-0.2,1-0.6v0c0-0.4-0.3-0.5-1.4-0.8c-1.8-0.4-3.1-0.9-3.1-2.6
				v0c0-1.5,1.2-2.7,3.2-2.7c1.4,0,2.5,0.4,3.4,1.1l-1.2,1.6c-0.8-0.5-1.6-0.8-2.3-0.8c-0.6,0-0.8,0.2-0.8,0.5v0
				c0,0.4,0.3,0.5,1.4,0.8c1.9,0.4,3.1,1,3.1,2.6v0c0,1.7-1.3,2.7-3.4,2.7C88,61.4,86.6,60.9,85.5,60z"/>
		</g>
	</g>
</g>
</svg>
