<?xml version="1.0" encoding="utf-8"?>
<!-- Generator: Adobe Illustrator 22.1.0, SVG Export Plug-In . SVG Version: 6.00 Build 0)  -->
<svg version="1.1" id="Layer_1" xmlns="http://www.w3.org/2000/svg" xmlns:xlink="http://www.w3.org/1999/xlink" x="0px" y="0px"
	 viewBox="0 0 200 77" style="enable-background:new 0 0 200 77;" xml:space="preserve">
<style type="text/css">
	.st0{fill:#FFFFFF;}
</style>
<title>logos_artboards</title>
<g id="_Group_">
	<path id="_Compound_Path_" class="st0" d="M0,1.1h17.9l19.9,31.7L57.7,1.1h17.9v74.9H59.1V27.1L37.8,59h-0.4L16.3,27.4v48.5H0V1.1z
		"/>
	<path id="_Compound_Path_2" class="st0" d="M81.1,1.1H112c18,0,29,10.6,29,25.9v0.2c0,17.3-13.6,26.3-30.6,26.3H97.7v22.5H81.1V1.1
		z M110.9,38.8c8.3,0,13.2-4.9,13.2-11.3v-0.2c0-7.4-5.2-11.3-13.5-11.3H97.7v22.9H110.9z"/>
	<path id="_Compound_Path_3" class="st0" d="M140.1,65l9.8-11.7c6.8,5.6,13.9,9.1,22.6,9.1c6.8,0,10.9-2.7,10.9-7.1v-0.2
		c0-4.2-2.6-6.3-15.2-9.5c-15.2-3.9-25.1-8-25.1-22.9v-0.2C143.2,9,154.2,0,169.6,0c10.2-0.2,20.1,3.2,28.1,9.5l-8.6,12.4
		c-6.7-4.6-13.3-7.4-19.7-7.4c-6.4,0-9.7,2.9-9.7,6.5v0.2c0,4.9,3.2,6.5,16.3,9.8c15.3,4,24,9.4,24,22.5v0.2
		c0,14.9-11.5,23.2-27.8,23.2C160.4,77,149,72.8,140.1,65z"/>
</g>
</svg>
