<?xml version="1.0" encoding="utf-8"?>
<!-- Generator: Adobe Illustrator 22.1.0, SVG Export Plug-In . SVG Version: 6.00 Build 0)  -->
<svg version="1.1" id="Layer_1" xmlns="http://www.w3.org/2000/svg" xmlns:xlink="http://www.w3.org/1999/xlink" x="0px" y="0px"
	 viewBox="0 0 518 108" style="enable-background:new 0 0 518 108;" xml:space="preserve">
<style type="text/css">
	.st0{fill:#FFFFFF;}
</style>
<g>
	<path class="st0" d="M0,3.6h34.8c20.3,0,32.6,12,32.6,29.4v0.2c0,19.7-15.3,29.9-34.4,29.9H18.7v25.5H0V3.6z M33.5,46.5
		c9.4,0,14.8-5.6,14.8-12.9v-0.2c0-8.4-5.8-12.9-15.2-12.9H18.7v26L33.5,46.5z"/>
	<path class="st0" d="M70.6,0h18.5v32.8c4.3-5.5,9.7-10.4,19.1-10.4c14,0,22.1,9.2,22.1,24.1v42.1h-18.5V52.3
		c0-8.7-4.1-13.2-11.2-13.2c-7,0-11.5,4.5-11.5,13.2v36.3H70.6V0z"/>
	<path class="st0" d="M134.2,23.5h18.5v9.3c4.5-6.1,10.7-10.6,20.3-10.6c15.2,0,29.7,11.9,29.7,33.6v0.2c0,21.7-14.2,33.6-29.7,33.6
		c-9.8,0-15.9-4.5-20.3-9.7V108h-18.5V23.5z M184.1,56.2v-0.2c0-10.8-7.3-18-15.9-18c-8.6,0-15.8,7.2-15.8,18v0.2
		c0,10.8,7.2,18,15.8,18C176.8,74.1,184.1,67.1,184.1,56.2L184.1,56.2z"/>
	<path class="st0" d="M199.8,76.2L210.9,63c7.7,6.3,15.7,10.3,25.4,10.3c7.7,0,12.3-3,12.3-8V65c0-4.7-2.9-7.2-17.1-10.8
		c-17.1-4.4-28.2-9.1-28.2-26V28c0-15.4,12.4-25.6,29.8-25.6c11.5-0.2,22.6,3.6,31.6,10.8l-9.7,14.1c-7.5-5.2-15-8.4-22.1-8.4
		c-7.2,0-10.9,3.3-10.9,7.4v0.2c0,5.6,3.6,7.4,18.4,11.2c17.3,4.5,27,10.7,27,25.5v0.2c0,16.9-12.9,26.3-31.2,26.3
		C222.6,89.8,209.8,85,199.8,76.2z"/>
	<path class="st0" d="M271.4,70.1V39.3h-7.8V23.5h7.8V6.9h18.5v16.6h15.3v15.8h-15.3v27.8c0,4.2,1.8,6.3,6,6.3
		c3.2,0,6.3-0.8,9.1-2.3v14.8c-4.4,2.6-9.5,3.9-14.6,3.8C279.1,89.7,271.4,85.2,271.4,70.1z"/>
	<path class="st0" d="M304,56.4v-0.2c0-18.7,15.1-33.9,35.4-33.9c20.2,0,35.1,14.9,35.1,33.6v0.2c0,18.7-15.1,33.9-35.4,33.9
		C318.9,90,304,75.1,304,56.4z M356.2,56.4v-0.2c0-9.6-6.9-18-17.1-18c-10.6,0-16.9,8.1-16.9,17.7v0.2c0,9.6,6.9,18,17.1,18
		C349.9,74.1,356.2,66,356.2,56.4z"/>
	<path class="st0" d="M376.9,23.5h18.5v13.1c3.8-9,9.8-14.8,20.8-14.3v19.3h-1c-12.3,0-19.8,7.4-19.8,22.9v24h-18.5V23.5z"/>
	<path class="st0" d="M418.6,23.5h18.5v9.2c4.3-5.5,9.8-10.4,19.2-10.4c8.5,0,15,3.8,18.4,10.3c5.7-6.7,12.5-10.3,21.4-10.3
		c13.7,0,22,8.3,22,23.9v42.4h-18.5V52.3c0-8.7-3.9-13.2-10.8-13.2c-6.9,0-11.2,4.5-11.2,13.2v36.3H459V52.3
		c0-8.7-3.9-13.2-10.8-13.2c-6.9,0-11.2,4.5-11.2,13.2v36.3h-18.5V23.5z"/>
</g>
</svg>
