<?xml version="1.0" encoding="utf-8"?>
<!-- Generator: Adobe Illustrator 22.1.0, SVG Export Plug-In . SVG Version: 6.00 Build 0)  -->
<svg version="1.1" id="Layer_1" xmlns="http://www.w3.org/2000/svg" xmlns:xlink="http://www.w3.org/1999/xlink" x="0px" y="0px"
	 viewBox="0 0 70 70" style="enable-background:new 0 0 70 70;" xml:space="preserve">
<style type="text/css">
	.st0{fill:#FFFFFF;}
</style>
<g>
	<path d="M13.4,13.4h43.2v43.2H13.4V13.4z"/>
	<path class="st0" d="M17.5,48.5h16.2v2.7H17.5V48.5z"/>
	<path class="st0" d="M17.3,19h7.3c4.3,0,6.9,2.5,6.9,6.2v0.1c0,4.2-3.2,6.3-7.3,6.3h-3V37h-3.9L17.3,19z M24.4,28
		c2,0,3.1-1.2,3.1-2.7v-0.1c0-1.8-1.2-2.7-3.2-2.7h-3V28H24.4z"/>
	<path class="st0" d="M32.5,34.4l2.3-2.8c1.6,1.3,3.3,2.2,5.4,2.2c1.6,0,2.6-0.6,2.6-1.7V32c0-1-0.6-1.5-3.6-2.3
		c-3.6-0.9-6-1.9-6-5.5v-0.1c0-3.3,2.6-5.4,6.3-5.4c2.6,0,4.9,0.8,6.7,2.3l-2.1,3c-1.6-1.1-3.2-1.8-4.7-1.8s-2.3,0.7-2.3,1.6v0.1
		c0,1.2,0.8,1.6,3.9,2.4c3.6,1,5.7,2.3,5.7,5.4v0.1c0,3.6-2.7,5.6-6.6,5.6C37.4,37.3,34.7,36.3,32.5,34.4"/>
</g>
</svg>
