<svg version="1.1" xmlns="http://www.w3.org/2000/svg" x="0" y="0" width="70" height="70" viewBox="0 0 70 70" xml:space="preserve"><linearGradient id="a" gradientUnits="userSpaceOnUse" x1=".558" y1="46.846" x2="29.947" y2="8.026"><stop offset=".016" stop-color="#765AF8"/><stop offset=".382" stop-color="#B345F1"/><stop offset=".758" stop-color="#FA3293"/><stop offset=".941" stop-color="#FF318C"/></linearGradient><path fill="url(#a)" d="M39.6 15.2L36.3 5.2 11.9 0 0 13.5 37.2 32.5z"/><linearGradient id="b" gradientUnits="userSpaceOnUse" x1="2.73" y1="48.379" x2="32.072" y2="9.621"><stop offset=".016" stop-color="#765AF8"/><stop offset=".382" stop-color="#B345F1"/><stop offset=".758" stop-color="#FA3293"/><stop offset=".941" stop-color="#FF318C"/></linearGradient><path fill="url(#b)" d="M28 41.4L27.3 20.6 0 13.5 6.7 53.6 28 53.4z"/><linearGradient id="c" gradientUnits="userSpaceOnUse" x1="50.857" y1="46.405" x2="34.274" y2="7.048"><stop offset=".183" stop-color="#765AF8"/><stop offset=".238" stop-color="#8655F6"/><stop offset=".345" stop-color="#9F4CF3"/><stop offset=".443" stop-color="#AE47F2"/><stop offset=".522" stop-color="#B345F1"/></linearGradient><path fill="url(#c)" d="M22.1 41L23.4 24.5 43.2 4.2 60.9 7.4 70 30.1 60.5 39.5 45 37 35.4 47.1z"/><linearGradient id="d" gradientUnits="userSpaceOnUse" x1="63.266" y1="57.339" x2="24.698" y2="27.516"><stop offset=".016" stop-color="#765AF8"/><stop offset=".382" stop-color="#B345F1"/></linearGradient><path fill="url(#d)" d="M43.2 4.2L14.8 29.4 20.3 61.8 43.9 70 70 54.4z"/><g><path fill="#000" d="M13.4 13.4H56.6V56.6H13.4z"/><path fill="#FFF" d="M17.5 48.5H33.7V51.2H17.5z"/><path d="M17.3,19h7.3c4.3,0,6.9,2.5,6.9,6.2v0.1c0,4.2-3.2,6.3-7.3,6.3h-3l0,5.4h-3.9L17.3,19z M24.4,28 c2,0,3.1-1.2,3.1-2.7v-0.1c0-1.8-1.2-2.7-3.2-2.7h-3V28H24.4z" fill="#FFF"/><path d="M32.5,34.4l2.3-2.8c1.6,1.3,3.3,2.2,5.4,2.2c1.6,0,2.6-0.6,2.6-1.7V32c0-1-0.6-1.5-3.6-2.3 c-3.6-0.9-6-1.9-6-5.5v-0.1c0-3.3,2.6-5.4,6.3-5.4c2.6,0,4.9,0.8,6.7,2.3l-2.1,3c-1.6-1.1-3.2-1.8-4.7-1.8c-1.5,0-2.3,0.7-2.3,1.6 v0.1c0,1.2,0.8,1.6,3.9,2.4c3.6,1,5.7,2.3,5.7,5.4v0.1c0,3.6-2.7,5.6-6.6,5.6C37.4,37.3,34.7,36.3,32.5,34.4" fill="#FFF"/></g></svg>