<svg data-name="Layer 1" xmlns="http://www.w3.org/2000/svg" viewBox="0 0 64 64"><defs><linearGradient id="a" x1="25.113" y1="24.242" x2="55.876" y2="24.242" gradientUnits="userSpaceOnUse"><stop offset="0" stop-color="#21d789"/><stop offset="1" stop-color="#07c3f2"/></linearGradient><linearGradient id="b" x1="-17.865" y1="49.244" x2="57.823" y2="-6.628" gradientUnits="userSpaceOnUse"><stop offset=".011" stop-color="#fcf84a"/><stop offset=".112" stop-color="#a7eb62"/><stop offset=".206" stop-color="#5fe077"/><stop offset=".273" stop-color="#32da84"/><stop offset=".306" stop-color="#21d789"/><stop offset=".577" stop-color="#21d789"/><stop offset=".597" stop-color="#21d789"/><stop offset=".686" stop-color="#20d68c"/><stop offset=".763" stop-color="#1ed497"/><stop offset=".835" stop-color="#19d1a9"/><stop offset=".904" stop-color="#13ccc2"/><stop offset=".971" stop-color="#0bc6e1"/><stop offset="1" stop-color="#07c3f2"/></linearGradient><linearGradient id="c" x1="13.35" y1="71.201" x2="25.987" y2="31.544" gradientUnits="userSpaceOnUse"><stop offset="0" stop-color="#21d789"/><stop offset=".164" stop-color="#24d788"/><stop offset=".305" stop-color="#2fd886"/><stop offset=".437" stop-color="#41da82"/><stop offset=".564" stop-color="#5adc7d"/><stop offset=".688" stop-color="#7ae077"/><stop offset=".809" stop-color="#a1e36e"/><stop offset=".925" stop-color="#cfe865"/><stop offset="1" stop-color="#f1eb5e"/></linearGradient><linearGradient id="d" x1="27.244" y1="33.668" x2="48.149" y2="5.561" gradientUnits="userSpaceOnUse"><stop offset="0" stop-color="#21d789"/><stop offset=".061" stop-color="#24d788"/><stop offset=".113" stop-color="#2fd886"/><stop offset=".162" stop-color="#41da82"/><stop offset=".209" stop-color="#5add7d"/><stop offset=".255" stop-color="#79e077"/><stop offset=".258" stop-color="#7ce076"/><stop offset=".499" stop-color="#8ce173"/><stop offset=".925" stop-color="#b2e56b"/></linearGradient><linearGradient id="e" x1="62.688" y1="37.731" x2="13.302" y2="37.273" gradientUnits="userSpaceOnUse"><stop offset=".387" stop-color="#fcf84a"/><stop offset=".536" stop-color="#ecf451"/><stop offset=".826" stop-color="#c2e964"/><stop offset=".925" stop-color="#b2e56b"/></linearGradient></defs><title>PyCharm_comm_64</title><path fill="url(#a)" d="M58 6L44 6 35.6 36 58 42.483 58 6z"/><path fill="url(#b)" d="M33.782 6L18.035 6 6 6 6 49.541 14.2 48.6 22.6 45 23 38.8 26.4 21 44 6 33.782 6z"/><path fill="url(#c)" d="M33.574 58L26.4 21 18.8 24.8 6 44 6 58 33.574 58z"/><path fill="url(#d)" d="M42.112 6L28.2 18.4 49 18.4 47.185 6 42.112 6z"/><path fill="url(#e)" d="M58 40.357L44 17 29.2 18.4 26.4 21 18.923 52 31.538 58 58 58 58 40.357z"/><g><path d="M12 12H52V52H12z"/><path d="M16.2,17.2H23c4,0,6.4,2.4,6.4,5.8h0c0,3.8-3,5.8-6.8,5.8H19.8v5h-3.6L16.2,17.2h0Zm6.6,8.4a2.47692,2.47692,0,0,0,2.8-2.6h0c0-1.6-1.2-2.6-3-2.6H19.8v5.2h3V25.6Z" fill="#fff"/><path d="M30.8,25.6h0a8.41422,8.41422,0,0,1,8.6-8.6,8.40548,8.40548,0,0,1,6.6,2.6l-2.4,2.6a5.75621,5.75621,0,0,0-4.2-1.8,4.96013,4.96013,0,0,0-4.8,5.2h0a4.96013,4.96013,0,0,0,4.8,5.2,6.42343,6.42343,0,0,0,4.4-2l2.4,2.4a8.71563,8.71563,0,0,1-6.8,3C34.4,34,30.8,30.4,30.8,25.6" fill="#fff"/></g><path fill="#fff" d="M16 45.4H31V47.8H16z"/></svg>