<svg version="1.1" xmlns="http://www.w3.org/2000/svg" x="0" y="0" width="70" height="70" viewBox="0 0 70 70" xml:space="preserve"><linearGradient id="a" gradientUnits="userSpaceOnUse" x1="24.998" y1="27.046" x2="66.656" y2="27.046"><stop offset="0" stop-color="#21D789"/><stop offset="1" stop-color="#07C3F2"/></linearGradient><path fill="url(#a)" d="M49.1 11L69.5 28.1 62.2 43 49.8 39.6 39.2 39.6z"/><linearGradient id="b" gradientUnits="userSpaceOnUse" x1="-24.559" y1="59.081" x2="61.22" y2="-4.241"><stop offset=".011" stop-color="#FCF84A"/><stop offset=".112" stop-color="#A7EB62"/><stop offset=".206" stop-color="#5FE077"/><stop offset=".273" stop-color="#32DA84"/><stop offset=".306" stop-color="#21D789"/><stop offset=".577" stop-color="#21D789"/><stop offset=".597" stop-color="#21D789"/><stop offset=".686" stop-color="#20D68C"/><stop offset=".763" stop-color="#1ED497"/><stop offset=".835" stop-color="#19D1A9"/><stop offset=".904" stop-color="#13CCC2"/><stop offset=".971" stop-color="#0BC6E1"/><stop offset="1" stop-color="#07C3F2"/></linearGradient><path fill="url(#b)" d="M28.5 22.1L24.5 43 24.1 50.2 14.2 54.5 0 56 4.3 10.7 29.9 0 45.7 10.4z"/><linearGradient id="c" gradientUnits="userSpaceOnUse" x1="9.33" y1="77.654" x2="23.637" y2="32.76"><stop offset="0" stop-color="#21D789"/><stop offset=".164" stop-color="#24D788"/><stop offset=".305" stop-color="#2FD886"/><stop offset=".437" stop-color="#41DA82"/><stop offset=".564" stop-color="#5ADC7D"/><stop offset=".688" stop-color="#7AE077"/><stop offset=".809" stop-color="#A1E36E"/><stop offset=".925" stop-color="#CFE865"/><stop offset="1" stop-color="#F1EB5E"/></linearGradient><path fill="url(#c)" d="M28.5 22.1L30.4 62.5 24 70 0 56 19.7 26.6z"/><linearGradient id="d" gradientUnits="userSpaceOnUse" x1="28.275" y1="38.623" x2="59.409" y2="-3.236"><stop offset="0" stop-color="#21D789"/><stop offset=".061" stop-color="#24D788"/><stop offset=".113" stop-color="#2FD886"/><stop offset=".162" stop-color="#41DA82"/><stop offset=".209" stop-color="#5ADD7D"/><stop offset=".255" stop-color="#79E077"/><stop offset=".258" stop-color="#7CE076"/><stop offset=".499" stop-color="#8CE173"/><stop offset=".925" stop-color="#B2E56B"/></linearGradient><path fill="url(#d)" d="M54.9 19.1L30.6 19.1 52.1 0z"/><linearGradient id="e" gradientUnits="userSpaceOnUse" x1="75.889" y1="43.95" x2="13.158" y2="43.369"><stop offset=".387" stop-color="#FCF84A"/><stop offset=".536" stop-color="#ECF451"/><stop offset=".826" stop-color="#C2E964"/><stop offset=".925" stop-color="#B2E56B"/></linearGradient><path fill="url(#e)" d="M70 62.6L48.6 69.9 20.2 61.9 28.5 22.1 31.8 19.1 49.1 17.5 47.5 34.9 61.3 29.6z"/><g><path d="M13.4 13.4H56.6V56.6H13.4z"/><path fill="#FFF" d="M17.5 48.5H33.7V51.2H17.5z"/><path d="M17.3,19.1h7.3c4.3,0,6.9,2.5,6.9,6.2v0.1c0,4.1-3.2,6.3-7.2,6.3h-3V37h-3.9V19.1z M24.4,28.1 c2,0,3.1-1.2,3.1-2.7v-0.1c0-1.8-1.2-2.7-3.2-2.7h-3v5.5H24.4z" fill="#FFF"/><path d="M33.6,19.1h13.5v3.5h-9.6v3.6H46v3.5h-8.4v3.8h9.7V37H33.6V19.1z" fill="#FFF"/></g></svg>