<?xml version="1.0" encoding="utf-8"?>
<!-- Generator: Adobe Illustrator 22.1.0, SVG Export Plug-In . SVG Version: 6.00 Build 0)  -->
<svg version="1.1" id="Layer_1" xmlns="http://www.w3.org/2000/svg" xmlns:xlink="http://www.w3.org/1999/xlink" x="0px" y="0px"
	 viewBox="0 0 64 64" style="enable-background:new 0 0 64 64;" xml:space="preserve">
<style type="text/css">
	.st0{fill:#FFFFFF;}
</style>
<title>PyCharm_comm_64</title>
<g>
	<path d="M12,12h40v40H12V12z"/>
	<path class="st0" d="M16.2,17.2H23c4,0,6.4,2.4,6.4,5.8l0,0c0,3.8-3,5.8-6.8,5.8h-2.8v5h-3.6L16.2,17.2L16.2,17.2z M22.8,25.6
		c1.4,0.2,2.6-0.8,2.8-2.1c0-0.2,0-0.3,0-0.5l0,0c0-1.6-1.2-2.6-3-2.6h-2.8v5.2L22.8,25.6C22.8,25.6,22.8,25.6,22.8,25.6z"/>
	<path class="st0" d="M30.8,25.6L30.8,25.6C30.7,21,34.4,17.1,39,17c0.1,0,0.3,0,0.4,0c2.5-0.1,4.9,0.8,6.6,2.6l-2.4,2.6
		c-1.1-1.2-2.6-1.8-4.2-1.8c-2.7,0.1-4.9,2.4-4.8,5.1c0,0,0,0.1,0,0.1l0,0c-0.1,2.7,2,5.1,4.7,5.2c0,0,0.1,0,0.1,0
		c1.7-0.1,3.2-0.8,4.4-2l2.4,2.4c-1.7,2-4.2,3.1-6.8,3C34.4,34,30.8,30.4,30.8,25.6"/>
</g>
<path class="st0" d="M16,45.4h15v2.4H16V45.4z"/>
</svg>
