<?xml version="1.0" encoding="utf-8"?>
<!-- Generator: Adobe Illustrator 22.1.0, SVG Export Plug-In . SVG Version: 6.00 Build 0)  -->
<svg version="1.1" id="Layer_1" xmlns="http://www.w3.org/2000/svg" xmlns:xlink="http://www.w3.org/1999/xlink" x="0px" y="0px"
	 viewBox="0 0 70 70" style="enable-background:new 0 0 70 70;" xml:space="preserve">
<style type="text/css">
	.st0{fill:#FFFFFF;}
</style>
<g>
	<path d="M13.4,13.4h43.2v43.2H13.4V13.4z"/>
	<path class="st0" d="M17.5,48.5h16.2v2.7H17.5V48.5z"/>
	<path class="st0" d="M17.3,19.1h7.3c4.3,0,6.9,2.5,6.9,6.2v0.1c0,4.1-3.2,6.3-7.2,6.3h-3V37h-3.9V19.1H17.3z M24.4,28.1
		c2,0,3.1-1.2,3.1-2.7v-0.1c0-1.8-1.2-2.7-3.2-2.7h-3v5.5C21.3,28.1,24.4,28.1,24.4,28.1z"/>
	<path class="st0" d="M33.6,19.1h13.5v3.5h-9.6v3.6H46v3.5h-8.4v3.8h9.7V37H33.6V19.1z"/>
</g>
</svg>
