<?xml version="1.0" encoding="utf-8"?>
<!-- Generator: Adobe Illustrator 22.1.0, SVG Export Plug-In . SVG Version: 6.00 Build 0)  -->
<svg version="1.1" id="Layer_1" xmlns="http://www.w3.org/2000/svg" xmlns:xlink="http://www.w3.org/1999/xlink" x="0px" y="0px"
	 viewBox="0 0 70 70" style="enable-background:new 0 0 70 70;" xml:space="preserve">
<style type="text/css">
	.st0{fill:#FFFFFF;}
</style>
<g>
	<path d="M56.6,56.6l-43.2,0.1l-0.1-43.2l43.2-0.1L56.6,56.6z"/>
	<path class="st0" d="M17.6,48.6l16.2,0l0,2.7l-16.2,0L17.6,48.6z"/>
	<path class="st0" d="M17.4,19.1h8.2c2.3,0,4,0.6,5.2,1.8c1,1,1.5,2.4,1.5,4.1v0.1c0,1.5-0.3,2.6-1.1,3.5c-0.7,0.9-1.6,1.6-2.8,2
		l4.4,6.4h-4.6l-3.7-5.5h-3.3V37h-3.9L17.4,19.1z M25.3,27.8c1,0,1.7-0.2,2.2-0.7s0.8-1.1,0.8-1.8v-0.1c0-0.9-0.3-1.5-0.8-1.9
		s-1.3-0.6-2.3-0.6h-3.9v5.1H25.3z"/>
	<path class="st0" d="M36,33.2h-1.9v-3.3h2.5l0.6-3.8h-2.3v-3.3h2.8l0.6-3.7h3.4l-0.6,3.7h3.7l0.6-3.7h3.4l-0.6,3.7h1.9v3.3h-2.5
		L47,29.9h2.3v3.3h-2.8L45.8,37h-3.4l0.7-3.8h-3.7L38.7,37h-3.4L36,33.2z M43.7,29.9l0.6-3.8h-3.7L40,29.9H43.7z"/>
</g>
</svg>
