<svg version="1.1" xmlns="http://www.w3.org/2000/svg" x="0" y="0" width="70" height="70" viewBox="0 0 70 70" xml:space="preserve"><linearGradient id="a" gradientUnits="userSpaceOnUse" x1="8.063" y1="16.141" x2="29.26" y2="69.757"><stop offset=".22" stop-color="#C40B55"/><stop offset=".683" stop-color="#E343E6"/><stop offset=".925" stop-color="#F59252"/></linearGradient><path fill="url(#a)" d="M20.2 15.2L34 36.7 11.6 70 0 23.1z"/><linearGradient id="b" gradientUnits="userSpaceOnUse" x1="875.719" y1="73.292" x2="927.556" y2="18.152" gradientTransform="matrix(-1 0 0 1 928 0)"><stop offset=".113" stop-color="#FFBD00"/><stop offset=".586" stop-color="#E343E6"/><stop offset=".817" stop-color="#EC841B"/><stop offset=".935" stop-color="#FFBD00"/></linearGradient><path fill="url(#b)" d="M18.9 15.7L21 0 51.2 33.6 42.4 42.3 49.2 70 11.6 70z"/><linearGradient id="c" gradientUnits="userSpaceOnUse" x1="25.5" y1="-1.93" x2="69.96" y2="51.168"><stop offset=".129" stop-color="#FFBD00"/><stop offset=".64" stop-color="#E343E6"/><stop offset=".909" stop-color="#C40B55"/></linearGradient><path fill="url(#c)" d="M35.3 47.1L70 47.1 58.4 0 21 0z"/><g><path fill="#000" d="M13.4 13.4H56.6V56.6H13.4z"/><path d="M17.4,19h8.2c2.3,0,4,0.6,5.2,1.8c1,1,1.5,2.4,1.5,4.1V25c0,1.5-0.4,2.6-1.1,3.5 c-0.7,0.9-1.6,1.6-2.8,2l4.4,6.4h-4.6l-3.7-5.5h-3.3l0,5.5h-3.9V19z M25.4,27.7c1,0,1.7-0.2,2.2-0.7c0.5-0.5,0.8-1.1,0.8-1.8 v-0.1c0-0.9-0.3-1.5-0.8-1.9c-0.5-0.4-1.3-0.6-2.3-0.6h-3.9v5.1H25.4z" fill="#FFF"/><path fill="#FFF" d="M17.4 48.5H33.599999999999994V51.2H17.4z"/><g><path d="M43.7,24.4h-4v-3.6h4v-4h3.7v4h4v3.6h-4v4h-3.7V24.4z" fill="#FFF"/></g><g><path d="M37.1,34.6h-4V31h4v-4h3.7v4h4v3.6h-4v4h-3.7V34.6z" fill="#FFF"/></g></g></svg>