<?xml version="1.0" encoding="utf-8"?>
<!-- Generator: Adobe Illustrator 22.1.0, SVG Export Plug-In . SVG Version: 6.00 Build 0)  -->
<svg version="1.1" id="Layer_1" xmlns="http://www.w3.org/2000/svg" xmlns:xlink="http://www.w3.org/1999/xlink" x="0px" y="0px"
	 viewBox="0 0 70 70" style="enable-background:new 0 0 70 70;" xml:space="preserve">
<style type="text/css">
	.st0{fill:#FFFFFF;}
</style>
<title>rider</title>
<g>
	<path d="M13.3,13.2h43.6v43.6H13.3V13.2z"/>
	<g>
		<path class="st0" d="M17.2,18.9h8.4c2-0.1,3.9,0.6,5.3,1.9c1,1.1,1.6,2.6,1.5,4.1l0,0c0.1,2.6-1.5,4.9-3.9,5.7l4.5,6.5h-4.7
			l-3.9-5.9h-3.2v5.9h-4V18.9L17.2,18.9z M25.3,27.7c2,0,3.1-1.1,3.1-2.6l0,0c0-1.7-1.2-2.6-3.2-2.6h-4v5.2L25.3,27.7L25.3,27.7z"/>
		<path class="st0" d="M36.1,18.9h7.2c5.8,0,9.7,3.9,9.7,9.2l0,0c0,5.1-3.9,9.2-9.7,9.2h-7.2V18.9z M40.1,22.5v11h3.2
			c2.9,0.2,5.4-2,5.6-4.9c0-0.2,0-0.4,0-0.6l0,0c0.2-2.9-2-5.4-5-5.6c-0.2,0-0.4,0-0.6,0H40.1z"/>
	</g>
	<path class="st0" d="M17.2,48.6h16.4v2.7H17.2V48.6z"/>
</g>
</svg>
