<?xml version="1.0" encoding="utf-8"?>
<!-- Generator: Adobe Illustrator 22.1.0, SVG Export Plug-In . SVG Version: 6.00 Build 0)  -->
<svg version="1.1" id="Layer_1" xmlns="http://www.w3.org/2000/svg" xmlns:xlink="http://www.w3.org/1999/xlink" x="0px" y="0px"
	 viewBox="0 0 273 90" style="enable-background:new 0 0 273 90;" xml:space="preserve">
<style type="text/css">
	.st0{fill:#FFFFFF;}
</style>
<title>logos_artboards</title>
<g>
	<path class="st0" d="M0,3.6h38.8c10.8,0,19.2,3,24.7,8.6c4.7,4.7,7.3,11.4,7.3,19.4v0.2c0,13.7-7.4,22.3-18.2,26.3l20.7,30.3H51.5
		L33.3,61.4H18.7v27.2H0L0,3.6z M37.6,44.9c9.1,0,14.3-4.9,14.3-12v-0.2c0-8-5.6-12.1-14.7-12.1H18.7v24.4L37.6,44.9z"/>
	<path class="st0" d="M74.9,0h19.4v16.4H74.9V0z M75.4,23.5h18.4v65H75.4L75.4,23.5z"/>
	<path class="st0" d="M97.1,56.2v-0.2c0-21.7,14.2-33.6,29.6-33.6c9.8,0,15.9,4.5,20.2,9.7V0h18.4v88.5h-18.4v-9.3
		c-4.5,6.1-10.7,10.6-20.2,10.6C111.5,89.8,97.1,77.9,97.1,56.2z M147.2,56.2v-0.2c0-10.8-7.2-18-15.8-18c-8.6,0-15.9,7-15.9,18v0.2
		c0,10.8,7.3,18,15.9,18C140,74.1,147.2,67,147.2,56.2L147.2,56.2z"/>
	<path class="st0" d="M167.5,56.4v-0.2c0-18.6,13.2-33.8,32.1-33.8c21.7,0,31.6,16.9,31.6,35.3c0,1.5-0.1,3.2-0.2,4.9h-45.2
		c1.8,8.4,7.6,12.7,15.9,12.7c6.2,0,10.7-1.9,15.8-6.7l10.5,9.3C222,85.4,213.2,90,201.5,90C182,90,167.5,76.3,167.5,56.4z
		 M213.4,50.9c-1.1-8.2-5.9-13.8-13.7-13.8c-7.6,0-12.6,5.5-14.1,13.8H213.4z"/>
	<path class="st0" d="M233.8,23.5h18.4v13.1c3.8-9,9.8-14.8,20.7-14.3v19.3h-1c-12.2,0-19.8,7.4-19.8,22.9v24h-18.4V23.5z"/>
</g>
</svg>
