<?xml version="1.0" encoding="utf-8"?>
<!-- Generator: Adobe Illustrator 22.1.0, SVG Export Plug-In . SVG Version: 6.00 Build 0)  -->
<svg version="1.1" id="Layer_1" xmlns="http://www.w3.org/2000/svg" xmlns:xlink="http://www.w3.org/1999/xlink" x="0px" y="0px"
	 viewBox="0 0 70 70" style="enable-background:new 0 0 70 70;" xml:space="preserve">
<style type="text/css">
	.st0{fill:#FFFFFF;}
</style>
<g>
	<path d="M13.4,13.4h43.2v43.2H13.4V13.4z"/>
	<path class="st0" d="M17.5,48.5h16.2v2.7H17.5V48.5z"/>
	<path class="st0" d="M34.6,19h4.3l4.7,7.6l4.7-7.6h4.3v17.9h-4V25.2l-5,7.7h-0.1l-5-7.6v11.6h-3.9V19z"/>
	<path class="st0" d="M17.4,19h8.2c2.3,0,4,0.6,5.2,1.8c1,1,1.5,2.4,1.5,4.1V25c0,1.5-0.4,2.6-1.1,3.5s-1.6,1.6-2.8,2l4.4,6.4h-4.6
		l-3.7-5.5h-3.3v5.5h-3.9V19H17.4z M25.4,27.7c1,0,1.7-0.2,2.2-0.7s0.8-1.1,0.8-1.8v-0.1c0-0.9-0.3-1.5-0.8-1.9s-1.3-0.6-2.3-0.6
		h-3.9v5.1H25.4z"/>
</g>
</svg>
