<?xml version="1.0" encoding="utf-8"?>
<!-- Generator: Adobe Illustrator 22.1.0, SVG Export Plug-In . SVG Version: 6.00 Build 0)  -->
<svg version="1.1" id="Layer_1" xmlns="http://www.w3.org/2000/svg" xmlns:xlink="http://www.w3.org/1999/xlink" x="0px" y="0px"
	 viewBox="0 0 502 108" style="enable-background:new 0 0 502 108;" xml:space="preserve">
<style type="text/css">
	.st0{fill:#FFFFFF;}
</style>
<title>logos_artboards</title>
<g>
	<path class="st0" d="M0,3.6h38.7c10.8,0,19.1,3,24.7,8.6c4.7,4.7,7.3,11.4,7.3,19.3v0.2c0,13.7-7.4,22.3-18.1,26.2l20.7,30.2H51.4
		L33.3,61.2H18.6v27.1H0V3.6z M37.5,44.7c9.1,0,14.3-4.8,14.3-12v-0.2c0-8-5.6-12.1-14.6-12.1H18.6v24.3H37.5z"/>
	<path class="st0" d="M72.9,65.4v-42h18.4v36.2c0,8.7,4.1,13.2,11.1,13.2s11.5-4.5,11.5-13.2V23.5h18.4v64.8h-18.4v-9.2
		c-4.2,5.4-9.7,10.4-19,10.4C81,89.5,72.9,80.3,72.9,65.4z"/>
	<path class="st0" d="M154.5,79.8v8.5h-18.4V0h18.4v32.8c4.5-6,10.6-10.5,20.2-10.5c15.1,0,29.5,11.9,29.5,33.5V56
		c0,21.6-14.1,33.5-29.5,33.5C164.9,89.5,158.9,85,154.5,79.8z M185.8,56v-0.2c0-10.8-7.3-17.9-15.8-17.9s-15.7,7.1-15.7,17.9V56
		c0,10.8,7.1,17.9,15.7,17.9S185.8,66.9,185.8,56z"/>
	<path class="st0" d="M244.8,23.5h19.1L239,89.9c-5,13.2-10.3,18.1-21.3,18.1c-5.8,0.1-11.4-1.5-16.3-4.5l6.2-13.3
		c2.4,1.5,5.1,2.4,7.9,2.5c3.1,0,4.8-1,6.4-4.2l-25.4-65.1h19.5l14.8,44.1L244.8,23.5z"/>
	<path class="st0" d="M265.4,3.6h20.1l22.2,35.8L330,3.6H350v84.7h-18.5V33l-23.8,36.2h-0.5l-23.6-35.8v54.9h-18.3V3.6z"/>
	<path class="st0" d="M354.3,0h19.3v16.3h-19.3V0z M354.7,23.5h18.4v64.8h-18.4V23.5z"/>
	<path class="st0" d="M377.1,23.5h18.4v9.2c4.2-5.4,9.7-10.4,19-10.4c13.9,0,22,9.2,22,24.1v42h-18.4V52.1c0-8.7-4.1-13.2-11.1-13.2
		c-7,0-11.5,4.5-11.5,13.2v36.2h-18.4V23.5z"/>
	<path class="st0" d="M438.4,56.2V56c0-18.5,13.2-33.7,32-33.7c21.6,0,31.6,16.8,31.6,35.2c0,1.5-0.1,3.1-0.2,4.8h-45.1
		c1.8,8.3,7.6,12.7,15.8,12.7c6.2,0,10.6-1.9,15.7-6.7l10.5,9.3c-6,7.5-14.8,12.1-26.5,12.1C452.8,89.7,438.4,76.1,438.4,56.2z
		 M484.1,50.8C483,42.6,478.2,37,470.4,37c-7.6,0-12.6,5.4-14,13.8L484.1,50.8z"/>
</g>
</svg>
