<?xml version="1.0" encoding="utf-8"?>
<!-- Generator: Adobe Illustrator 22.1.0, SVG Export Plug-In . SVG Version: 6.00 Build 0)  -->
<svg version="1.1" id="Layer_1" xmlns="http://www.w3.org/2000/svg" xmlns:xlink="http://www.w3.org/1999/xlink" x="0px" y="0px"
	 viewBox="0 0 70 70" style="enable-background:new 0 0 70 70;" xml:space="preserve">
<style type="text/css">
	.st0{fill:#FFFFFF;}
</style>
<g>
	<path d="M13.4,13.4h43.2v43.2H13.4V13.4z"/>
	<g>
		<path class="st0" d="M17.5,29.4V19h4v10.3c0,3,1.5,4.5,3.9,4.5s3.9-1.5,3.9-4.4V19h4v10.2c0,5.5-3.1,8.2-8,8.2
			C20.5,37.5,17.5,34.7,17.5,29.4z"/>
		<path class="st0" d="M35.4,19h7.4c4.3,0,6.9,2.6,6.9,6.3v0.1c0,4.2-3.3,6.4-7.3,6.4h-3v5.4h-4C35.4,37.2,35.4,19,35.4,19z
			 M42.6,28.2c2,0,3.2-1.2,3.2-2.7v-0.1c0-1.8-1.2-2.7-3.2-2.7h-3.1v5.5C39.5,28.2,42.6,28.2,42.6,28.2z"/>
	</g>
	<path class="st0" d="M17.5,48.5h16.2v2.7H17.5V48.5z"/>
</g>
</svg>
