<?xml version="1.0" encoding="utf-8"?>
<!-- Generator: Adobe Illustrator 22.1.0, SVG Export Plug-In . SVG Version: 6.00 Build 0)  -->
<svg version="1.1" id="Layer_1" xmlns="http://www.w3.org/2000/svg" xmlns:xlink="http://www.w3.org/1999/xlink" x="0px" y="0px"
	 viewBox="0 0 70 70" style="enable-background:new 0 0 70 70;" xml:space="preserve">
<style type="text/css">
	.st0{fill:#FFFFFF;}
</style>
<g>
	<path d="M13.4,13.4h43.2v43.2H13.4V13.4z"/>
	<path class="st0" d="M17.5,48.5h16.2v2.7H17.5V48.5z"/>
	<path class="st0" d="M38.7,34.3l2.3-2.8c1.6,1.3,3.3,2.2,5.3,2.2c1.6,0,2.5-0.6,2.5-1.7v-0.1c0-1-0.6-1.5-3.6-2.3
		c-3.6-0.9-5.8-1.9-5.8-5.5V24c0-3.3,2.6-5.4,6.2-5.4c2.6,0,4.8,0.8,6.6,2.3l-2,3c-1.6-1.1-3.1-1.8-4.6-1.8s-2.3,0.7-2.3,1.6v0.1
		c0,1.2,0.8,1.6,3.8,2.4c3.6,1,5.6,2.3,5.6,5.4v0.1c0,3.6-2.7,5.6-6.5,5.6C43.5,37.2,40.8,36.2,38.7,34.3"/>
	<path class="st0" d="M35.2,19l-2.7,10.4l-3-10.4h-3l-3.1,10.4L20.7,19h-4.1l5.1,17.9H25l3-10.4l2.9,10.4h3.4L39.4,19H35.2z"/>
</g>
</svg>
