<?xml version="1.0" encoding="utf-8"?>
<!-- Generator: Adobe Illustrator 22.1.0, SVG Export Plug-In . SVG Version: 6.00 Build 0)  -->
<svg version="1.1" id="Layer_1" xmlns="http://www.w3.org/2000/svg" xmlns:xlink="http://www.w3.org/1999/xlink" x="0px" y="0px"
	 viewBox="0 0 468 108" style="enable-background:new 0 0 468 108;" xml:space="preserve">
<style type="text/css">
	.st0{fill:#FFFFFF;}
</style>
<title>logos_artboards</title>
<g>
	<path class="st0" d="M0,3.6h33c26.6,0,45,18.3,45,42.2v0.2c0,23.9-18.4,42.5-45,42.5H0V3.6z M18.6,20.5v51.2H33
		c15.3,0,25.5-10.3,25.5-25.4v-0.2c0-15-10.3-25.6-25.5-25.6H18.6z"/>
	<path class="st0" d="M77,69.9v-0.2c0-14.2,10.8-20.8,26.1-20.8c5.4,0,10.8,0.9,15.9,2.7v-1.1c0-7.6-4.7-11.9-13.9-11.9
		c-7,0-12,1.3-17.9,3.5L82.6,28c7.9-3.6,16.5-5.4,25.2-5.2c10,0,17.3,2.7,21.9,7.3c4.8,4.9,7,12,7,20.8v37.7h-17.8v-7
		c-4.5,5-10.7,8.3-19.6,8.3C87,89.8,77,82.8,77,69.9z M119.2,65.6v-3.3c-3.7-1.6-7.7-2.5-11.7-2.4c-7.9,0-12.7,3.2-12.7,9v0.2
		c0,5,4.1,7.9,10,7.9C113.4,77.1,119.2,72.3,119.2,65.6L119.2,65.6z"/>
	<path class="st0" d="M145.1,70.1V39.3h-7.7V23.5h7.7V6.9h18.4v16.6h15.3v15.8h-15.3v27.8c0,4.2,1.8,6.3,5.9,6.3
		c3.2,0,6.3-0.8,9.1-2.3v14.8c-4.4,2.6-9.4,3.9-14.5,3.8C152.8,89.7,145.1,85.2,145.1,70.1z"/>
	<path class="st0" d="M180.6,69.9v-0.2c0-14.2,10.8-20.8,26.1-20.8c5.4,0,10.8,0.9,15.9,2.7v-1.1c0-7.6-4.7-11.9-13.9-11.9
		c-7,0-12,1.3-17.9,3.5L186.2,28c7.9-3.6,16.5-5.4,25.2-5.2c10,0,17.3,2.7,21.9,7.3c4.8,4.9,7,12,7,20.8v37.7h-17.8v-7
		c-4.5,5-10.7,8.3-19.6,8.3C190.7,89.8,180.6,82.8,180.6,69.9z M222.9,65.6v-3.3c-3.7-1.6-7.7-2.5-11.7-2.4c-7.9,0-12.7,3.2-12.7,9
		v0.2c0,5,4.1,7.9,10,7.9C217.1,77.1,222.9,72.3,222.9,65.6L222.9,65.6z"/>
	<path class="st0" d="M243.8,46.4v-0.2c0-24.1,18.8-43.9,44.4-43.9c15.3,0,24.5,4.1,33.3,11.6L309.8,28c-6.5-5.5-12.3-8.6-22.2-8.6
		c-13.6,0-24.3,12-24.3,26.5v0.2c0,15.5,10.7,26.9,25.7,26.9c6.8,0,12.8-1.7,17.6-5.1V55.8h-18.8V39.7h36.8v36.9
		c-10,8.7-22.9,13.5-36.2,13.5C262,90,243.8,71.5,243.8,46.4z"/>
	<path class="st0" d="M330,23.5h18.4v13.1c3.8-9,9.8-14.8,20.7-14.3v19.3h-1c-12.2,0-19.7,7.4-19.7,22.9v24H330V23.5z"/>
	<path class="st0" d="M373.5,0h19.4v16.4h-19.4V0z M373.9,23.5h18.4v65h-18.4V23.5z"/>
	<path class="st0" d="M399.8,23.5h18.4v9.3c4.5-6.1,10.7-10.6,20.2-10.6c15.1,0,29.5,11.9,29.5,33.6v0.2c0,21.7-14.2,33.6-29.5,33.6
		c-9.8,0-15.9-4.5-20.2-9.7V108h-18.4V23.5z M449.6,56.2v-0.2c0-10.8-7.3-18-15.9-18c-8.6,0-15.7,7.2-15.7,18v0.2
		c0,10.8,7.1,18,15.7,18C442.3,74.1,449.6,67.1,449.6,56.2z"/>
</g>
</svg>
