<?xml version="1.0" encoding="utf-8"?>
<!-- Generator: Adobe Illustrator 22.1.0, SVG Export Plug-In . SVG Version: 6.00 Build 0)  -->
<svg version="1.1" id="Layer_1" xmlns="http://www.w3.org/2000/svg" xmlns:xlink="http://www.w3.org/1999/xlink" x="0px" y="0px"
	 viewBox="0 0 419 90" style="enable-background:new 0 0 419 90;" xml:space="preserve">
<style type="text/css">
	.st0{fill:#FFFFFF;}
</style>
<title>logos_artboards</title>
<g>
	<path class="st0" d="M0,46.3v-0.2C0,22,18.8,2.2,44.5,2.2c15.3,0,24.5,4.1,33.3,11.6L66.1,28c-6.5-5.5-12.4-8.6-22.2-8.6
		c-13.6,0-24.4,12-24.4,26.4v0.2C19.5,61.6,30.2,73,45.2,73c6.8,0,12.8-1.7,17.6-5.1V55.8H44V39.7h36.9v36.9
		C72.1,83.9,60.1,90,44.6,90C18.2,90,0,71.4,0,46.3z"/>
	<path class="st0" d="M83.5,56.4v-0.2c0-18.7,15-33.8,35.3-33.8c20.1,0,35,14.9,35,33.6v0.2c0,18.7-15,33.8-35.3,33.8
		C98.4,90,83.5,75.1,83.5,56.4z M135.6,56.4v-0.2c0-9.6-6.9-18-17.1-18c-10.5,0-16.8,8.1-16.8,17.7v0.2c0,9.6,6.9,18,17.1,18
		C129.3,74.1,135.6,66,135.6,56.4z"/>
	<path class="st0" d="M158.9,3.6h18.7v67.9h42.3v17h-61V3.6z"/>
	<path class="st0" d="M222.9,69.9v-0.2c0-14.2,10.8-20.7,26.2-20.7c6.5,0,11.3,1.1,15.9,2.7v-1.1c0-7.6-4.7-11.9-13.9-11.9
		c-7,0-12,1.3-17.9,3.5L228.5,28c7.2-3.2,14.2-5.2,25.2-5.2c10.1,0,17.3,2.7,21.9,7.3c4.8,4.9,7,12,7,20.7v37.7h-17.8v-7
		c-4.5,5-10.7,8.2-19.6,8.2C232.9,89.8,222.9,82.7,222.9,69.9z M265.2,65.6v-3.3c-3.2-1.5-7.3-2.4-11.8-2.4c-7.9,0-12.7,3.2-12.7,9
		v0.2c0,5,4.1,7.9,10.1,7.9C259.4,77,265.2,72.3,265.2,65.6z"/>
	<path class="st0" d="M288.3,23.5h18.4v9.2c4.2-5.5,9.7-10.4,19-10.4c13.9,0,22.1,9.2,22.1,24.1v42.1h-18.4V52.3
		c0-8.7-4.1-13.2-11.2-13.2c-7,0-11.5,4.5-11.5,13.2v36.3h-18.4V23.5z"/>
	<path class="st0" d="M350.8,56.2v-0.2c0-21.7,14.2-33.6,29.6-33.6c9.8,0,15.9,4.5,20.2,9.7V0H419v88.5h-18.4v-9.3
		c-4.5,6.1-10.7,10.6-20.2,10.6C365.2,89.8,350.8,77.9,350.8,56.2z M400.8,56.2v-0.2c0-10.8-7.2-18-15.8-18c-8.6,0-15.9,7-15.9,18
		v0.2c0,10.8,7.3,18,15.9,18C393.7,74.1,400.8,67,400.8,56.2z"/>
</g>
</svg>
