<?xml version="1.0" encoding="utf-8"?>
<!-- Generator: Adobe Illustrator 22.1.0, SVG Export Plug-In . SVG Version: 6.00 Build 0)  -->
<svg version="1.1" id="Layer_1" xmlns="http://www.w3.org/2000/svg" xmlns:xlink="http://www.w3.org/1999/xlink" x="0px" y="0px"
	 viewBox="0 0 50 50" style="enable-background:new 0 0 50 50;" xml:space="preserve">
<style type="text/css">
	.st0{fill:#FFFFFF;}
</style>
<g>
	<path d="M0,0h50v50H0V0z"/>
	<path class="st0" d="M4.3,40.7h18.7v3.1H4.3V40.7z"/>
	<path class="st0" d="M4.1,13.2l1.4-1.4c0.4,0.5,0.8,0.8,1.3,0.8s0.9-0.4,0.9-1.1V6.2h2.3v5.2c0,1-0.3,1.8-0.8,2.3
		c-0.6,0.6-1.3,0.8-2.3,0.8C5.6,14.6,4.7,14,4.1,13.2z"/>
	<path class="st0" d="M10.5,6.3h6.6v1.9h-4.3v1.2h4v1.8h-4v1.3h4.3v1.9h-6.6V6.3z"/>
	<path class="st0" d="M20.1,8.3h-2.4v-2h7.2v2h-2.4v6.2h-2.3C20.1,14.5,20.1,8.3,20.1,8.3z"/>
	<path class="st0" d="M10,20.2c0.8-0.3,1.2-0.8,1.2-1.8l0,0c0-0.5-0.2-0.9-0.6-1.3c-0.5-0.5-1.2-0.8-2.3-0.8h-4v8.2h4.2
		c2,0,3.1-0.8,3.1-2.3l0,0C11.7,21.1,11,20.5,10,20.2z M6.6,18.2h1.5c0.7,0,1,0.3,1,0.7l0,0c0,0.5-0.4,0.8-1,0.8H6.7L6.6,18.2
		L6.6,18.2z M9.4,21.9c0,0.5-0.4,0.8-1,0.8H6.6v-1.5h1.7C9,21.2,9.4,21.5,9.4,21.9L9.4,21.9L9.4,21.9z"/>
	<path class="st0" d="M24,16.3h-2.2l-3,7.3l-1.3-1.9c1-0.5,1.7-1.2,1.7-2.5l0,0c0-0.8-0.3-1.4-0.8-1.9c-0.6-0.6-1.4-0.8-2.6-0.8H12
		v8.2h2.3v-2.4h1l1.6,2.4h3.9l0.6-1.5h3.2l0.6,1.5h2.4L24,16.3z M16.9,19.3c0,0.6-0.5,0.9-1.2,0.9h-1.5v-2h1.5
		C16.5,18.3,16.9,18.6,16.9,19.3L16.9,19.3L16.9,19.3z M22,21.3L23,19l0.9,2.3H22z"/>
	<path class="st0" d="M27.8,16.4H30v8.2h-2.3V16.4z"/>
	<path class="st0" d="M30.6,16.4h2.1l3.4,4.3v-4.3h2.3v8.2h-2l-3.5-4.4v4.4h-2.3C30.6,24.6,30.6,16.4,30.6,16.4z"/>
	<path class="st0" d="M38.4,23.3l1.2-1.5c0.8,0.7,1.7,0.9,2.6,0.9c0.7,0,0.9-0.2,0.9-0.6l0,0c0-0.4-0.3-0.6-1.4-0.8
		c-1.7-0.4-3.1-0.8-3.1-2.5l0,0c0-1.5,1.2-2.6,3.2-2.6c1.4,0,2.4,0.4,3.4,1l-1.1,1.6c-0.8-0.6-1.6-0.8-2.3-0.8
		c-0.6,0-0.8,0.2-0.8,0.6l0,0c0,0.4,0.3,0.6,1.4,0.8c1.9,0.4,3,1,3,2.5l0,0c0,1.7-1.3,2.6-3.3,2.6C40.8,24.7,39.5,24.2,38.4,23.3z"
		/>
</g>
</svg>
