<?xml version="1.0" encoding="utf-8"?>
<!-- Generator: Adobe Illustrator 22.1.0, SVG Export Plug-In . SVG Version: 6.00 Build 0)  -->
<svg version="1.1" id="Layer_1" xmlns="http://www.w3.org/2000/svg" xmlns:xlink="http://www.w3.org/1999/xlink" x="0px" y="0px"
	 viewBox="0 0 323 99" style="enable-background:new 0 0 323 99;" xml:space="preserve">
<style type="text/css">
	.st0{fill:#FFFFFF;}
</style>
<title>logos_artboards</title>
<g id="_Group_">
	<path id="_Compound_Path_" class="st0" d="M0,4h20.6v40.8L58.7,4h24.9L45.4,43.6l39.9,53.8H60.6L31.5,57.6L20.6,68.8v28.6H0L0,4z"
		/>
	<path id="_Compound_Path_2" class="st0" d="M74.4,62v-0.3c0-20.5,16.6-37.2,39-37.2c22.2,0,38.7,16.4,38.7,37v0.3
		c0,20.5-16.6,37.2-39,37.2C90.9,99,74.4,82.6,74.4,62z M132,62v-0.3c0-10.5-7.6-19.7-18.9-19.7c-11.7,0-18.6,8.9-18.6,19.5v0.3
		c0,10.5,7.6,19.7,18.9,19.7C125,81.5,132,72.6,132,62L132,62z"/>
	<path id="_Compound_Path_3" class="st0" d="M157.7,77.1V43.2h-8.6V25.9h8.6V7.6h20.4v18.3H195v17.3h-16.9v30.6c0,4.7,2,6.9,6.6,6.9
		c3.5,0,7-0.9,10-2.5v16.3c-4.9,2.9-10.4,4.3-16.1,4.1C166.2,98.6,157.7,93.7,157.7,77.1z"/>
	<path id="_Compound_Path_4" class="st0" d="M200.8,0h20.4v97.4h-20.4L200.8,0z"/>
	<path id="_Compound_Path_5" class="st0" d="M228.6,0H250v18h-21.4V0z M229.1,25.9h20.4v71.5h-20.4L229.1,25.9z"/>
	<path id="_Compound_Path_6" class="st0" d="M257.2,25.9h20.4V36c4.7-6,10.7-11.5,21-11.5c15.4,0,24.4,10.1,24.4,26.6v46.3h-20.4
		V57.5c0-9.6-4.6-14.5-12.3-14.5c-7.8,0-12.7,4.9-12.7,14.5v39.9h-20.4V25.9z"/>
</g>
</svg>
