<?xml version="1.0" encoding="utf-8"?>
<!-- Generator: Adobe Illustrator 22.1.0, SVG Export Plug-In . SVG Version: 6.00 Build 0)  -->
<svg version="1.1" id="Layer_1" xmlns="http://www.w3.org/2000/svg" xmlns:xlink="http://www.w3.org/1999/xlink" x="0px" y="0px"
	 viewBox="0 0 479 108" style="enable-background:new 0 0 479 108;" xml:space="preserve">
<style type="text/css">
	.st0{fill:#FFFFFF;}
</style>
<title>logos_artboards</title>
<g>
	<path class="st0" d="M0,3.6h34.6c20.2,0,32.4,12,32.4,29.3v0.2c0,19.6-15.2,29.8-34.2,29.8H18.6v25.4H0V3.6z M33.3,46.3
		c9.3,0,14.7-5.6,14.7-12.8v-0.2c0-8.3-5.8-12.8-15.1-12.8H18.6v25.9H33.3z"/>
	<path class="st0" d="M116,23.5h19.1l-24.9,66.4c-5,13.2-10.3,18.1-21.3,18.1c-5.7,0.1-11.4-1.5-16.3-4.5l6.2-13.3
		c2.4,1.5,5.1,2.4,7.9,2.5c3.1,0,4.8-1,6.4-4.2L67.7,23.5h19.4l14.7,44.1L116,23.5z"/>
	<path class="st0" d="M132.4,46.2V46c0-24.1,18.1-43.8,44.1-43.8c15.9,0,25.5,5.3,33.3,13.1L198,28.9c-6.5-5.9-13.2-9.6-21.6-9.6
		c-14.3,0-24.5,11.9-24.5,26.4V46c0,14.5,10,26.6,24.5,26.6c9.7,0,15.6-3.9,22.2-9.9l11.8,12c-8.7,9.3-18.4,15.1-34.7,15.1
		C150.9,89.7,132.4,70.5,132.4,46.2z"/>
	<path class="st0" d="M212.3,0h18.4v32.7c4.2-5.4,9.7-10.4,19-10.4c13.9,0,22,9.2,22,24.1v42h-18.4V52.1c0-8.7-4.1-13.2-11.1-13.2
		c-7,0-11.5,4.5-11.5,13.2v36.2h-18.4V0z"/>
	<path class="st0" d="M274,69.7v-0.2c0-14.1,10.8-20.7,26.1-20.7c5.4,0,10.7,0.9,15.8,2.7v-1.1c0-7.6-4.7-11.9-13.9-11.9
		c-7,0-12,1.3-17.9,3.5l-4.6-14c7.9-3.6,16.5-5.4,25.1-5.2c10,0,17.3,2.7,21.9,7.3c4.8,4.8,7,12,7,20.7v37.6h-17.8v-7
		c-4.5,5-10.6,8.2-19.6,8.2C284,89.5,274,82.5,274,69.7z M316.2,65.4v-3.3c-3.7-1.6-7.7-2.5-11.7-2.4c-7.9,0-12.7,3.1-12.7,8.9v0.2
		c0,5,4.1,7.9,10,7.9C310.4,76.8,316.2,72.1,316.2,65.4z"/>
	<path class="st0" d="M337.5,23.5h18.4v13.1c3.7-8.9,9.8-14.8,20.7-14.3v19.2h-1c-12.2,0-19.7,7.4-19.7,22.9v23.9h-18.4V23.5z"/>
	<path class="st0" d="M380.2,23.5h18.4v9.2c4.2-5.4,9.8-10.4,19.1-10.4c8.5,0,14.9,3.7,18.2,10.3c5.7-6.7,12.4-10.3,21.3-10.3
		c13.7,0,21.9,8.2,21.9,23.8v42.2h-18.4V52.1c0-8.7-3.9-13.2-10.8-13.2s-11.1,4.5-11.1,13.2v36.2h-18.4V52.1
		c0-8.7-3.9-13.2-10.8-13.2s-11.1,4.5-11.1,13.2v36.2h-18.4V23.5z"/>
</g>
</svg>
