<?xml version="1.0" encoding="utf-8"?>
<!-- Generator: Adobe Illustrator 22.1.0, SVG Export Plug-In . SVG Version: 6.00 Build 0)  -->
<svg version="1.1" id="Layer_1" xmlns="http://www.w3.org/2000/svg" xmlns:xlink="http://www.w3.org/1999/xlink" x="0px" y="0px"
	 viewBox="0 0 546 108" style="enable-background:new 0 0 546 108;" xml:space="preserve">
<style type="text/css">
	.st0{fill:#FFFFFF;}
</style>
<title>logos_artboards</title>
<g>
	<path class="st0" d="M0,3.6h38.9c10.8,0,19.2,3,24.8,8.6c4.7,4.7,7.3,11.4,7.3,19.4v0.2c0,13.7-7.4,22.3-18.2,26.3l20.8,30.3H51.6
		L33.4,61.4H18.7v27.2H0L0,3.6z M37.6,44.9c9.1,0,14.3-4.9,14.3-12v-0.2c0-8-5.6-12.1-14.7-12.1H18.7v24.4L37.6,44.9z"/>
	<path class="st0" d="M69.6,56.4v-0.2c0-18.6,13.2-33.9,32.2-33.9c21.7,0,31.7,16.9,31.7,35.3c0,1.5-0.1,3.2-0.2,4.9H87.9
		c1.8,8.4,7.6,12.7,15.9,12.7c6.2,0,10.7-1.9,15.8-6.7l10.6,9.3c-6.1,7.5-14.8,12.1-26.6,12.1C84,90,69.6,76.3,69.6,56.4z M115.5,51
		c-1.1-8.3-5.9-13.8-13.7-13.8c-7.6,0-12.6,5.5-14.1,13.8L115.5,51z"/>
	<path class="st0" d="M131.4,76.2l11-13.2c7.6,6.3,15.7,10.3,25.4,10.3c7.6,0,12.3-3,12.3-8V65c0-4.7-2.9-7.2-17.1-10.8
		c-17.1-4.4-28.2-9.1-28.2-26V28c0-15.4,12.4-25.6,29.7-25.6c11.5-0.2,22.6,3.6,31.6,10.8l-9.7,14.1c-7.5-5.2-14.9-8.4-22.1-8.4
		c-7.2,0-10.9,3.3-10.9,7.4v0.2c0,5.6,3.6,7.4,18.3,11.2c17.2,4.5,27,10.7,27,25.5v0.2c0,16.9-12.9,26.3-31.2,26.3
		C154.2,89.8,141.3,85,131.4,76.2z"/>
	<path class="st0" d="M201,0h18.5v32.8c4.2-5.5,9.7-10.4,19.1-10.4c14,0,22.1,9.2,22.1,24.1v42.1h-18.5V52.3
		c0-8.7-4.1-13.2-11.2-13.2c-7,0-11.5,4.5-11.5,13.2v36.3H201L201,0z"/>
	<path class="st0" d="M263.4,69.9v-0.2c0-14.2,10.8-20.8,26.2-20.8c5.4,0,10.8,0.9,15.9,2.7v-1.1c0-7.6-4.7-11.9-14-11.9
		c-7,0-12,1.3-18,3.5L269,28c7.9-3.6,16.5-5.4,25.3-5.2c10.1,0,17.4,2.7,22,7.3c4.9,4.9,7,12,7,20.8v37.7h-17.8v-7
		c-4.5,5-10.7,8.3-19.7,8.3C273.4,89.8,263.4,82.8,263.4,69.9z M305.7,65.6v-3.3c-3.7-1.6-7.7-2.5-11.8-2.4c-7.9,0-12.7,3.2-12.7,9
		v0.2c0,5,4.1,7.9,10.1,7.9C299.9,77.1,305.7,72.3,305.7,65.6L305.7,65.6z"/>
	<path class="st0" d="M326.5,23.5H345v13.1c3.8-9,9.8-14.8,20.8-14.3v19.3h-1c-12.3,0-19.8,7.4-19.8,22.9v24h-18.5L326.5,23.5z"/>
	<path class="st0" d="M369,23.5h18.5v9.3c4.5-6.1,10.7-10.6,20.3-10.6c15.2,0,29.6,11.9,29.6,33.6v0.2c0,21.7-14.2,33.6-29.6,33.6
		c-9.8,0-15.9-4.5-20.3-9.7V108H369L369,23.5z M418.9,56.2v-0.2c0-10.8-7.3-18-15.9-18s-15.8,7.2-15.8,18v0.2c0,10.8,7.2,18,15.8,18
		S418.9,67.1,418.9,56.2L418.9,56.2z"/>
	<path class="st0" d="M440,56.4v-0.2c0-18.6,13.2-33.9,32.2-33.9c21.7,0,31.7,16.9,31.7,35.3c0,1.5-0.1,3.2-0.2,4.9h-45.3
		c1.8,8.4,7.6,12.7,15.9,12.7c6.2,0,10.7-1.9,15.8-6.7l10.6,9.3C494.5,85.4,485.8,90,474,90C454.5,90,440,76.3,440,56.4z M485.9,51
		c-1.1-8.3-5.9-13.8-13.7-13.8c-7.6,0-12.6,5.5-14.1,13.8L485.9,51z"/>
	<path class="st0" d="M506.8,23.5h18.5v13.1c3.8-9,9.8-14.8,20.8-14.3v19.3h-1c-12.3,0-19.8,7.4-19.8,22.9v24h-18.5L506.8,23.5z"/>
</g>
</svg>
