<?xml version="1.0" encoding="utf-8"?>
<!-- Generator: Adobe Illustrator 22.1.0, SVG Export Plug-In . SVG Version: 6.00 Build 0)  -->
<svg version="1.1" id="Layer_1" xmlns="http://www.w3.org/2000/svg" xmlns:xlink="http://www.w3.org/1999/xlink" x="0px" y="0px"
	 viewBox="0 0 495 108" style="enable-background:new 0 0 495 108;" xml:space="preserve">
<style type="text/css">
	.st0{fill:#FFFFFF;}
</style>
<title>logos_artboards</title>
<g>
	<path class="st0" d="M25.9,20.8H0V3.6h70.4v17.2H44.6v67.5H25.9V20.8z"/>
	<path class="st0" d="M51.1,56.2V56c0-18.5,13.2-33.7,32.2-33.7c21.7,0,31.7,16.8,31.7,35.2c0,1.5-0.1,3.1-0.2,4.8H69.5
		C71.3,70.6,77.1,75,85.4,75c6.2,0,10.7-1.9,15.8-6.7l10.6,9.3c-6.1,7.5-14.8,12.1-26.6,12.1C65.6,89.7,51.1,76.1,51.1,56.2z
		 M97,50.8c-1.1-8.2-6-13.8-13.7-13.8c-7.7,0-12.6,5.4-14.1,13.8H97z"/>
	<path class="st0" d="M116.2,69.7v-0.2c0-14.1,10.8-20.7,26.2-20.7c5.4,0,10.8,0.9,15.9,2.7v-1.1c0-7.6-4.7-11.9-14-11.9
		c-7,0-12,1.3-18,3.5l-4.6-14c7.9-3.6,16.6-5.4,25.3-5.2c10.1,0,17.4,2.7,22,7.3c4.9,4.8,7,12,7,20.7v37.6h-17.9v-7
		c-4.5,5-10.7,8.2-19.7,8.2C126.3,89.5,116.2,82.5,116.2,69.7z M158.6,65.4v-3.3c-3.7-1.6-7.7-2.5-11.8-2.4
		c-7.9,0-12.8,3.1-12.8,8.9v0.2c0,5,4.1,7.9,10.1,7.9C152.8,76.8,158.6,72.1,158.6,65.4L158.6,65.4z"/>
	<path class="st0" d="M179.9,23.5h18.5v9.2c4.3-5.4,9.8-10.4,19.2-10.4c8.5,0,14.9,3.7,18.3,10.3c5.7-6.7,12.5-10.3,21.4-10.3
		c13.7,0,22,8.2,22,23.8v42.2h-18.5V52.1c0-8.7-3.9-13.2-10.8-13.2s-11.2,4.5-11.2,13.2v36.2h-18.5V52.1c0-8.7-3.9-13.2-10.8-13.2
		c-6.9,0-11.2,4.5-11.2,13.2v36.2h-18.5V23.5z"/>
	<path class="st0" d="M281.3,46.2V46c0-24.1,18.2-43.8,44.3-43.8c16,0,25.6,5.3,33.5,13.1l-11.9,13.7c-6.6-5.9-13.2-9.6-21.7-9.6
		c-14.3,0-24.7,11.9-24.7,26.4V46c0,14.5,10.1,26.6,24.7,26.6c9.7,0,15.7-3.9,22.3-9.9l11.9,12c-8.7,9.3-18.5,15.1-34.9,15.1
		C299.8,89.7,281.3,70.5,281.3,46.2z"/>
	<path class="st0" d="M361.7,0h19.4v16.3h-19.4V0z M362.1,23.5h18.5v64.8h-18.5V23.5z"/>
	<path class="st0" d="M391.5,69.9V39.2h-7.8V23.5h7.8V6.9H410v16.6h15.3v15.7H410v27.7c0,4.2,1.8,6.3,6,6.3c3.2,0,6.3-0.8,9.1-2.3
		v14.8c-4.4,2.6-9.5,3.9-14.6,3.7C399.2,89.4,391.5,84.9,391.5,69.9z"/>
	<path class="st0" d="M475.8,23.5H495l-25,66.4c-5,13.2-10.3,18.1-21.4,18.1c-5.8,0.1-11.5-1.5-16.4-4.5l6.2-13.3
		c2.4,1.5,5.1,2.4,7.9,2.5c3.2,0,4.9-1,6.4-4.2l-25.5-65.1h19.6l14.8,44.1L475.8,23.5z"/>
</g>
</svg>
