<?xml version="1.0" encoding="utf-8"?>
<!-- Generator: Adobe Illustrator 22.1.0, SVG Export Plug-In . SVG Version: 6.00 Build 0)  -->
<svg version="1.1" id="Layer_1" xmlns="http://www.w3.org/2000/svg" xmlns:xlink="http://www.w3.org/1999/xlink" x="0px" y="0px"
	 viewBox="0 0 490 104" style="enable-background:new 0 0 490 104;" xml:space="preserve">
<style type="text/css">
	.st0{fill:#FFFFFF;}
</style>
<title>logos_artboards</title>
<g>
	<path class="st0" d="M0,48.4V0h18.7v47.9c0,13.8,6.9,20.9,18.3,20.9s18.3-6.9,18.3-20.3V0h18.7v47.8C74.1,73.4,59.6,86,36.8,86
		S0,73.3,0,48.4z"/>
	<path class="st0" d="M77.2,19.8h18.5v9.3c4.5-6,10.7-10.5,20.3-10.5c15.2,0,29.6,11.9,29.6,33.5v0.2c0,21.6-14.2,33.5-29.6,33.5
		c-9.8,0-15.9-4.5-20.3-9.7V104H77.2V19.8z M127.1,52.4v-0.2c0-10.8-7.3-17.9-15.9-17.9s-15.8,7.1-15.8,17.9v0.2
		c0,10.8,7.2,17.9,15.8,17.9S127.1,63.2,127.1,52.4L127.1,52.4z"/>
	<path class="st0" d="M142.7,76.1l7.9-12.1c7,5.1,14.5,7.7,20.5,7.7c5.3,0,7.8-1.9,7.8-4.8v-0.2c0-4-6.3-5.3-13.5-7.5
		c-9.1-2.7-19.4-6.9-19.4-19.5v-0.2c0-13.2,10.7-20.6,23.8-20.6c8.7,0.1,17.1,2.7,24.3,7.5l-7,12.7c-6.4-3.7-12.9-6-17.6-6
		c-4.5,0-6.8,1.9-6.8,4.5v0.2c0,3.6,6.2,5.3,13.2,7.7c9.1,3,19.7,7.4,19.7,19.2v0.2c0,14.4-10.8,20.9-24.9,20.9
		C160.5,85.8,150.6,82.3,142.7,76.1z"/>
	<path class="st0" d="M196.2,52.6v-0.2c0-18.6,15.1-33.7,35.3-33.7c20.2,0,35.1,14.9,35.1,33.5v0.2c0,18.6-15.1,33.7-35.3,33.7
		C211.2,86.1,196.2,71.2,196.2,52.6z M248.5,52.6v-0.2c0-9.6-6.9-17.9-17.1-17.9c-10.6,0-16.9,8.1-16.9,17.7v0.2
		c0,9.6,6.9,17.9,17.1,17.9C242.1,70.3,248.5,62.2,248.5,52.6z"/>
	<path class="st0" d="M268.4,61.8v-42h18.5V56c0,8.7,4.1,13.2,11.2,13.2c7,0,11.5-4.5,11.5-13.2V19.8H328v64.8h-18.5v-9.2
		c-4.3,5.4-9.7,10.4-19.1,10.4C276.5,85.9,268.4,76.7,268.4,61.8z"/>
	<path class="st0" d="M332.1,19.8h18.5v13.1c3.8-8.9,9.8-14.8,20.8-14.3v19.2h-1c-12.3,0-19.8,7.4-19.8,22.9v23.9h-18.5V19.8z"/>
	<path class="st0" d="M370.1,52.6v-0.2c0-18.5,14.2-33.7,34.1-33.7c12.3,0,19.9,4.1,26,10.9L419,41.6c-4.1-4.4-8.3-7.1-14.8-7.1
		c-9.2,0-15.8,8.1-15.8,17.7v0.2c0,9.9,6.4,17.9,16.5,17.9c6.2,0,10.4-2.7,14.9-6.9l10.8,10.9c-6.3,6.9-13.6,11.9-26.6,11.9
		C384.5,86.1,370.1,71.1,370.1,52.6z"/>
	<path class="st0" d="M426.1,52.6v-0.2c0-18.5,13.2-33.7,32.2-33.7c21.7,0,31.7,16.8,31.7,35.2c0,1.5-0.1,3.1-0.2,4.8h-45.3
		c1.8,8.3,7.7,12.7,15.9,12.7c6.2,0,10.7-1.9,15.8-6.7l10.6,9.3c-6.1,7.5-14.8,12.1-26.6,12.1C440.6,86.1,426.1,72.4,426.1,52.6z
		 M472,47.2c-1.1-8.2-6-13.8-13.7-13.8c-7.7,0-12.6,5.4-14.1,13.8H472z"/>
</g>
</svg>
