<?xml version="1.0" encoding="utf-8"?>
<!-- Generator: Adobe Illustrator 22.1.0, SVG Export Plug-In . SVG Version: 6.00 Build 0)  -->
<svg version="1.1" id="Layer_1" xmlns="http://www.w3.org/2000/svg" xmlns:xlink="http://www.w3.org/1999/xlink" x="0px" y="0px"
	 viewBox="0 0 567 90" style="enable-background:new 0 0 567 90;" xml:space="preserve">
<style type="text/css">
	.st0{fill:#FFFFFF;}
</style>
<title>logos_artboards</title>
<g>
	<path class="st0" d="M0,3.6h20l17.6,57.5l19-57.7h16l19,57.7l17.6-57.5h19.5l-29,85.5H83.6L64.4,33.6L45.2,89.2H29L0,3.6z"/>
	<path class="st0" d="M116.4,56.4v-0.2c0-18.6,13.2-33.8,32.1-33.8c21.7,0,31.7,16.9,31.7,35.3c0,1.5-0.1,3.2-0.2,4.9h-45.2
		c1.8,8.4,7.6,12.7,15.9,12.7c6.2,0,10.7-1.9,15.8-6.7l10.6,9.3c-6.1,7.5-14.8,12.1-26.6,12.1C130.9,90,116.4,76.3,116.4,56.4z
		 M162.3,50.9c-1.1-8.2-5.9-13.8-13.7-13.8c-7.6,0-12.6,5.5-14.1,13.8H162.3z"/>
	<path class="st0" d="M201.7,80.1v8.5h-18.4V0h18.4v32.9c4.5-6.1,10.7-10.6,20.3-10.6c15.2,0,29.6,11.9,29.6,33.6v0.2
		c0,21.7-14.2,33.6-29.6,33.6C212.1,89.8,206.1,85.3,201.7,80.1z M233.1,56.2v-0.2c0-10.8-7.3-18-15.9-18s-15.8,7.2-15.8,18v0.2
		c0,10.8,7.2,18,15.8,18S233.1,67.1,233.1,56.2z"/>
	<path class="st0" d="M249.1,76.2l11-13.2c7.6,6.3,15.6,10.3,25.3,10.3c7.6,0,12.2-3,12.2-8V65c0-4.7-2.9-7.2-17.1-10.8
		c-17.1-4.4-28.1-9.1-28.1-26V28c0-15.4,12.4-25.6,29.7-25.6c11.4-0.2,22.6,3.6,31.5,10.8l-9.7,14.1c-7.5-5.2-14.9-8.4-22.1-8.4
		c-7.2,0-10.9,3.3-10.9,7.4v0.2c0,5.6,3.6,7.4,18.3,11.2c17.2,4.5,26.9,10.7,26.9,25.5v0.2c0,16.9-12.9,26.3-31.2,26.3
		C271.9,89.8,259,85,249.1,76.2z"/>
	<path class="st0" d="M320.9,70.1V39.3h-7.8V23.5h7.8V6.9h18.4v16.6h15.3v15.8h-15.3v27.8c0,4.2,1.8,6.3,5.9,6.3
		c3.2,0,6.3-0.8,9.1-2.3v14.8c-4.4,2.6-9.4,3.9-14.6,3.8C328.6,89.6,320.9,85.1,320.9,70.1z"/>
	<path class="st0" d="M353.4,56.4v-0.2c0-18.7,15-33.8,35.3-33.8c20.1,0,35.1,14.9,35.1,33.6v0.2c0,18.7-15,33.8-35.3,33.8
		C368.3,90,353.4,75.1,353.4,56.4z M405.6,56.4v-0.2c0-9.6-6.9-18-17.1-18c-10.6,0-16.9,8.1-16.9,17.7v0.2c0,9.6,6.9,18,17.1,18
		C399.3,74.1,405.6,66,405.6,56.4z"/>
	<path class="st0" d="M426.2,23.5h18.4v13.1c3.8-9,9.8-14.8,20.7-14.3v19.3h-1c-12.3,0-19.8,7.4-19.8,22.9v24h-18.4V23.5z"/>
	<path class="st0" d="M467.8,23.5h18.4v9.2c4.2-5.5,9.8-10.4,19.2-10.4c8.5,0,14.9,3.8,18.3,10.3c5.7-6.7,12.5-10.3,21.3-10.3
		c13.7,0,22,8.2,22,23.9v42.3h-18.4V52.3c0-8.7-3.9-13.2-10.8-13.2c-6.9,0-11.2,4.5-11.2,13.2v36.3h-18.4V52.3
		c0-8.7-3.9-13.2-10.8-13.2s-11.2,4.5-11.2,13.2v36.3h-18.4V23.5z"/>
</g>
</svg>
