<?xml version="1.0" encoding="utf-8"?>
<!-- Generator: Adobe Illustrator 22.1.0, SVG Export Plug-In . SVG Version: 6.00 Build 0)  -->
<svg version="1.1" id="Layer_1" xmlns="http://www.w3.org/2000/svg" xmlns:xlink="http://www.w3.org/1999/xlink" x="0px" y="0px"
	 viewBox="0 0 485 90" style="enable-background:new 0 0 485 90;" xml:space="preserve">
<style type="text/css">
	.st0{fill:#FFFFFF;}
</style>
<title>logos_artboards</title>
<g>
	<path class="st0" d="M32.7,55.1L0,3.6h21.8l20.3,34.1L62.8,3.6H84L51.3,54.7v33.8H32.7V55.1z"/>
	<path class="st0" d="M62.9,56.4v-0.2c0-18.7,15.1-33.8,35.3-33.8c20.1,0,35.1,14.9,35.1,33.6v0.2c0,18.7-15.1,33.8-35.3,33.8
		C77.8,90,62.9,75.1,62.9,56.4z M115.1,56.4v-0.2c0-9.6-6.9-18-17.1-18c-10.6,0-16.9,8.1-16.9,17.7v0.2c0,9.6,6.9,18,17.1,18
		C108.8,74.1,115.1,66,115.1,56.4L115.1,56.4z"/>
	<path class="st0" d="M135.9,65.6V23.5h18.4v36.3c0,8.7,4.1,13.2,11.2,13.2c7,0,11.5-4.5,11.5-13.2V23.5h18.4v65h-18.4v-9.2
		c-4.2,5.5-9.7,10.4-19.1,10.4C144.1,89.8,135.9,80.5,135.9,65.6z"/>
	<path class="st0" d="M221.6,20.9h-25.9V3.6h70.4v17.2h-25.9v67.7h-18.7V20.9z"/>
	<path class="st0" d="M262.2,23.5h18.4v13.1c3.8-9,9.8-14.8,20.8-14.3v19.3h-1c-12.3,0-19.8,7.4-19.8,22.9v24h-18.4V23.5z"/>
	<path class="st0" d="M297.4,69.9v-0.2c0-14.2,10.8-20.7,26.2-20.7c5.4,0,10.8,0.9,15.9,2.7v-1.1c0-7.6-4.7-11.9-14-11.9
		c-7,0-12,1.3-18,3.5L302.9,28c7.9-3.6,16.5-5.4,25.2-5.2c10.1,0,17.4,2.7,22,7.3c4.9,4.9,7,12,7,20.7v37.7h-17.8v-7
		c-4.5,5-10.7,8.2-19.7,8.2C307.4,89.8,297.4,82.7,297.4,69.9z M339.7,65.6v-3.3c-3.7-1.6-7.7-2.5-11.8-2.4c-7.9,0-12.7,3.2-12.7,9
		v0.2c0,5,4.1,7.9,10.1,7.9C333.9,77,339.7,72.3,339.7,65.6z"/>
	<path class="st0" d="M359.7,56.4v-0.2c0-18.6,14.2-33.8,34.1-33.8c12.3,0,19.9,4.1,26,10.9l-11.3,12.1c-4.1-4.4-8.3-7.2-14.8-7.2
		c-9.2,0-15.8,8.1-15.8,17.7v0.2c0,9.9,6.4,18,16.5,18c6.2,0,10.4-2.7,14.9-6.9l10.8,10.9C413.9,85,406.6,90,393.6,90
		C374.1,90,359.7,75,359.7,56.4z"/>
	<path class="st0" d="M422,0h18.4v47.2l21.6-23.7h22.1l-24.8,25.6L485,88.5h-21.4L447,61.9l-6.6,6.9v19.8H422V0z"/>
</g>
</svg>
